solid OpenSCAD_Model
  facet normal -1 0 0
    outer loop
      vertex 0 0 0
      vertex 0 20 6
      vertex 0 20 0
    endloop
  endfacet
  facet normal -1 -0 0
    outer loop
      vertex 0 20 6
      vertex 0 0 0
      vertex 0 0 6
    endloop
  endfacet
  facet normal 0 0 1
    outer loop
      vertex 39.7118 11.1362 6
      vertex 46 20 6
      vertex 39.75 11.5 6
    endloop
  endfacet
  facet normal 0 0 1
    outer loop
      vertex 46 20 6
      vertex 39.7118 11.8638 6
      vertex 39.75 11.5 6
    endloop
  endfacet
  facet normal 0 0 1
    outer loop
      vertex 46 20 6
      vertex 39.5987 12.2118 6
      vertex 39.7118 11.8638 6
    endloop
  endfacet
  facet normal 0 0 1
    outer loop
      vertex 46 20 6
      vertex 39.4158 12.5286 6
      vertex 39.5987 12.2118 6
    endloop
  endfacet
  facet normal 0 0 1
    outer loop
      vertex 46 20 6
      vertex 39.171 12.8005 6
      vertex 39.4158 12.5286 6
    endloop
  endfacet
  facet normal 0 0 1
    outer loop
      vertex 46 20 6
      vertex 38.875 13.0155 6
      vertex 39.171 12.8005 6
    endloop
  endfacet
  facet normal 0 0 1
    outer loop
      vertex 46 20 6
      vertex 38.5408 13.1643 6
      vertex 38.875 13.0155 6
    endloop
  endfacet
  facet normal 0 0 1
    outer loop
      vertex 46 20 6
      vertex 38.1829 13.2404 6
      vertex 38.5408 13.1643 6
    endloop
  endfacet
  facet normal 0 0 1
    outer loop
      vertex 46 20 6
      vertex 37.8171 13.2404 6
      vertex 38.1829 13.2404 6
    endloop
  endfacet
  facet normal 0 0 1
    outer loop
      vertex 46 20 6
      vertex 37.4592 13.1643 6
      vertex 37.8171 13.2404 6
    endloop
  endfacet
  facet normal 0 0 1
    outer loop
      vertex 46 20 6
      vertex 37.125 13.0155 6
      vertex 37.4592 13.1643 6
    endloop
  endfacet
  facet normal 0 0 1
    outer loop
      vertex 8.875 13.0155 6
      vertex 37.125 13.0155 6
      vertex 46 20 6
    endloop
  endfacet
  facet normal 0 0 1
    outer loop
      vertex 36.2882 11.8638 6
      vertex 9.75 11.5 6
      vertex 36.25 11.5 6
    endloop
  endfacet
  facet normal 0 0 1
    outer loop
      vertex 9.71176 11.8638 6
      vertex 36.2882 11.8638 6
      vertex 36.4013 12.2118 6
    endloop
  endfacet
  facet normal 0 0 1
    outer loop
      vertex 9.5987 12.2118 6
      vertex 36.4013 12.2118 6
      vertex 36.5842 12.5286 6
    endloop
  endfacet
  facet normal 0 0 1
    outer loop
      vertex 9.41578 12.5286 6
      vertex 36.5842 12.5286 6
      vertex 36.829 12.8005 6
    endloop
  endfacet
  facet normal 0 0 1
    outer loop
      vertex 37.125 13.0155 6
      vertex 8.875 13.0155 6
      vertex 36.829 12.8005 6
    endloop
  endfacet
  facet normal 0 0 1
    outer loop
      vertex 36.2882 11.8638 6
      vertex 9.71176 11.8638 6
      vertex 9.75 11.5 6
    endloop
  endfacet
  facet normal 0 0 1
    outer loop
      vertex 36.4013 12.2118 6
      vertex 9.5987 12.2118 6
      vertex 9.71176 11.8638 6
    endloop
  endfacet
  facet normal 0 0 1
    outer loop
      vertex 36.5842 12.5286 6
      vertex 9.41578 12.5286 6
      vertex 9.5987 12.2118 6
    endloop
  endfacet
  facet normal 0 0 1
    outer loop
      vertex 36.829 12.8005 6
      vertex 9.17098 12.8005 6
      vertex 9.41578 12.5286 6
    endloop
  endfacet
  facet normal 0 0 1
    outer loop
      vertex 36.829 12.8005 6
      vertex 8.875 13.0155 6
      vertex 9.17098 12.8005 6
    endloop
  endfacet
  facet normal -0 0 1
    outer loop
      vertex 0 20 6
      vertex 8.875 13.0155 6
      vertex 46 20 6
    endloop
  endfacet
  facet normal 0 0 1
    outer loop
      vertex 8.875 13.0155 6
      vertex 0 20 6
      vertex 8.54078 13.1643 6
    endloop
  endfacet
  facet normal 0 0 1
    outer loop
      vertex 8.54078 13.1643 6
      vertex 0 20 6
      vertex 8.18292 13.2404 6
    endloop
  endfacet
  facet normal 0 0 1
    outer loop
      vertex 6.28824 11.8638 6
      vertex 0 20 6
      vertex 6.25 11.5 6
    endloop
  endfacet
  facet normal 0 0 1
    outer loop
      vertex 6.40129 12.2118 6
      vertex 0 20 6
      vertex 6.28824 11.8638 6
    endloop
  endfacet
  facet normal 0 0 1
    outer loop
      vertex 6.58422 12.5286 6
      vertex 0 20 6
      vertex 6.40129 12.2118 6
    endloop
  endfacet
  facet normal 0 0 1
    outer loop
      vertex 6.82902 12.8005 6
      vertex 0 20 6
      vertex 6.58422 12.5286 6
    endloop
  endfacet
  facet normal 0 0 1
    outer loop
      vertex 7.125 13.0155 6
      vertex 0 20 6
      vertex 6.82902 12.8005 6
    endloop
  endfacet
  facet normal 0 0 1
    outer loop
      vertex 7.45922 13.1643 6
      vertex 0 20 6
      vertex 7.125 13.0155 6
    endloop
  endfacet
  facet normal 0 0 1
    outer loop
      vertex 7.81707 13.2404 6
      vertex 0 20 6
      vertex 7.45922 13.1643 6
    endloop
  endfacet
  facet normal 0 0 1
    outer loop
      vertex 8.18292 13.2404 6
      vertex 0 20 6
      vertex 7.81707 13.2404 6
    endloop
  endfacet
  facet normal 0 0 1
    outer loop
      vertex 46 20 6
      vertex 39.7118 11.1362 6
      vertex 46 0 6
    endloop
  endfacet
  facet normal -0 0 1
    outer loop
      vertex 39.5987 10.7882 6
      vertex 46 0 6
      vertex 39.7118 11.1362 6
    endloop
  endfacet
  facet normal -0 0 1
    outer loop
      vertex 39.4158 10.4714 6
      vertex 46 0 6
      vertex 39.5987 10.7882 6
    endloop
  endfacet
  facet normal -0 0 1
    outer loop
      vertex 39.171 10.1995 6
      vertex 46 0 6
      vertex 39.4158 10.4714 6
    endloop
  endfacet
  facet normal -0 0 1
    outer loop
      vertex 38.875 9.98446 6
      vertex 46 0 6
      vertex 39.171 10.1995 6
    endloop
  endfacet
  facet normal -0 0 1
    outer loop
      vertex 38.5408 9.83565 6
      vertex 46 0 6
      vertex 38.875 9.98446 6
    endloop
  endfacet
  facet normal -0 0 1
    outer loop
      vertex 38.1829 9.75959 6
      vertex 46 0 6
      vertex 38.5408 9.83565 6
    endloop
  endfacet
  facet normal -0 0 1
    outer loop
      vertex 37.8171 9.75959 6
      vertex 46 0 6
      vertex 38.1829 9.75959 6
    endloop
  endfacet
  facet normal 0 0 1
    outer loop
      vertex 37.4592 9.83565 6
      vertex 46 0 6
      vertex 37.8171 9.75959 6
    endloop
  endfacet
  facet normal 0 0 1
    outer loop
      vertex 37.125 9.98446 6
      vertex 46 0 6
      vertex 37.4592 9.83565 6
    endloop
  endfacet
  facet normal 0 0 1
    outer loop
      vertex 8.875 9.98446 6
      vertex 37.125 9.98446 6
      vertex 36.829 10.1995 6
    endloop
  endfacet
  facet normal 0 0 1
    outer loop
      vertex 9.17098 10.1995 6
      vertex 36.829 10.1995 6
      vertex 36.5842 10.4714 6
    endloop
  endfacet
  facet normal -0 0 1
    outer loop
      vertex 9.75 11.5 6
      vertex 36.2882 11.1362 6
      vertex 36.25 11.5 6
    endloop
  endfacet
  facet normal 0 0 1
    outer loop
      vertex 9.71176 11.1362 6
      vertex 36.2882 11.1362 6
      vertex 9.75 11.5 6
    endloop
  endfacet
  facet normal 0 0 1
    outer loop
      vertex 36.2882 11.1362 6
      vertex 9.71176 11.1362 6
      vertex 36.4013 10.7882 6
    endloop
  endfacet
  facet normal 0 0 1
    outer loop
      vertex 9.5987 10.7882 6
      vertex 36.4013 10.7882 6
      vertex 9.71176 11.1362 6
    endloop
  endfacet
  facet normal 0 0 1
    outer loop
      vertex 36.4013 10.7882 6
      vertex 9.5987 10.7882 6
      vertex 36.5842 10.4714 6
    endloop
  endfacet
  facet normal 0 0 1
    outer loop
      vertex 9.41578 10.4714 6
      vertex 36.5842 10.4714 6
      vertex 9.5987 10.7882 6
    endloop
  endfacet
  facet normal 0 0 1
    outer loop
      vertex 9.17098 10.1995 6
      vertex 36.5842 10.4714 6
      vertex 9.41578 10.4714 6
    endloop
  endfacet
  facet normal 0 0 1
    outer loop
      vertex 36.829 10.1995 6
      vertex 9.17098 10.1995 6
      vertex 8.875 9.98446 6
    endloop
  endfacet
  facet normal 0 0 1
    outer loop
      vertex 37.125 9.98446 6
      vertex 8.875 9.98446 6
      vertex 46 0 6
    endloop
  endfacet
  facet normal 0 0 1
    outer loop
      vertex 0 0 6
      vertex 8.875 9.98446 6
      vertex 8.54078 9.83565 6
    endloop
  endfacet
  facet normal 0 0 1
    outer loop
      vertex 0 0 6
      vertex 8.54078 9.83565 6
      vertex 8.18292 9.75959 6
    endloop
  endfacet
  facet normal 0 0 1
    outer loop
      vertex 0 0 6
      vertex 8.18292 9.75959 6
      vertex 7.81707 9.75959 6
    endloop
  endfacet
  facet normal 0 0 1
    outer loop
      vertex 0 0 6
      vertex 7.81707 9.75959 6
      vertex 7.45922 9.83565 6
    endloop
  endfacet
  facet normal 0 0 1
    outer loop
      vertex 0 20 6
      vertex 6.28824 11.1362 6
      vertex 6.25 11.5 6
    endloop
  endfacet
  facet normal 0 0 1
    outer loop
      vertex 0 0 6
      vertex 6.28824 11.1362 6
      vertex 0 20 6
    endloop
  endfacet
  facet normal 0 0 1
    outer loop
      vertex 6.28824 11.1362 6
      vertex 0 0 6
      vertex 6.40129 10.7882 6
    endloop
  endfacet
  facet normal 0 0 1
    outer loop
      vertex 8.875 9.98446 6
      vertex 0 0 6
      vertex 46 0 6
    endloop
  endfacet
  facet normal 0 0 1
    outer loop
      vertex 7.125 9.98446 6
      vertex 0 0 6
      vertex 7.45922 9.83565 6
    endloop
  endfacet
  facet normal 0 0 1
    outer loop
      vertex 6.82902 10.1995 6
      vertex 0 0 6
      vertex 7.125 9.98446 6
    endloop
  endfacet
  facet normal 0 0 1
    outer loop
      vertex 6.58422 10.4714 6
      vertex 0 0 6
      vertex 6.82902 10.1995 6
    endloop
  endfacet
  facet normal 0 0 1
    outer loop
      vertex 6.40129 10.7882 6
      vertex 0 0 6
      vertex 6.58422 10.4714 6
    endloop
  endfacet
  facet normal 1 -0 0
    outer loop
      vertex 46 0 6
      vertex 46 20 0
      vertex 46 20 6
    endloop
  endfacet
  facet normal 1 0 0
    outer loop
      vertex 46 20 0
      vertex 46 0 6
      vertex 46 0 0
    endloop
  endfacet
  facet normal 0 1 0
    outer loop
      vertex 36.5 20 3
      vertex 46 20 6
      vertex 43 20 3
    endloop
  endfacet
  facet normal 0 1 -0
    outer loop
      vertex 46 20 0
      vertex 43 20 3
      vertex 46 20 6
    endloop
  endfacet
  facet normal 0 1 0
    outer loop
      vertex 43 20 3
      vertex 46 20 0
      vertex 43 20 0
    endloop
  endfacet
  facet normal 0 1 0
    outer loop
      vertex 33 20 3
      vertex 46 20 6
      vertex 36.5 20 3
    endloop
  endfacet
  facet normal 0 1 0
    outer loop
      vertex 46 20 6
      vertex 33 20 3
      vertex 0 20 6
    endloop
  endfacet
  facet normal 0 1 -0
    outer loop
      vertex 13 20 3
      vertex 0 20 6
      vertex 33 20 3
    endloop
  endfacet
  facet normal 0 1 -0
    outer loop
      vertex 9.5 20 3
      vertex 0 20 6
      vertex 13 20 3
    endloop
  endfacet
  facet normal 0 1 -0
    outer loop
      vertex 3 20 3
      vertex 0 20 6
      vertex 9.5 20 3
    endloop
  endfacet
  facet normal 0 1 0
    outer loop
      vertex 0 20 0
      vertex 3 20 3
      vertex 3 20 0
    endloop
  endfacet
  facet normal 0 1 0
    outer loop
      vertex 3 20 3
      vertex 0 20 0
      vertex 0 20 6
    endloop
  endfacet
  facet normal 0 0 -1
    outer loop
      vertex 0 0 0
      vertex 3 20 0
      vertex 3 0 0
    endloop
  endfacet
  facet normal -0 0 -1
    outer loop
      vertex 3 20 0
      vertex 0 0 0
      vertex 0 20 0
    endloop
  endfacet
  facet normal 0 0 -1
    outer loop
      vertex 43 0 0
      vertex 46 20 0
      vertex 46 0 0
    endloop
  endfacet
  facet normal -0 0 -1
    outer loop
      vertex 46 20 0
      vertex 43 0 0
      vertex 43 20 0
    endloop
  endfacet
  facet normal 0 -1 0
    outer loop
      vertex 0 0 6
      vertex 3 0 3
      vertex 46 0 6
    endloop
  endfacet
  facet normal 0 -1 0
    outer loop
      vertex 0 0 0
      vertex 3 0 3
      vertex 0 0 6
    endloop
  endfacet
  facet normal 0 -1 -0
    outer loop
      vertex 3 0 3
      vertex 0 0 0
      vertex 3 0 0
    endloop
  endfacet
  facet normal 0 -1 0
    outer loop
      vertex 43 0 3
      vertex 46 0 6
      vertex 3 0 3
    endloop
  endfacet
  facet normal 0 -1 0
    outer loop
      vertex 46 0 0
      vertex 43 0 3
      vertex 43 0 0
    endloop
  endfacet
  facet normal 0 -1 0
    outer loop
      vertex 43 0 3
      vertex 46 0 0
      vertex 46 0 6
    endloop
  endfacet
  facet normal 1 -0 0
    outer loop
      vertex 3 0 3
      vertex 3 20 0
      vertex 3 20 3
    endloop
  endfacet
  facet normal 1 0 0
    outer loop
      vertex 3 20 0
      vertex 3 0 3
      vertex 3 0 0
    endloop
  endfacet
  facet normal 0 0 -1
    outer loop
      vertex 43 0 3
      vertex 39.75 11.5 3
      vertex 43 20 3
    endloop
  endfacet
  facet normal 0 0 -1
    outer loop
      vertex 43 0 3
      vertex 39.7118 11.1362 3
      vertex 39.75 11.5 3
    endloop
  endfacet
  facet normal 0 0 -1
    outer loop
      vertex 43 0 3
      vertex 39.5987 10.7882 3
      vertex 39.7118 11.1362 3
    endloop
  endfacet
  facet normal 0 0 -1
    outer loop
      vertex 43 0 3
      vertex 39.4158 10.4714 3
      vertex 39.5987 10.7882 3
    endloop
  endfacet
  facet normal 0 0 -1
    outer loop
      vertex 43 0 3
      vertex 39.171 10.1995 3
      vertex 39.4158 10.4714 3
    endloop
  endfacet
  facet normal 0 0 -1
    outer loop
      vertex 43 0 3
      vertex 38.875 9.98446 3
      vertex 39.171 10.1995 3
    endloop
  endfacet
  facet normal 0 0 -1
    outer loop
      vertex 43 0 3
      vertex 38.5408 9.83565 3
      vertex 38.875 9.98446 3
    endloop
  endfacet
  facet normal 0 0 -1
    outer loop
      vertex 43 0 3
      vertex 38.1829 9.75959 3
      vertex 38.5408 9.83565 3
    endloop
  endfacet
  facet normal 0 0 -1
    outer loop
      vertex 43 0 3
      vertex 37.8171 9.75959 3
      vertex 38.1829 9.75959 3
    endloop
  endfacet
  facet normal 0 0 -1
    outer loop
      vertex 43 0 3
      vertex 37.4592 9.83565 3
      vertex 37.8171 9.75959 3
    endloop
  endfacet
  facet normal 0 0 -1
    outer loop
      vertex 29.75 8.30866 3
      vertex 37.4592 9.83565 3
      vertex 43 0 3
    endloop
  endfacet
  facet normal -0 0 -1
    outer loop
      vertex 37.4592 9.83565 3
      vertex 29.75 8.30866 3
      vertex 37.125 9.98446 3
    endloop
  endfacet
  facet normal 0 -0 -1
    outer loop
      vertex 32.0333 9.96754 3
      vertex 37.125 9.98446 3
      vertex 29.75 8.30866 3
    endloop
  endfacet
  facet normal 0 0 -1
    outer loop
      vertex 37.8171 13.2404 3
      vertex 35.3329 14.5091 3
      vertex 36.205 17.1932 3
    endloop
  endfacet
  facet normal 0 0 -1
    outer loop
      vertex 33.9217 12.0649 3
      vertex 36.25 11.5 3
      vertex 36.2882 11.1362 3
    endloop
  endfacet
  facet normal 0 0 -1
    outer loop
      vertex 36.2882 11.8638 3
      vertex 33.9217 12.0649 3
      vertex 35.3329 14.5091 3
    endloop
  endfacet
  facet normal 0 0 -1
    outer loop
      vertex 36.4013 10.7882 3
      vertex 33.9217 12.0649 3
      vertex 36.2882 11.1362 3
    endloop
  endfacet
  facet normal 0 0 -1
    outer loop
      vertex 32.0333 9.96754 3
      vertex 36.4013 10.7882 3
      vertex 36.5842 10.4714 3
    endloop
  endfacet
  facet normal -0 0 -1
    outer loop
      vertex 37.125 9.98446 3
      vertex 32.0333 9.96754 3
      vertex 36.829 10.1995 3
    endloop
  endfacet
  facet normal -0 0 -1
    outer loop
      vertex 36.4013 10.7882 3
      vertex 32.0333 9.96754 3
      vertex 33.9217 12.0649 3
    endloop
  endfacet
  facet normal -0 0 -1
    outer loop
      vertex 36.829 10.1995 3
      vertex 32.0333 9.96754 3
      vertex 36.5842 10.4714 3
    endloop
  endfacet
  facet normal 0 0 -1
    outer loop
      vertex 43 0 3
      vertex 27.1717 7.16074 3
      vertex 29.75 8.30866 3
    endloop
  endfacet
  facet normal 0 0 -1
    outer loop
      vertex 43 0 3
      vertex 24.4111 6.57395 3
      vertex 27.1717 7.16074 3
    endloop
  endfacet
  facet normal 0 0 -1
    outer loop
      vertex 43 0 3
      vertex 21.5889 6.57395 3
      vertex 24.4111 6.57395 3
    endloop
  endfacet
  facet normal 0 0 -1
    outer loop
      vertex 3 0 3
      vertex 21.5889 6.57395 3
      vertex 43 0 3
    endloop
  endfacet
  facet normal 0 0 -1
    outer loop
      vertex 9.5987 12.2118 3
      vertex 12.0783 12.0649 3
      vertex 9.71176 11.8638 3
    endloop
  endfacet
  facet normal 0 0 -1
    outer loop
      vertex 9.71176 11.8638 3
      vertex 12.0783 12.0649 3
      vertex 9.75 11.5 3
    endloop
  endfacet
  facet normal 0 0 -1
    outer loop
      vertex 9.5987 10.7882 3
      vertex 12.0783 12.0649 3
      vertex 13.9667 9.96754 3
    endloop
  endfacet
  facet normal 0 0 -1
    outer loop
      vertex 8.875 9.98446 3
      vertex 13.9667 9.96754 3
      vertex 16.25 8.30866 3
    endloop
  endfacet
  facet normal 0 0 -1
    outer loop
      vertex 12.0783 12.0649 3
      vertex 9.71176 11.1362 3
      vertex 9.75 11.5 3
    endloop
  endfacet
  facet normal 0 0 -1
    outer loop
      vertex 3 0 3
      vertex 16.25 8.30866 3
      vertex 18.8283 7.16074 3
    endloop
  endfacet
  facet normal 0 0 -1
    outer loop
      vertex 12.0783 12.0649 3
      vertex 9.5987 10.7882 3
      vertex 9.71176 11.1362 3
    endloop
  endfacet
  facet normal 0 0 -1
    outer loop
      vertex 13.9667 9.96754 3
      vertex 9.41578 10.4714 3
      vertex 9.5987 10.7882 3
    endloop
  endfacet
  facet normal 0 0 -1
    outer loop
      vertex 13.9667 9.96754 3
      vertex 9.17098 10.1995 3
      vertex 9.41578 10.4714 3
    endloop
  endfacet
  facet normal 0 0 -1
    outer loop
      vertex 13.9667 9.96754 3
      vertex 8.875 9.98446 3
      vertex 9.17098 10.1995 3
    endloop
  endfacet
  facet normal -0 0 -1
    outer loop
      vertex 21.5889 6.57395 3
      vertex 3 0 3
      vertex 18.8283 7.16074 3
    endloop
  endfacet
  facet normal -0 0 -1
    outer loop
      vertex 16.25 8.30866 3
      vertex 3 0 3
      vertex 8.54078 9.83565 3
    endloop
  endfacet
  facet normal 0 0 -1
    outer loop
      vertex 16.25 8.30866 3
      vertex 8.54078 9.83565 3
      vertex 8.875 9.98446 3
    endloop
  endfacet
  facet normal 0 0 -1
    outer loop
      vertex 8.54078 9.83565 3
      vertex 3 0 3
      vertex 8.18292 9.75959 3
    endloop
  endfacet
  facet normal -0 0 -1
    outer loop
      vertex 8.18292 9.75959 3
      vertex 3 0 3
      vertex 7.81707 9.75959 3
    endloop
  endfacet
  facet normal -0 0 -1
    outer loop
      vertex 6.28824 11.1362 3
      vertex 3 0 3
      vertex 6.25 11.5 3
    endloop
  endfacet
  facet normal -0 0 -1
    outer loop
      vertex 6.40129 10.7882 3
      vertex 3 0 3
      vertex 6.28824 11.1362 3
    endloop
  endfacet
  facet normal -0 0 -1
    outer loop
      vertex 6.58422 10.4714 3
      vertex 3 0 3
      vertex 6.40129 10.7882 3
    endloop
  endfacet
  facet normal -0 0 -1
    outer loop
      vertex 6.82902 10.1995 3
      vertex 3 0 3
      vertex 6.58422 10.4714 3
    endloop
  endfacet
  facet normal -0 0 -1
    outer loop
      vertex 7.125 9.98446 3
      vertex 3 0 3
      vertex 6.82902 10.1995 3
    endloop
  endfacet
  facet normal -0 0 -1
    outer loop
      vertex 7.45922 9.83565 3
      vertex 3 0 3
      vertex 7.125 9.98446 3
    endloop
  endfacet
  facet normal -0 0 -1
    outer loop
      vertex 7.81707 9.75959 3
      vertex 3 0 3
      vertex 7.45922 9.83565 3
    endloop
  endfacet
  facet normal 0 0 -1
    outer loop
      vertex 39.7118 11.8638 3
      vertex 43 20 3
      vertex 39.75 11.5 3
    endloop
  endfacet
  facet normal 0 0 -1
    outer loop
      vertex 39.5987 12.2118 3
      vertex 43 20 3
      vertex 39.7118 11.8638 3
    endloop
  endfacet
  facet normal 0 0 -1
    outer loop
      vertex 39.4158 12.5286 3
      vertex 43 20 3
      vertex 39.5987 12.2118 3
    endloop
  endfacet
  facet normal 0 0 -1
    outer loop
      vertex 39.171 12.8005 3
      vertex 43 20 3
      vertex 39.4158 12.5286 3
    endloop
  endfacet
  facet normal 0 0 -1
    outer loop
      vertex 38.875 13.0155 3
      vertex 43 20 3
      vertex 39.171 12.8005 3
    endloop
  endfacet
  facet normal 0 0 -1
    outer loop
      vertex 38.5408 13.1643 3
      vertex 43 20 3
      vertex 38.875 13.0155 3
    endloop
  endfacet
  facet normal 0 0 -1
    outer loop
      vertex 36.205 17.1932 3
      vertex 38.5408 13.1643 3
      vertex 38.1829 13.2404 3
    endloop
  endfacet
  facet normal 0 0 -1
    outer loop
      vertex 36.205 17.1932 3
      vertex 38.1829 13.2404 3
      vertex 37.8171 13.2404 3
    endloop
  endfacet
  facet normal 0 0 -1
    outer loop
      vertex 35.3329 14.5091 3
      vertex 37.8171 13.2404 3
      vertex 37.4592 13.1643 3
    endloop
  endfacet
  facet normal 0 0 -1
    outer loop
      vertex 35.3329 14.5091 3
      vertex 37.4592 13.1643 3
      vertex 37.125 13.0155 3
    endloop
  endfacet
  facet normal 0 0 -1
    outer loop
      vertex 35.3329 14.5091 3
      vertex 37.125 13.0155 3
      vertex 36.829 12.8005 3
    endloop
  endfacet
  facet normal 0 0 -1
    outer loop
      vertex 35.3329 14.5091 3
      vertex 36.829 12.8005 3
      vertex 36.5842 12.5286 3
    endloop
  endfacet
  facet normal 0 0 -1
    outer loop
      vertex 38.5408 13.1643 3
      vertex 36.205 17.1932 3
      vertex 43 20 3
    endloop
  endfacet
  facet normal 0 0 -1
    outer loop
      vertex 35.3329 14.5091 3
      vertex 36.5842 12.5286 3
      vertex 36.4013 12.2118 3
    endloop
  endfacet
  facet normal 0 0 -1
    outer loop
      vertex 35.3329 14.5091 3
      vertex 36.4013 12.2118 3
      vertex 36.2882 11.8638 3
    endloop
  endfacet
  facet normal 0 0 -1
    outer loop
      vertex 33.9217 12.0649 3
      vertex 36.2882 11.8638 3
      vertex 36.25 11.5 3
    endloop
  endfacet
  facet normal -0 0 -1
    outer loop
      vertex 43 20 3
      vertex 36.205 17.1932 3
      vertex 36.5 20 3
    endloop
  endfacet
  facet normal 0 0 -1
    outer loop
      vertex 12.0783 12.0649 3
      vertex 9.5987 12.2118 3
      vertex 10.6671 14.5091 3
    endloop
  endfacet
  facet normal 0 0 -1
    outer loop
      vertex 9.41578 12.5286 3
      vertex 10.6671 14.5091 3
      vertex 9.5987 12.2118 3
    endloop
  endfacet
  facet normal 0 0 -1
    outer loop
      vertex 9.17098 12.8005 3
      vertex 10.6671 14.5091 3
      vertex 9.41578 12.5286 3
    endloop
  endfacet
  facet normal 0 0 -1
    outer loop
      vertex 8.875 13.0155 3
      vertex 10.6671 14.5091 3
      vertex 9.17098 12.8005 3
    endloop
  endfacet
  facet normal 0 0 -1
    outer loop
      vertex 8.54078 13.1643 3
      vertex 10.6671 14.5091 3
      vertex 8.875 13.0155 3
    endloop
  endfacet
  facet normal 0 0 -1
    outer loop
      vertex 8.18292 13.2404 3
      vertex 10.6671 14.5091 3
      vertex 8.54078 13.1643 3
    endloop
  endfacet
  facet normal -0 0 -1
    outer loop
      vertex 10.6671 14.5091 3
      vertex 8.18292 13.2404 3
      vertex 9.79501 17.1932 3
    endloop
  endfacet
  facet normal 0 0 -1
    outer loop
      vertex 7.81707 13.2404 3
      vertex 9.79501 17.1932 3
      vertex 8.18292 13.2404 3
    endloop
  endfacet
  facet normal 0 0 -1
    outer loop
      vertex 7.45922 13.1643 3
      vertex 9.79501 17.1932 3
      vertex 7.81707 13.2404 3
    endloop
  endfacet
  facet normal 0 0 -1
    outer loop
      vertex 3 20 3
      vertex 9.79501 17.1932 3
      vertex 7.45922 13.1643 3
    endloop
  endfacet
  facet normal 0 0 -1
    outer loop
      vertex 3 20 3
      vertex 7.45922 13.1643 3
      vertex 7.125 13.0155 3
    endloop
  endfacet
  facet normal 0 0 -1
    outer loop
      vertex 3 20 3
      vertex 7.125 13.0155 3
      vertex 6.82902 12.8005 3
    endloop
  endfacet
  facet normal 0 0 -1
    outer loop
      vertex 3 20 3
      vertex 6.82902 12.8005 3
      vertex 6.58422 12.5286 3
    endloop
  endfacet
  facet normal 0 0 -1
    outer loop
      vertex 3 20 3
      vertex 6.58422 12.5286 3
      vertex 6.40129 12.2118 3
    endloop
  endfacet
  facet normal 0 0 -1
    outer loop
      vertex 3 20 3
      vertex 6.25 11.5 3
      vertex 3 0 3
    endloop
  endfacet
  facet normal 0 0 -1
    outer loop
      vertex 9.79501 17.1932 3
      vertex 3 20 3
      vertex 9.5 20 3
    endloop
  endfacet
  facet normal 0 0 -1
    outer loop
      vertex 6.28824 11.8638 3
      vertex 3 20 3
      vertex 6.40129 12.2118 3
    endloop
  endfacet
  facet normal 0 0 -1
    outer loop
      vertex 6.25 11.5 3
      vertex 3 20 3
      vertex 6.28824 11.8638 3
    endloop
  endfacet
  facet normal 0 0 -1
    outer loop
      vertex 32.1355 15.9326 3
      vertex 33 20 3
      vertex 32.7815 17.9209 3
    endloop
  endfacet
  facet normal 0 0 -1
    outer loop
      vertex 31.0902 14.1221 3
      vertex 33 20 3
      vertex 32.1355 15.9326 3
    endloop
  endfacet
  facet normal 0 0 -1
    outer loop
      vertex 29.6913 12.5686 3
      vertex 33 20 3
      vertex 31.0902 14.1221 3
    endloop
  endfacet
  facet normal 0 0 -1
    outer loop
      vertex 28 11.3397 3
      vertex 33 20 3
      vertex 29.6913 12.5686 3
    endloop
  endfacet
  facet normal 0 0 -1
    outer loop
      vertex 26.0902 10.4894 3
      vertex 33 20 3
      vertex 28 11.3397 3
    endloop
  endfacet
  facet normal 0 0 -1
    outer loop
      vertex 24.0453 10.0548 3
      vertex 33 20 3
      vertex 26.0902 10.4894 3
    endloop
  endfacet
  facet normal 0 0 -1
    outer loop
      vertex 21.9547 10.0548 3
      vertex 33 20 3
      vertex 24.0453 10.0548 3
    endloop
  endfacet
  facet normal 0 0 -1
    outer loop
      vertex 19.9098 10.4894 3
      vertex 33 20 3
      vertex 21.9547 10.0548 3
    endloop
  endfacet
  facet normal 0 0 -1
    outer loop
      vertex 18 11.3397 3
      vertex 33 20 3
      vertex 19.9098 10.4894 3
    endloop
  endfacet
  facet normal 0 0 -1
    outer loop
      vertex 16.3087 12.5686 3
      vertex 33 20 3
      vertex 18 11.3397 3
    endloop
  endfacet
  facet normal 0 0 -1
    outer loop
      vertex 14.9098 14.1221 3
      vertex 33 20 3
      vertex 16.3087 12.5686 3
    endloop
  endfacet
  facet normal 0 0 -1
    outer loop
      vertex 13.8645 15.9326 3
      vertex 33 20 3
      vertex 14.9098 14.1221 3
    endloop
  endfacet
  facet normal 0 0 -1
    outer loop
      vertex 13.2185 17.9209 3
      vertex 33 20 3
      vertex 13.8645 15.9326 3
    endloop
  endfacet
  facet normal -0 0 -1
    outer loop
      vertex 33 20 3
      vertex 13.2185 17.9209 3
      vertex 13 20 3
    endloop
  endfacet
  facet normal -1 0 0
    outer loop
      vertex 43 0 0
      vertex 43 20 3
      vertex 43 20 0
    endloop
  endfacet
  facet normal -1 -0 0
    outer loop
      vertex 43 20 3
      vertex 43 0 0
      vertex 43 0 3
    endloop
  endfacet
  facet normal -0.994522 -0.10453 0
    outer loop
      vertex 9.75 11.5 3
      vertex 9.71176 11.8638 6
      vertex 9.71176 11.8638 3
    endloop
  endfacet
  facet normal -0.994522 -0.10453 0
    outer loop
      vertex 9.71176 11.8638 6
      vertex 9.75 11.5 3
      vertex 9.75 11.5 6
    endloop
  endfacet
  facet normal 0.207911 -0.978148 0
    outer loop
      vertex 7.45922 13.1643 3
      vertex 7.81707 13.2404 6
      vertex 7.45922 13.1643 6
    endloop
  endfacet
  facet normal 0.207911 -0.978148 0
    outer loop
      vertex 7.81707 13.2404 6
      vertex 7.45922 13.1643 3
      vertex 7.81707 13.2404 3
    endloop
  endfacet
  facet normal -0.207911 0.978148 0
    outer loop
      vertex 8.54078 9.83565 3
      vertex 8.18292 9.75959 6
      vertex 8.54078 9.83565 6
    endloop
  endfacet
  facet normal -0.207911 0.978148 0
    outer loop
      vertex 8.18292 9.75959 6
      vertex 8.54078 9.83565 3
      vertex 8.18292 9.75959 3
    endloop
  endfacet
  facet normal -0.587786 -0.809017 0
    outer loop
      vertex 8.875 13.0155 3
      vertex 9.17098 12.8005 6
      vertex 8.875 13.0155 6
    endloop
  endfacet
  facet normal -0.587786 -0.809017 -0
    outer loop
      vertex 9.17098 12.8005 6
      vertex 8.875 13.0155 3
      vertex 9.17098 12.8005 3
    endloop
  endfacet
  facet normal 0.866025 -0.5 0
    outer loop
      vertex 6.40129 12.2118 6
      vertex 6.58422 12.5286 3
      vertex 6.58422 12.5286 6
    endloop
  endfacet
  facet normal 0.866025 -0.5 0
    outer loop
      vertex 6.58422 12.5286 3
      vertex 6.40129 12.2118 6
      vertex 6.40129 12.2118 3
    endloop
  endfacet
  facet normal 0.951057 -0.309016 0
    outer loop
      vertex 6.28824 11.8638 6
      vertex 6.40129 12.2118 3
      vertex 6.40129 12.2118 6
    endloop
  endfacet
  facet normal 0.951057 -0.309016 0
    outer loop
      vertex 6.40129 12.2118 3
      vertex 6.28824 11.8638 6
      vertex 6.28824 11.8638 3
    endloop
  endfacet
  facet normal 0.587784 -0.809018 0
    outer loop
      vertex 6.82902 12.8005 3
      vertex 7.125 13.0155 6
      vertex 6.82902 12.8005 6
    endloop
  endfacet
  facet normal 0.587784 -0.809018 0
    outer loop
      vertex 7.125 13.0155 6
      vertex 6.82902 12.8005 3
      vertex 7.125 13.0155 3
    endloop
  endfacet
  facet normal -0.866025 -0.5 0
    outer loop
      vertex 9.5987 12.2118 3
      vertex 9.41578 12.5286 6
      vertex 9.41578 12.5286 3
    endloop
  endfacet
  facet normal -0.866025 -0.5 0
    outer loop
      vertex 9.41578 12.5286 6
      vertex 9.5987 12.2118 3
      vertex 9.5987 12.2118 6
    endloop
  endfacet
  facet normal -0.951057 -0.309016 0
    outer loop
      vertex 9.71176 11.8638 3
      vertex 9.5987 12.2118 6
      vertex 9.5987 12.2118 3
    endloop
  endfacet
  facet normal -0.951057 -0.309016 0
    outer loop
      vertex 9.5987 12.2118 6
      vertex 9.71176 11.8638 3
      vertex 9.71176 11.8638 6
    endloop
  endfacet
  facet normal -0.743146 -0.66913 0
    outer loop
      vertex 9.41578 12.5286 3
      vertex 9.17098 12.8005 6
      vertex 9.17098 12.8005 3
    endloop
  endfacet
  facet normal -0.743146 -0.66913 0
    outer loop
      vertex 9.17098 12.8005 6
      vertex 9.41578 12.5286 3
      vertex 9.41578 12.5286 6
    endloop
  endfacet
  facet normal -0.207911 -0.978148 0
    outer loop
      vertex 8.18292 13.2404 3
      vertex 8.54078 13.1643 6
      vertex 8.18292 13.2404 6
    endloop
  endfacet
  facet normal -0.207911 -0.978148 -0
    outer loop
      vertex 8.54078 13.1643 6
      vertex 8.18292 13.2404 3
      vertex 8.54078 13.1643 3
    endloop
  endfacet
  facet normal 0 -1 0
    outer loop
      vertex 7.81707 13.2404 3
      vertex 8.18292 13.2404 6
      vertex 7.81707 13.2404 6
    endloop
  endfacet
  facet normal 0 -1 -0
    outer loop
      vertex 8.18292 13.2404 6
      vertex 7.81707 13.2404 3
      vertex 8.18292 13.2404 3
    endloop
  endfacet
  facet normal -0.406737 -0.913546 0
    outer loop
      vertex 8.54078 13.1643 3
      vertex 8.875 13.0155 6
      vertex 8.54078 13.1643 6
    endloop
  endfacet
  facet normal -0.406737 -0.913546 -0
    outer loop
      vertex 8.875 13.0155 6
      vertex 8.54078 13.1643 3
      vertex 8.875 13.0155 3
    endloop
  endfacet
  facet normal 0.994522 -0.104528 0
    outer loop
      vertex 6.25 11.5 6
      vertex 6.28824 11.8638 3
      vertex 6.28824 11.8638 6
    endloop
  endfacet
  facet normal 0.994522 -0.104528 0
    outer loop
      vertex 6.28824 11.8638 3
      vertex 6.25 11.5 6
      vertex 6.25 11.5 3
    endloop
  endfacet
  facet normal 0.743146 -0.66913 0
    outer loop
      vertex 6.58422 12.5286 6
      vertex 6.82902 12.8005 3
      vertex 6.82902 12.8005 6
    endloop
  endfacet
  facet normal 0.743146 -0.66913 0
    outer loop
      vertex 6.82902 12.8005 3
      vertex 6.58422 12.5286 6
      vertex 6.58422 12.5286 3
    endloop
  endfacet
  facet normal 0.406737 -0.913545 0
    outer loop
      vertex 7.125 13.0155 3
      vertex 7.45922 13.1643 6
      vertex 7.125 13.0155 6
    endloop
  endfacet
  facet normal 0.406737 -0.913545 0
    outer loop
      vertex 7.45922 13.1643 6
      vertex 7.125 13.0155 3
      vertex 7.45922 13.1643 3
    endloop
  endfacet
  facet normal -0.994522 0.10453 0
    outer loop
      vertex 9.71176 11.1362 3
      vertex 9.75 11.5 6
      vertex 9.75 11.5 3
    endloop
  endfacet
  facet normal -0.994522 0.10453 0
    outer loop
      vertex 9.75 11.5 6
      vertex 9.71176 11.1362 3
      vertex 9.71176 11.1362 6
    endloop
  endfacet
  facet normal -0.406737 0.913546 0
    outer loop
      vertex 8.875 9.98446 3
      vertex 8.54078 9.83565 6
      vertex 8.875 9.98446 6
    endloop
  endfacet
  facet normal -0.406737 0.913546 0
    outer loop
      vertex 8.54078 9.83565 6
      vertex 8.875 9.98446 3
      vertex 8.54078 9.83565 3
    endloop
  endfacet
  facet normal -0.951057 0.309016 0
    outer loop
      vertex 9.5987 10.7882 3
      vertex 9.71176 11.1362 6
      vertex 9.71176 11.1362 3
    endloop
  endfacet
  facet normal -0.951057 0.309016 0
    outer loop
      vertex 9.71176 11.1362 6
      vertex 9.5987 10.7882 3
      vertex 9.5987 10.7882 6
    endloop
  endfacet
  facet normal 0.994522 0.104528 0
    outer loop
      vertex 6.28824 11.1362 6
      vertex 6.25 11.5 3
      vertex 6.25 11.5 6
    endloop
  endfacet
  facet normal 0.994522 0.104528 0
    outer loop
      vertex 6.25 11.5 3
      vertex 6.28824 11.1362 6
      vertex 6.28824 11.1362 3
    endloop
  endfacet
  facet normal 0.743146 0.66913 0
    outer loop
      vertex 6.82902 10.1995 6
      vertex 6.58422 10.4714 3
      vertex 6.58422 10.4714 6
    endloop
  endfacet
  facet normal 0.743146 0.66913 0
    outer loop
      vertex 6.58422 10.4714 3
      vertex 6.82902 10.1995 6
      vertex 6.82902 10.1995 3
    endloop
  endfacet
  facet normal 0.587786 0.809017 -0
    outer loop
      vertex 7.125 9.98446 3
      vertex 6.82902 10.1995 6
      vertex 7.125 9.98446 6
    endloop
  endfacet
  facet normal 0.587786 0.809017 0
    outer loop
      vertex 6.82902 10.1995 6
      vertex 7.125 9.98446 3
      vertex 6.82902 10.1995 3
    endloop
  endfacet
  facet normal -0.743146 0.66913 0
    outer loop
      vertex 9.17098 10.1995 3
      vertex 9.41578 10.4714 6
      vertex 9.41578 10.4714 3
    endloop
  endfacet
  facet normal -0.743146 0.66913 0
    outer loop
      vertex 9.41578 10.4714 6
      vertex 9.17098 10.1995 3
      vertex 9.17098 10.1995 6
    endloop
  endfacet
  facet normal -0.587786 0.809017 0
    outer loop
      vertex 9.17098 10.1995 3
      vertex 8.875 9.98446 6
      vertex 9.17098 10.1995 6
    endloop
  endfacet
  facet normal -0.587786 0.809017 0
    outer loop
      vertex 8.875 9.98446 6
      vertex 9.17098 10.1995 3
      vertex 8.875 9.98446 3
    endloop
  endfacet
  facet normal 0 1 -0
    outer loop
      vertex 8.18292 9.75959 3
      vertex 7.81707 9.75959 6
      vertex 8.18292 9.75959 6
    endloop
  endfacet
  facet normal 0 1 0
    outer loop
      vertex 7.81707 9.75959 6
      vertex 8.18292 9.75959 3
      vertex 7.81707 9.75959 3
    endloop
  endfacet
  facet normal 0.866025 0.5 0
    outer loop
      vertex 6.58422 10.4714 6
      vertex 6.40129 10.7882 3
      vertex 6.40129 10.7882 6
    endloop
  endfacet
  facet normal 0.866025 0.5 0
    outer loop
      vertex 6.40129 10.7882 3
      vertex 6.58422 10.4714 6
      vertex 6.58422 10.4714 3
    endloop
  endfacet
  facet normal 0.951057 0.309016 0
    outer loop
      vertex 6.40129 10.7882 6
      vertex 6.28824 11.1362 3
      vertex 6.28824 11.1362 6
    endloop
  endfacet
  facet normal 0.951057 0.309016 0
    outer loop
      vertex 6.28824 11.1362 3
      vertex 6.40129 10.7882 6
      vertex 6.40129 10.7882 3
    endloop
  endfacet
  facet normal -0.866025 0.5 0
    outer loop
      vertex 9.41578 10.4714 3
      vertex 9.5987 10.7882 6
      vertex 9.5987 10.7882 3
    endloop
  endfacet
  facet normal -0.866025 0.5 0
    outer loop
      vertex 9.5987 10.7882 6
      vertex 9.41578 10.4714 3
      vertex 9.41578 10.4714 6
    endloop
  endfacet
  facet normal 0.207911 0.978148 -0
    outer loop
      vertex 7.81707 9.75959 3
      vertex 7.45922 9.83565 6
      vertex 7.81707 9.75959 6
    endloop
  endfacet
  facet normal 0.207911 0.978148 0
    outer loop
      vertex 7.45922 9.83565 6
      vertex 7.81707 9.75959 3
      vertex 7.45922 9.83565 3
    endloop
  endfacet
  facet normal 0.406737 0.913546 -0
    outer loop
      vertex 7.45922 9.83565 3
      vertex 7.125 9.98446 6
      vertex 7.45922 9.83565 6
    endloop
  endfacet
  facet normal 0.406737 0.913546 0
    outer loop
      vertex 7.125 9.98446 6
      vertex 7.45922 9.83565 3
      vertex 7.125 9.98446 3
    endloop
  endfacet
  facet normal -0.994522 -0.10453 0
    outer loop
      vertex 39.75 11.5 3
      vertex 39.7118 11.8638 6
      vertex 39.7118 11.8638 3
    endloop
  endfacet
  facet normal -0.994522 -0.10453 0
    outer loop
      vertex 39.7118 11.8638 6
      vertex 39.75 11.5 3
      vertex 39.75 11.5 6
    endloop
  endfacet
  facet normal 0.994522 0.10453 0
    outer loop
      vertex 36.2882 11.1362 6
      vertex 36.25 11.5 3
      vertex 36.25 11.5 6
    endloop
  endfacet
  facet normal 0.994522 0.10453 0
    outer loop
      vertex 36.25 11.5 3
      vertex 36.2882 11.1362 6
      vertex 36.2882 11.1362 3
    endloop
  endfacet
  facet normal 0.207912 -0.978148 0
    outer loop
      vertex 37.4592 13.1643 3
      vertex 37.8171 13.2404 6
      vertex 37.4592 13.1643 6
    endloop
  endfacet
  facet normal 0.207912 -0.978148 0
    outer loop
      vertex 37.8171 13.2404 6
      vertex 37.4592 13.1643 3
      vertex 37.8171 13.2404 3
    endloop
  endfacet
  facet normal -0.20791 0.978148 0
    outer loop
      vertex 38.5408 9.83565 3
      vertex 38.1829 9.75959 6
      vertex 38.5408 9.83565 6
    endloop
  endfacet
  facet normal -0.20791 0.978148 0
    outer loop
      vertex 38.1829 9.75959 6
      vertex 38.5408 9.83565 3
      vertex 38.1829 9.75959 3
    endloop
  endfacet
  facet normal -0.587786 -0.809017 0
    outer loop
      vertex 38.875 13.0155 3
      vertex 39.171 12.8005 6
      vertex 38.875 13.0155 6
    endloop
  endfacet
  facet normal -0.587786 -0.809017 -0
    outer loop
      vertex 39.171 12.8005 6
      vertex 38.875 13.0155 3
      vertex 39.171 12.8005 3
    endloop
  endfacet
  facet normal 0.866024 -0.500002 0
    outer loop
      vertex 36.4013 12.2118 6
      vertex 36.5842 12.5286 3
      vertex 36.5842 12.5286 6
    endloop
  endfacet
  facet normal 0.866024 -0.500002 0
    outer loop
      vertex 36.5842 12.5286 3
      vertex 36.4013 12.2118 6
      vertex 36.4013 12.2118 3
    endloop
  endfacet
  facet normal 0.951058 -0.309014 0
    outer loop
      vertex 36.2882 11.8638 6
      vertex 36.4013 12.2118 3
      vertex 36.4013 12.2118 6
    endloop
  endfacet
  facet normal 0.951058 -0.309014 0
    outer loop
      vertex 36.4013 12.2118 3
      vertex 36.2882 11.8638 6
      vertex 36.2882 11.8638 3
    endloop
  endfacet
  facet normal 0.587786 -0.809017 0
    outer loop
      vertex 36.829 12.8005 3
      vertex 37.125 13.0155 6
      vertex 36.829 12.8005 6
    endloop
  endfacet
  facet normal 0.587786 -0.809017 0
    outer loop
      vertex 37.125 13.0155 6
      vertex 36.829 12.8005 3
      vertex 37.125 13.0155 3
    endloop
  endfacet
  facet normal -0.866024 -0.500002 0
    outer loop
      vertex 39.5987 12.2118 3
      vertex 39.4158 12.5286 6
      vertex 39.4158 12.5286 3
    endloop
  endfacet
  facet normal -0.866024 -0.500002 0
    outer loop
      vertex 39.4158 12.5286 6
      vertex 39.5987 12.2118 3
      vertex 39.5987 12.2118 6
    endloop
  endfacet
  facet normal -0.951058 -0.309014 0
    outer loop
      vertex 39.7118 11.8638 3
      vertex 39.5987 12.2118 6
      vertex 39.5987 12.2118 3
    endloop
  endfacet
  facet normal -0.951058 -0.309014 0
    outer loop
      vertex 39.5987 12.2118 6
      vertex 39.7118 11.8638 3
      vertex 39.7118 11.8638 6
    endloop
  endfacet
  facet normal -0.743146 -0.66913 0
    outer loop
      vertex 39.4158 12.5286 3
      vertex 39.171 12.8005 6
      vertex 39.171 12.8005 3
    endloop
  endfacet
  facet normal -0.743146 -0.66913 0
    outer loop
      vertex 39.171 12.8005 6
      vertex 39.4158 12.5286 3
      vertex 39.4158 12.5286 6
    endloop
  endfacet
  facet normal -0.20791 -0.978148 0
    outer loop
      vertex 38.1829 13.2404 3
      vertex 38.5408 13.1643 6
      vertex 38.1829 13.2404 6
    endloop
  endfacet
  facet normal -0.20791 -0.978148 -0
    outer loop
      vertex 38.5408 13.1643 6
      vertex 38.1829 13.2404 3
      vertex 38.5408 13.1643 3
    endloop
  endfacet
  facet normal 0 -1 0
    outer loop
      vertex 37.8171 13.2404 3
      vertex 38.1829 13.2404 6
      vertex 37.8171 13.2404 6
    endloop
  endfacet
  facet normal 0 -1 -0
    outer loop
      vertex 38.1829 13.2404 6
      vertex 37.8171 13.2404 3
      vertex 38.1829 13.2404 3
    endloop
  endfacet
  facet normal -0.406737 -0.913546 0
    outer loop
      vertex 38.5408 13.1643 3
      vertex 38.875 13.0155 6
      vertex 38.5408 13.1643 6
    endloop
  endfacet
  facet normal -0.406737 -0.913546 -0
    outer loop
      vertex 38.875 13.0155 6
      vertex 38.5408 13.1643 3
      vertex 38.875 13.0155 3
    endloop
  endfacet
  facet normal 0.994522 -0.10453 0
    outer loop
      vertex 36.25 11.5 6
      vertex 36.2882 11.8638 3
      vertex 36.2882 11.8638 6
    endloop
  endfacet
  facet normal 0.994522 -0.10453 0
    outer loop
      vertex 36.2882 11.8638 3
      vertex 36.25 11.5 6
      vertex 36.25 11.5 3
    endloop
  endfacet
  facet normal 0.743146 -0.66913 0
    outer loop
      vertex 36.5842 12.5286 6
      vertex 36.829 12.8005 3
      vertex 36.829 12.8005 6
    endloop
  endfacet
  facet normal 0.743146 -0.66913 0
    outer loop
      vertex 36.829 12.8005 3
      vertex 36.5842 12.5286 6
      vertex 36.5842 12.5286 3
    endloop
  endfacet
  facet normal 0.406737 -0.913546 0
    outer loop
      vertex 37.125 13.0155 3
      vertex 37.4592 13.1643 6
      vertex 37.125 13.0155 6
    endloop
  endfacet
  facet normal 0.406737 -0.913546 0
    outer loop
      vertex 37.4592 13.1643 6
      vertex 37.125 13.0155 3
      vertex 37.4592 13.1643 3
    endloop
  endfacet
  facet normal -0.994522 0.10453 0
    outer loop
      vertex 39.7118 11.1362 3
      vertex 39.75 11.5 6
      vertex 39.75 11.5 3
    endloop
  endfacet
  facet normal -0.994522 0.10453 0
    outer loop
      vertex 39.75 11.5 6
      vertex 39.7118 11.1362 3
      vertex 39.7118 11.1362 6
    endloop
  endfacet
  facet normal 0.951058 0.309014 0
    outer loop
      vertex 36.4013 10.7882 6
      vertex 36.2882 11.1362 3
      vertex 36.2882 11.1362 6
    endloop
  endfacet
  facet normal 0.951058 0.309014 0
    outer loop
      vertex 36.2882 11.1362 3
      vertex 36.4013 10.7882 6
      vertex 36.4013 10.7882 3
    endloop
  endfacet
  facet normal -0.406737 0.913546 0
    outer loop
      vertex 38.875 9.98446 3
      vertex 38.5408 9.83565 6
      vertex 38.875 9.98446 6
    endloop
  endfacet
  facet normal -0.406737 0.913546 0
    outer loop
      vertex 38.5408 9.83565 6
      vertex 38.875 9.98446 3
      vertex 38.5408 9.83565 3
    endloop
  endfacet
  facet normal -0.951058 0.309014 0
    outer loop
      vertex 39.5987 10.7882 3
      vertex 39.7118 11.1362 6
      vertex 39.7118 11.1362 3
    endloop
  endfacet
  facet normal -0.951058 0.309014 0
    outer loop
      vertex 39.7118 11.1362 6
      vertex 39.5987 10.7882 3
      vertex 39.5987 10.7882 6
    endloop
  endfacet
  facet normal -0.743146 0.66913 0
    outer loop
      vertex 39.171 10.1995 3
      vertex 39.4158 10.4714 6
      vertex 39.4158 10.4714 3
    endloop
  endfacet
  facet normal -0.743146 0.66913 0
    outer loop
      vertex 39.4158 10.4714 6
      vertex 39.171 10.1995 3
      vertex 39.171 10.1995 6
    endloop
  endfacet
  facet normal -0.587786 0.809017 0
    outer loop
      vertex 39.171 10.1995 3
      vertex 38.875 9.98446 6
      vertex 39.171 10.1995 6
    endloop
  endfacet
  facet normal -0.587786 0.809017 0
    outer loop
      vertex 38.875 9.98446 6
      vertex 39.171 10.1995 3
      vertex 38.875 9.98446 3
    endloop
  endfacet
  facet normal 0.587786 0.809017 -0
    outer loop
      vertex 37.125 9.98446 3
      vertex 36.829 10.1995 6
      vertex 37.125 9.98446 6
    endloop
  endfacet
  facet normal 0.587786 0.809017 0
    outer loop
      vertex 36.829 10.1995 6
      vertex 37.125 9.98446 3
      vertex 36.829 10.1995 3
    endloop
  endfacet
  facet normal 0.743146 0.66913 0
    outer loop
      vertex 36.829 10.1995 6
      vertex 36.5842 10.4714 3
      vertex 36.5842 10.4714 6
    endloop
  endfacet
  facet normal 0.743146 0.66913 0
    outer loop
      vertex 36.5842 10.4714 3
      vertex 36.829 10.1995 6
      vertex 36.829 10.1995 3
    endloop
  endfacet
  facet normal 0.866024 0.500002 0
    outer loop
      vertex 36.5842 10.4714 6
      vertex 36.4013 10.7882 3
      vertex 36.4013 10.7882 6
    endloop
  endfacet
  facet normal 0.866024 0.500002 0
    outer loop
      vertex 36.4013 10.7882 3
      vertex 36.5842 10.4714 6
      vertex 36.5842 10.4714 3
    endloop
  endfacet
  facet normal -0.866024 0.500002 0
    outer loop
      vertex 39.4158 10.4714 3
      vertex 39.5987 10.7882 6
      vertex 39.5987 10.7882 3
    endloop
  endfacet
  facet normal -0.866024 0.500002 0
    outer loop
      vertex 39.5987 10.7882 6
      vertex 39.4158 10.4714 3
      vertex 39.4158 10.4714 6
    endloop
  endfacet
  facet normal 0.406737 0.913546 -0
    outer loop
      vertex 37.4592 9.83565 3
      vertex 37.125 9.98446 6
      vertex 37.4592 9.83565 6
    endloop
  endfacet
  facet normal 0.406737 0.913546 0
    outer loop
      vertex 37.125 9.98446 6
      vertex 37.4592 9.83565 3
      vertex 37.125 9.98446 3
    endloop
  endfacet
  facet normal 0.207912 0.978148 -0
    outer loop
      vertex 37.8171 9.75959 3
      vertex 37.4592 9.83565 6
      vertex 37.8171 9.75959 6
    endloop
  endfacet
  facet normal 0.207912 0.978148 0
    outer loop
      vertex 37.4592 9.83565 6
      vertex 37.8171 9.75959 3
      vertex 37.4592 9.83565 3
    endloop
  endfacet
  facet normal 0 1 -0
    outer loop
      vertex 38.1829 9.75959 3
      vertex 37.8171 9.75959 6
      vertex 38.1829 9.75959 6
    endloop
  endfacet
  facet normal 0 1 0
    outer loop
      vertex 37.8171 9.75959 6
      vertex 38.1829 9.75959 3
      vertex 37.8171 9.75959 3
    endloop
  endfacet
  facet normal 0.207911 -0.978148 0
    outer loop
      vertex 24.4111 6.57395 2.8
      vertex 27.1717 7.16074 3
      vertex 24.4111 6.57395 3
    endloop
  endfacet
  facet normal 0.207911 -0.978148 0
    outer loop
      vertex 27.1717 7.16074 3
      vertex 24.4111 6.57395 2.8
      vertex 27.1717 7.16074 2.8
    endloop
  endfacet
  facet normal 0.406737 -0.913545 0
    outer loop
      vertex 27.1717 7.16074 2.8
      vertex 29.75 8.30866 3
      vertex 27.1717 7.16074 3
    endloop
  endfacet
  facet normal 0.406737 -0.913545 0
    outer loop
      vertex 29.75 8.30866 3
      vertex 27.1717 7.16074 2.8
      vertex 29.75 8.30866 2.8
    endloop
  endfacet
  facet normal 0 0 -1
    outer loop
      vertex 32.7815 17.9209 2.8
      vertex 36.205 17.1932 2.8
      vertex 35.3329 14.5091 2.8
    endloop
  endfacet
  facet normal 0 0 -1
    outer loop
      vertex 32.1355 15.9326 2.8
      vertex 35.3329 14.5091 2.8
      vertex 33.9217 12.0649 2.8
    endloop
  endfacet
  facet normal 0 0 -1
    outer loop
      vertex 36.205 17.1932 2.8
      vertex 32.7815 17.9209 2.8
      vertex 36.5 20 2.8
    endloop
  endfacet
  facet normal -0 0 -1
    outer loop
      vertex 36.5 20 2.8
      vertex 32.7815 17.9209 2.8
      vertex 33 20 2.8
    endloop
  endfacet
  facet normal 0 0 -1
    outer loop
      vertex 35.3329 14.5091 2.8
      vertex 32.1355 15.9326 2.8
      vertex 32.7815 17.9209 2.8
    endloop
  endfacet
  facet normal 0 0 -1
    outer loop
      vertex 31.0902 14.1221 2.8
      vertex 33.9217 12.0649 2.8
      vertex 32.0333 9.96754 2.8
    endloop
  endfacet
  facet normal 0 0 -1
    outer loop
      vertex 33.9217 12.0649 2.8
      vertex 31.0902 14.1221 2.8
      vertex 32.1355 15.9326 2.8
    endloop
  endfacet
  facet normal 0 0 -1
    outer loop
      vertex 29.6913 12.5686 2.8
      vertex 32.0333 9.96754 2.8
      vertex 29.75 8.30866 2.8
    endloop
  endfacet
  facet normal 0 0 -1
    outer loop
      vertex 32.0333 9.96754 2.8
      vertex 29.6913 12.5686 2.8
      vertex 31.0902 14.1221 2.8
    endloop
  endfacet
  facet normal 0 0 -1
    outer loop
      vertex 29.75 8.30866 2.8
      vertex 28 11.3397 2.8
      vertex 29.6913 12.5686 2.8
    endloop
  endfacet
  facet normal 0 0 -1
    outer loop
      vertex 27.1717 7.16074 2.8
      vertex 28 11.3397 2.8
      vertex 29.75 8.30866 2.8
    endloop
  endfacet
  facet normal 0 0 -1
    outer loop
      vertex 27.1717 7.16074 2.8
      vertex 26.0902 10.4894 2.8
      vertex 28 11.3397 2.8
    endloop
  endfacet
  facet normal 0 0 -1
    outer loop
      vertex 24.4111 6.57395 2.8
      vertex 26.0902 10.4894 2.8
      vertex 27.1717 7.16074 2.8
    endloop
  endfacet
  facet normal 0 0 -1
    outer loop
      vertex 24.4111 6.57395 2.8
      vertex 24.0453 10.0548 2.8
      vertex 26.0902 10.4894 2.8
    endloop
  endfacet
  facet normal 0 0 -1
    outer loop
      vertex 24.4111 6.57395 2.8
      vertex 21.9547 10.0548 2.8
      vertex 24.0453 10.0548 2.8
    endloop
  endfacet
  facet normal 0 0 -1
    outer loop
      vertex 21.5889 6.57395 2.8
      vertex 21.9547 10.0548 2.8
      vertex 24.4111 6.57395 2.8
    endloop
  endfacet
  facet normal 0 0 -1
    outer loop
      vertex 21.5889 6.57395 2.8
      vertex 19.9098 10.4894 2.8
      vertex 21.9547 10.0548 2.8
    endloop
  endfacet
  facet normal 0 0 -1
    outer loop
      vertex 18.8283 7.16074 2.8
      vertex 19.9098 10.4894 2.8
      vertex 21.5889 6.57395 2.8
    endloop
  endfacet
  facet normal 0 0 -1
    outer loop
      vertex 18.8283 7.16074 2.8
      vertex 18 11.3397 2.8
      vertex 19.9098 10.4894 2.8
    endloop
  endfacet
  facet normal 0 0 -1
    outer loop
      vertex 16.25 8.30866 2.8
      vertex 18 11.3397 2.8
      vertex 18.8283 7.16074 2.8
    endloop
  endfacet
  facet normal -0 0 -1
    outer loop
      vertex 18 11.3397 2.8
      vertex 16.25 8.30866 2.8
      vertex 16.3087 12.5686 2.8
    endloop
  endfacet
  facet normal 0 0 -1
    outer loop
      vertex 13.9667 9.96754 2.8
      vertex 16.3087 12.5686 2.8
      vertex 16.25 8.30866 2.8
    endloop
  endfacet
  facet normal -0 0 -1
    outer loop
      vertex 16.3087 12.5686 2.8
      vertex 13.9667 9.96754 2.8
      vertex 14.9098 14.1221 2.8
    endloop
  endfacet
  facet normal 0 0 -1
    outer loop
      vertex 12.0783 12.0649 2.8
      vertex 14.9098 14.1221 2.8
      vertex 13.9667 9.96754 2.8
    endloop
  endfacet
  facet normal -0 0 -1
    outer loop
      vertex 14.9098 14.1221 2.8
      vertex 12.0783 12.0649 2.8
      vertex 13.8645 15.9326 2.8
    endloop
  endfacet
  facet normal 0 0 -1
    outer loop
      vertex 10.6671 14.5091 2.8
      vertex 13.8645 15.9326 2.8
      vertex 12.0783 12.0649 2.8
    endloop
  endfacet
  facet normal -0 0 -1
    outer loop
      vertex 13.8645 15.9326 2.8
      vertex 10.6671 14.5091 2.8
      vertex 13.2185 17.9209 2.8
    endloop
  endfacet
  facet normal 0 0 -1
    outer loop
      vertex 9.79501 17.1932 2.8
      vertex 13.2185 17.9209 2.8
      vertex 10.6671 14.5091 2.8
    endloop
  endfacet
  facet normal -0 0 -1
    outer loop
      vertex 13.2185 17.9209 2.8
      vertex 9.79501 17.1932 2.8
      vertex 13 20 2.8
    endloop
  endfacet
  facet normal -0 0 -1
    outer loop
      vertex 13 20 2.8
      vertex 9.79501 17.1932 2.8
      vertex 9.5 20 2.8
    endloop
  endfacet
  facet normal 0.994522 -0.104528 0
    outer loop
      vertex 36.205 17.1932 3
      vertex 36.5 20 2.8
      vertex 36.5 20 3
    endloop
  endfacet
  facet normal 0.994522 -0.104528 0
    outer loop
      vertex 36.5 20 2.8
      vertex 36.205 17.1932 3
      vertex 36.205 17.1932 2.8
    endloop
  endfacet
  facet normal 0.743145 -0.669131 0
    outer loop
      vertex 32.0333 9.96754 3
      vertex 33.9217 12.0649 2.8
      vertex 33.9217 12.0649 3
    endloop
  endfacet
  facet normal 0.743145 -0.669131 0
    outer loop
      vertex 33.9217 12.0649 2.8
      vertex 32.0333 9.96754 3
      vertex 32.0333 9.96754 2.8
    endloop
  endfacet
  facet normal -0.994522 -0.104528 0
    outer loop
      vertex 9.79501 17.1932 2.8
      vertex 9.5 20 3
      vertex 9.5 20 2.8
    endloop
  endfacet
  facet normal -0.994522 -0.104528 0
    outer loop
      vertex 9.5 20 3
      vertex 9.79501 17.1932 2.8
      vertex 9.79501 17.1932 3
    endloop
  endfacet
  facet normal 0.866026 -0.5 0
    outer loop
      vertex 33.9217 12.0649 3
      vertex 35.3329 14.5091 2.8
      vertex 35.3329 14.5091 3
    endloop
  endfacet
  facet normal 0.866026 -0.5 0
    outer loop
      vertex 35.3329 14.5091 2.8
      vertex 33.9217 12.0649 3
      vertex 33.9217 12.0649 2.8
    endloop
  endfacet
  facet normal -0.406737 -0.913545 0
    outer loop
      vertex 16.25 8.30866 2.8
      vertex 18.8283 7.16074 3
      vertex 16.25 8.30866 3
    endloop
  endfacet
  facet normal -0.406737 -0.913545 -0
    outer loop
      vertex 18.8283 7.16074 3
      vertex 16.25 8.30866 2.8
      vertex 18.8283 7.16074 2.8
    endloop
  endfacet
  facet normal -0.743145 -0.669131 0
    outer loop
      vertex 13.9667 9.96754 2.8
      vertex 12.0783 12.0649 3
      vertex 12.0783 12.0649 2.8
    endloop
  endfacet
  facet normal -0.743145 -0.669131 0
    outer loop
      vertex 12.0783 12.0649 3
      vertex 13.9667 9.96754 2.8
      vertex 13.9667 9.96754 3
    endloop
  endfacet
  facet normal 0.587785 -0.809017 0
    outer loop
      vertex 29.75 8.30866 2.8
      vertex 32.0333 9.96754 3
      vertex 29.75 8.30866 3
    endloop
  endfacet
  facet normal 0.587785 -0.809017 0
    outer loop
      vertex 32.0333 9.96754 3
      vertex 29.75 8.30866 2.8
      vertex 32.0333 9.96754 2.8
    endloop
  endfacet
  facet normal 0.951056 -0.309018 0
    outer loop
      vertex 35.3329 14.5091 3
      vertex 36.205 17.1932 2.8
      vertex 36.205 17.1932 3
    endloop
  endfacet
  facet normal 0.951056 -0.309018 0
    outer loop
      vertex 36.205 17.1932 2.8
      vertex 35.3329 14.5091 3
      vertex 35.3329 14.5091 2.8
    endloop
  endfacet
  facet normal -0.207912 -0.978148 0
    outer loop
      vertex 18.8283 7.16074 2.8
      vertex 21.5889 6.57395 3
      vertex 18.8283 7.16074 3
    endloop
  endfacet
  facet normal -0.207912 -0.978148 -0
    outer loop
      vertex 21.5889 6.57395 3
      vertex 18.8283 7.16074 2.8
      vertex 21.5889 6.57395 2.8
    endloop
  endfacet
  facet normal -0.587785 -0.809017 0
    outer loop
      vertex 13.9667 9.96754 2.8
      vertex 16.25 8.30866 3
      vertex 13.9667 9.96754 3
    endloop
  endfacet
  facet normal -0.587785 -0.809017 -0
    outer loop
      vertex 16.25 8.30866 3
      vertex 13.9667 9.96754 2.8
      vertex 16.25 8.30866 2.8
    endloop
  endfacet
  facet normal -0.866026 -0.5 0
    outer loop
      vertex 12.0783 12.0649 2.8
      vertex 10.6671 14.5091 3
      vertex 10.6671 14.5091 2.8
    endloop
  endfacet
  facet normal -0.866026 -0.5 0
    outer loop
      vertex 10.6671 14.5091 3
      vertex 12.0783 12.0649 2.8
      vertex 12.0783 12.0649 3
    endloop
  endfacet
  facet normal -0.951056 -0.309017 0
    outer loop
      vertex 10.6671 14.5091 2.8
      vertex 9.79501 17.1932 3
      vertex 9.79501 17.1932 2.8
    endloop
  endfacet
  facet normal -0.951056 -0.309017 0
    outer loop
      vertex 9.79501 17.1932 3
      vertex 10.6671 14.5091 2.8
      vertex 10.6671 14.5091 3
    endloop
  endfacet
  facet normal 0 -1 0
    outer loop
      vertex 21.5889 6.57395 2.8
      vertex 24.4111 6.57395 3
      vertex 21.5889 6.57395 3
    endloop
  endfacet
  facet normal 0 -1 -0
    outer loop
      vertex 24.4111 6.57395 3
      vertex 21.5889 6.57395 2.8
      vertex 24.4111 6.57395 2.8
    endloop
  endfacet
  facet normal -0.207911 0.978148 0
    outer loop
      vertex 26.0902 10.4894 2.8
      vertex 24.0453 10.0548 3
      vertex 26.0902 10.4894 3
    endloop
  endfacet
  facet normal -0.207911 0.978148 0
    outer loop
      vertex 24.0453 10.0548 3
      vertex 26.0902 10.4894 2.8
      vertex 24.0453 10.0548 2.8
    endloop
  endfacet
  facet normal -0.406737 0.913545 0
    outer loop
      vertex 28 11.3397 2.8
      vertex 26.0902 10.4894 3
      vertex 28 11.3397 3
    endloop
  endfacet
  facet normal -0.406737 0.913545 0
    outer loop
      vertex 26.0902 10.4894 3
      vertex 28 11.3397 2.8
      vertex 26.0902 10.4894 2.8
    endloop
  endfacet
  facet normal -0.951056 0.309018 0
    outer loop
      vertex 32.1355 15.9326 2.8
      vertex 32.7815 17.9209 3
      vertex 32.7815 17.9209 2.8
    endloop
  endfacet
  facet normal -0.951056 0.309018 0
    outer loop
      vertex 32.7815 17.9209 3
      vertex 32.1355 15.9326 2.8
      vertex 32.1355 15.9326 3
    endloop
  endfacet
  facet normal -0.994522 0.104529 0
    outer loop
      vertex 32.7815 17.9209 2.8
      vertex 33 20 3
      vertex 33 20 2.8
    endloop
  endfacet
  facet normal -0.994522 0.104529 0
    outer loop
      vertex 33 20 3
      vertex 32.7815 17.9209 2.8
      vertex 32.7815 17.9209 3
    endloop
  endfacet
  facet normal 0.994522 0.104528 0
    outer loop
      vertex 13.2185 17.9209 3
      vertex 13 20 2.8
      vertex 13 20 3
    endloop
  endfacet
  facet normal 0.994522 0.104528 0
    outer loop
      vertex 13 20 2.8
      vertex 13.2185 17.9209 3
      vertex 13.2185 17.9209 2.8
    endloop
  endfacet
  facet normal -0.866026 0.499999 0
    outer loop
      vertex 31.0902 14.1221 2.8
      vertex 32.1355 15.9326 3
      vertex 32.1355 15.9326 2.8
    endloop
  endfacet
  facet normal -0.866026 0.499999 0
    outer loop
      vertex 32.1355 15.9326 3
      vertex 31.0902 14.1221 2.8
      vertex 31.0902 14.1221 3
    endloop
  endfacet
  facet normal 0.406737 0.913545 -0
    outer loop
      vertex 19.9098 10.4894 2.8
      vertex 18 11.3397 3
      vertex 19.9098 10.4894 3
    endloop
  endfacet
  facet normal 0.406737 0.913545 0
    outer loop
      vertex 18 11.3397 3
      vertex 19.9098 10.4894 2.8
      vertex 18 11.3397 2.8
    endloop
  endfacet
  facet normal 0.743145 0.669131 0
    outer loop
      vertex 16.3087 12.5686 3
      vertex 14.9098 14.1221 2.8
      vertex 14.9098 14.1221 3
    endloop
  endfacet
  facet normal 0.743145 0.669131 0
    outer loop
      vertex 14.9098 14.1221 2.8
      vertex 16.3087 12.5686 3
      vertex 16.3087 12.5686 2.8
    endloop
  endfacet
  facet normal 0.587785 0.809017 -0
    outer loop
      vertex 18 11.3397 2.8
      vertex 16.3087 12.5686 3
      vertex 18 11.3397 3
    endloop
  endfacet
  facet normal 0.587785 0.809017 0
    outer loop
      vertex 16.3087 12.5686 3
      vertex 18 11.3397 2.8
      vertex 16.3087 12.5686 2.8
    endloop
  endfacet
  facet normal -0.587785 0.809017 0
    outer loop
      vertex 29.6913 12.5686 2.8
      vertex 28 11.3397 3
      vertex 29.6913 12.5686 3
    endloop
  endfacet
  facet normal -0.587785 0.809017 0
    outer loop
      vertex 28 11.3397 3
      vertex 29.6913 12.5686 2.8
      vertex 28 11.3397 2.8
    endloop
  endfacet
  facet normal 0.866026 0.5 0
    outer loop
      vertex 14.9098 14.1221 3
      vertex 13.8645 15.9326 2.8
      vertex 13.8645 15.9326 3
    endloop
  endfacet
  facet normal 0.866026 0.5 0
    outer loop
      vertex 13.8645 15.9326 2.8
      vertex 14.9098 14.1221 3
      vertex 14.9098 14.1221 2.8
    endloop
  endfacet
  facet normal 0.951057 0.309017 0
    outer loop
      vertex 13.8645 15.9326 3
      vertex 13.2185 17.9209 2.8
      vertex 13.2185 17.9209 3
    endloop
  endfacet
  facet normal 0.951057 0.309017 0
    outer loop
      vertex 13.2185 17.9209 2.8
      vertex 13.8645 15.9326 3
      vertex 13.8645 15.9326 2.8
    endloop
  endfacet
  facet normal -0.743145 0.669131 0
    outer loop
      vertex 29.6913 12.5686 2.8
      vertex 31.0902 14.1221 3
      vertex 31.0902 14.1221 2.8
    endloop
  endfacet
  facet normal -0.743145 0.669131 0
    outer loop
      vertex 31.0902 14.1221 3
      vertex 29.6913 12.5686 2.8
      vertex 29.6913 12.5686 3
    endloop
  endfacet
  facet normal 0.207911 0.978148 -0
    outer loop
      vertex 21.9547 10.0548 2.8
      vertex 19.9098 10.4894 3
      vertex 21.9547 10.0548 3
    endloop
  endfacet
  facet normal 0.207911 0.978148 0
    outer loop
      vertex 19.9098 10.4894 3
      vertex 21.9547 10.0548 2.8
      vertex 19.9098 10.4894 2.8
    endloop
  endfacet
  facet normal 0 1 -0
    outer loop
      vertex 24.0453 10.0548 2.8
      vertex 21.9547 10.0548 3
      vertex 24.0453 10.0548 3
    endloop
  endfacet
  facet normal 0 1 0
    outer loop
      vertex 21.9547 10.0548 3
      vertex 24.0453 10.0548 2.8
      vertex 21.9547 10.0548 2.8
    endloop
  endfacet
  facet normal 0 1 -0
    outer loop
      vertex 36.5 20 2.8
      vertex 33 20 3
      vertex 36.5 20 3
    endloop
  endfacet
  facet normal 0 1 0
    outer loop
      vertex 33 20 3
      vertex 36.5 20 2.8
      vertex 33 20 2.8
    endloop
  endfacet
  facet normal 0 1 -0
    outer loop
      vertex 13 20 2.8
      vertex 9.5 20 3
      vertex 13 20 3
    endloop
  endfacet
  facet normal 0 1 0
    outer loop
      vertex 9.5 20 3
      vertex 13 20 2.8
      vertex 9.5 20 2.8
    endloop
  endfacet
endsolid OpenSCAD_Model
