solid OpenSCAD_Model
  facet normal 0.866025 0.5 0
    outer loop
      vertex 5.0245 2.23705 5
      vertex 4.44959 3.23282 2
      vertex 4.44959 3.23282 5
    endloop
  endfacet
  facet normal 0.866025 0.5 0
    outer loop
      vertex 4.44959 3.23282 2
      vertex 5.0245 2.23705 5
      vertex 5.0245 2.23705 2
    endloop
  endfacet
  facet normal 0.951057 0.309017 0
    outer loop
      vertex 5.37981 1.14351 5
      vertex 5.0245 2.23705 2
      vertex 5.0245 2.23705 5
    endloop
  endfacet
  facet normal 0.951057 0.309017 0
    outer loop
      vertex 5.0245 2.23705 2
      vertex 5.37981 1.14351 5
      vertex 5.37981 1.14351 2
    endloop
  endfacet
  facet normal -0.866025 0.5 0
    outer loop
      vertex -5.0245 2.23705 2
      vertex -4.44959 3.23282 5
      vertex -4.44959 3.23282 2
    endloop
  endfacet
  facet normal -0.866025 0.5 0
    outer loop
      vertex -4.44959 3.23282 5
      vertex -5.0245 2.23705 2
      vertex -5.0245 2.23705 5
    endloop
  endfacet
  facet normal 0.994522 -0.104529 0
    outer loop
      vertex 5.37981 -1.14351 5
      vertex 5.5 0 2
      vertex 5.5 0 5
    endloop
  endfacet
  facet normal 0.994522 -0.104529 0
    outer loop
      vertex 5.5 0 2
      vertex 5.37981 -1.14351 5
      vertex 5.37981 -1.14351 2
    endloop
  endfacet
  facet normal 0.743145 0.66913 0
    outer loop
      vertex 4.44959 3.23282 5
      vertex 3.68022 4.0873 2
      vertex 3.68022 4.0873 5
    endloop
  endfacet
  facet normal 0.743145 0.66913 0
    outer loop
      vertex 3.68022 4.0873 2
      vertex 4.44959 3.23282 5
      vertex 4.44959 3.23282 2
    endloop
  endfacet
  facet normal 0.587785 0.809017 -0
    outer loop
      vertex 3.68022 4.0873 2
      vertex 2.75 4.76314 5
      vertex 3.68022 4.0873 5
    endloop
  endfacet
  facet normal 0.587785 0.809017 0
    outer loop
      vertex 2.75 4.76314 5
      vertex 3.68022 4.0873 2
      vertex 2.75 4.76314 2
    endloop
  endfacet
  facet normal -0.994522 0.104529 0
    outer loop
      vertex -5.5 0 2
      vertex -5.37981 1.14351 5
      vertex -5.37981 1.14351 2
    endloop
  endfacet
  facet normal -0.994522 0.104529 0
    outer loop
      vertex -5.37981 1.14351 5
      vertex -5.5 0 2
      vertex -5.5 0 5
    endloop
  endfacet
  facet normal -0.743145 0.66913 0
    outer loop
      vertex -4.44959 3.23282 2
      vertex -3.68022 4.0873 5
      vertex -3.68022 4.0873 2
    endloop
  endfacet
  facet normal -0.743145 0.66913 0
    outer loop
      vertex -3.68022 4.0873 5
      vertex -4.44959 3.23282 2
      vertex -4.44959 3.23282 5
    endloop
  endfacet
  facet normal -0.587785 0.809017 0
    outer loop
      vertex -2.75 4.76314 2
      vertex -3.68022 4.0873 5
      vertex -2.75 4.76314 5
    endloop
  endfacet
  facet normal -0.587785 0.809017 0
    outer loop
      vertex -3.68022 4.0873 5
      vertex -2.75 4.76314 2
      vertex -3.68022 4.0873 2
    endloop
  endfacet
  facet normal 0.994522 0.104529 0
    outer loop
      vertex 5.5 0 5
      vertex 5.37981 1.14351 2
      vertex 5.37981 1.14351 5
    endloop
  endfacet
  facet normal 0.994522 0.104529 0
    outer loop
      vertex 5.37981 1.14351 2
      vertex 5.5 0 5
      vertex 5.5 0 2
    endloop
  endfacet
  facet normal 0.951057 -0.309017 0
    outer loop
      vertex 5.0245 -2.23705 5
      vertex 5.37981 -1.14351 2
      vertex 5.37981 -1.14351 5
    endloop
  endfacet
  facet normal 0.951057 -0.309017 0
    outer loop
      vertex 5.37981 -1.14351 2
      vertex 5.0245 -2.23705 5
      vertex 5.0245 -2.23705 2
    endloop
  endfacet
  facet normal -0.587785 -0.809017 0
    outer loop
      vertex -3.68022 -4.0873 2
      vertex -2.75 -4.76314 5
      vertex -3.68022 -4.0873 5
    endloop
  endfacet
  facet normal -0.587785 -0.809017 -0
    outer loop
      vertex -2.75 -4.76314 5
      vertex -3.68022 -4.0873 2
      vertex -2.75 -4.76314 2
    endloop
  endfacet
  facet normal -0.866025 -0.5 0
    outer loop
      vertex -4.44959 -3.23282 2
      vertex -5.0245 -2.23705 5
      vertex -5.0245 -2.23705 2
    endloop
  endfacet
  facet normal -0.866025 -0.5 0
    outer loop
      vertex -5.0245 -2.23705 5
      vertex -4.44959 -3.23282 2
      vertex -4.44959 -3.23282 5
    endloop
  endfacet
  facet normal -0 0 1
    outer loop
      vertex -3.68022 4.0873 5
      vertex -2.75 0 5
      vertex -2.75 4.76314 5
    endloop
  endfacet
  facet normal -0 0 1
    outer loop
      vertex -4.44959 3.23282 5
      vertex -2.75 0 5
      vertex -3.68022 4.0873 5
    endloop
  endfacet
  facet normal 0 0 1
    outer loop
      vertex -2.75 0 5
      vertex -3.68022 -4.0873 5
      vertex -2.75 -4.76314 5
    endloop
  endfacet
  facet normal -0 0 1
    outer loop
      vertex -5.0245 2.23705 5
      vertex -2.75 0 5
      vertex -4.44959 3.23282 5
    endloop
  endfacet
  facet normal 0 0 1
    outer loop
      vertex -2.75 0 5
      vertex -4.44959 -3.23282 5
      vertex -3.68022 -4.0873 5
    endloop
  endfacet
  facet normal -0 0 1
    outer loop
      vertex -5.37981 1.14351 5
      vertex -2.75 0 5
      vertex -5.0245 2.23705 5
    endloop
  endfacet
  facet normal 0 0 1
    outer loop
      vertex -2.75 0 5
      vertex -5.0245 -2.23705 5
      vertex -4.44959 -3.23282 5
    endloop
  endfacet
  facet normal 0 0 1
    outer loop
      vertex -5.5 0 5
      vertex -2.75 0 5
      vertex -5.37981 1.14351 5
    endloop
  endfacet
  facet normal 0 0 1
    outer loop
      vertex -2.75 0 5
      vertex -5.37981 -1.14351 5
      vertex -5.0245 -2.23705 5
    endloop
  endfacet
  facet normal 0 0 1
    outer loop
      vertex -2.75 0 5
      vertex -5.5 0 5
      vertex -5.37981 -1.14351 5
    endloop
  endfacet
  facet normal 0 0 1
    outer loop
      vertex 2.75 0 5
      vertex 5.5 0 5
      vertex 5.37981 1.14351 5
    endloop
  endfacet
  facet normal 0 0 1
    outer loop
      vertex 2.75 0 5
      vertex 5.37981 1.14351 5
      vertex 5.0245 2.23705 5
    endloop
  endfacet
  facet normal 0 0 1
    outer loop
      vertex 5.5 0 5
      vertex 2.75 0 5
      vertex 5.37981 -1.14351 5
    endloop
  endfacet
  facet normal 0 0 1
    outer loop
      vertex 2.75 0 5
      vertex 5.0245 2.23705 5
      vertex 4.44959 3.23282 5
    endloop
  endfacet
  facet normal -0 0 1
    outer loop
      vertex 2.68991 -0.571756 5
      vertex 5.37981 -1.14351 5
      vertex 2.75 0 5
    endloop
  endfacet
  facet normal 0 0 1
    outer loop
      vertex 2.75 0 5
      vertex 4.44959 3.23282 5
      vertex 3.68022 4.0873 5
    endloop
  endfacet
  facet normal 0 0 1
    outer loop
      vertex 5.37981 -1.14351 5
      vertex 2.68991 -0.571756 5
      vertex 5.0245 -2.23705 5
    endloop
  endfacet
  facet normal 0 0 1
    outer loop
      vertex 2.75 0 5
      vertex 3.68022 4.0873 5
      vertex 2.75 4.76314 5
    endloop
  endfacet
  facet normal -0 0 1
    outer loop
      vertex 2.51225 -1.11853 5
      vertex 5.0245 -2.23705 5
      vertex 2.68991 -0.571756 5
    endloop
  endfacet
  facet normal 0 0 1
    outer loop
      vertex 5.0245 -2.23705 5
      vertex 2.51225 -1.11853 5
      vertex 4.44959 -3.23282 5
    endloop
  endfacet
  facet normal -0 0 1
    outer loop
      vertex 2.2248 -1.61641 5
      vertex 4.44959 -3.23282 5
      vertex 2.51225 -1.11853 5
    endloop
  endfacet
  facet normal 0 0 1
    outer loop
      vertex 4.44959 -3.23282 5
      vertex 2.2248 -1.61641 5
      vertex 3.68022 -4.0873 5
    endloop
  endfacet
  facet normal -0 0 1
    outer loop
      vertex 1.84011 -2.04365 5
      vertex 3.68022 -4.0873 5
      vertex 2.2248 -1.61641 5
    endloop
  endfacet
  facet normal 0 0 1
    outer loop
      vertex 3.68022 -4.0873 5
      vertex 1.84011 -2.04365 5
      vertex 2.75 -4.76314 5
    endloop
  endfacet
  facet normal -0 0 1
    outer loop
      vertex 1.375 -2.38157 5
      vertex 2.75 -4.76314 5
      vertex 1.84011 -2.04365 5
    endloop
  endfacet
  facet normal 0 0 1
    outer loop
      vertex 2.75 -4.76314 5
      vertex 1.375 -2.38157 5
      vertex 1.69959 -5.23081 5
    endloop
  endfacet
  facet normal -0 0 1
    outer loop
      vertex 0.849796 -2.61541 5
      vertex 1.69959 -5.23081 5
      vertex 1.375 -2.38157 5
    endloop
  endfacet
  facet normal 0 0 1
    outer loop
      vertex 0.849796 -2.61541 5
      vertex 0.574906 -5.46987 5
      vertex 1.69959 -5.23081 5
    endloop
  endfacet
  facet normal -0 0 1
    outer loop
      vertex 0.287453 -2.73493 5
      vertex 0.574906 -5.46987 5
      vertex 0.849796 -2.61541 5
    endloop
  endfacet
  facet normal -0 0 1
    outer loop
      vertex -0.287453 -2.73493 5
      vertex 0.574906 -5.46987 5
      vertex 0.287453 -2.73493 5
    endloop
  endfacet
  facet normal 0 0 1
    outer loop
      vertex -0.287453 -2.73493 5
      vertex -0.574906 -5.46987 5
      vertex 0.574906 -5.46987 5
    endloop
  endfacet
  facet normal 0 0 1
    outer loop
      vertex -0.849796 -2.61541 5
      vertex -0.574906 -5.46987 5
      vertex -0.287453 -2.73493 5
    endloop
  endfacet
  facet normal 0 0 1
    outer loop
      vertex -1.69959 -5.23081 5
      vertex -0.849796 -2.61541 5
      vertex -1.375 -2.38157 5
    endloop
  endfacet
  facet normal 0 0 1
    outer loop
      vertex -0.849796 -2.61541 5
      vertex -1.69959 -5.23081 5
      vertex -0.574906 -5.46987 5
    endloop
  endfacet
  facet normal 0 0 1
    outer loop
      vertex -2.75 -4.76314 5
      vertex -1.375 -2.38157 5
      vertex -1.84011 -2.04365 5
    endloop
  endfacet
  facet normal 0 0 1
    outer loop
      vertex -2.75 -4.76314 5
      vertex -1.84011 -2.04365 5
      vertex -2.2248 -1.61641 5
    endloop
  endfacet
  facet normal 0 0 1
    outer loop
      vertex -2.75 -4.76314 5
      vertex -2.2248 -1.61641 5
      vertex -2.51225 -1.11853 5
    endloop
  endfacet
  facet normal 0 0 1
    outer loop
      vertex -2.75 -4.76314 5
      vertex -2.51225 -1.11853 5
      vertex -2.68991 -0.571756 5
    endloop
  endfacet
  facet normal 0 0 1
    outer loop
      vertex -1.375 -2.38157 5
      vertex -2.75 -4.76314 5
      vertex -1.69959 -5.23081 5
    endloop
  endfacet
  facet normal 0 0 1
    outer loop
      vertex -2.75 -4.76314 5
      vertex -2.68991 -0.571756 5
      vertex -2.75 0 5
    endloop
  endfacet
  facet normal -0.951057 0.309017 0
    outer loop
      vertex -5.37981 1.14351 2
      vertex -5.0245 2.23705 5
      vertex -5.0245 2.23705 2
    endloop
  endfacet
  facet normal -0.951057 0.309017 0
    outer loop
      vertex -5.0245 2.23705 5
      vertex -5.37981 1.14351 2
      vertex -5.37981 1.14351 5
    endloop
  endfacet
  facet normal 0.866025 -0.5 0
    outer loop
      vertex 4.44959 -3.23282 5
      vertex 5.0245 -2.23705 2
      vertex 5.0245 -2.23705 5
    endloop
  endfacet
  facet normal 0.866025 -0.5 0
    outer loop
      vertex 5.0245 -2.23705 2
      vertex 4.44959 -3.23282 5
      vertex 4.44959 -3.23282 2
    endloop
  endfacet
  facet normal -0.994522 -0.104529 0
    outer loop
      vertex -5.37981 -1.14351 2
      vertex -5.5 0 5
      vertex -5.5 0 2
    endloop
  endfacet
  facet normal -0.994522 -0.104529 0
    outer loop
      vertex -5.5 0 5
      vertex -5.37981 -1.14351 2
      vertex -5.37981 -1.14351 5
    endloop
  endfacet
  facet normal -0.743145 -0.66913 0
    outer loop
      vertex -3.68022 -4.0873 2
      vertex -4.44959 -3.23282 5
      vertex -4.44959 -3.23282 2
    endloop
  endfacet
  facet normal -0.743145 -0.66913 0
    outer loop
      vertex -4.44959 -3.23282 5
      vertex -3.68022 -4.0873 2
      vertex -3.68022 -4.0873 5
    endloop
  endfacet
  facet normal 0.207912 -0.978148 0
    outer loop
      vertex 0.574906 -5.46987 2
      vertex 1.69959 -5.23081 5
      vertex 0.574906 -5.46987 5
    endloop
  endfacet
  facet normal 0.207912 -0.978148 0
    outer loop
      vertex 1.69959 -5.23081 5
      vertex 0.574906 -5.46987 2
      vertex 1.69959 -5.23081 2
    endloop
  endfacet
  facet normal 0.406737 -0.913545 0
    outer loop
      vertex 1.69959 -5.23081 2
      vertex 2.75 -4.76314 5
      vertex 1.69959 -5.23081 5
    endloop
  endfacet
  facet normal 0.406737 -0.913545 0
    outer loop
      vertex 2.75 -4.76314 5
      vertex 1.69959 -5.23081 2
      vertex 2.75 -4.76314 2
    endloop
  endfacet
  facet normal 0.743145 -0.66913 0
    outer loop
      vertex 3.68022 -4.0873 5
      vertex 4.44959 -3.23282 2
      vertex 4.44959 -3.23282 5
    endloop
  endfacet
  facet normal 0.743145 -0.66913 0
    outer loop
      vertex 4.44959 -3.23282 2
      vertex 3.68022 -4.0873 5
      vertex 3.68022 -4.0873 2
    endloop
  endfacet
  facet normal 0.587785 -0.809017 0
    outer loop
      vertex 2.75 -4.76314 2
      vertex 3.68022 -4.0873 5
      vertex 2.75 -4.76314 5
    endloop
  endfacet
  facet normal 0.587785 -0.809017 0
    outer loop
      vertex 3.68022 -4.0873 5
      vertex 2.75 -4.76314 2
      vertex 3.68022 -4.0873 2
    endloop
  endfacet
  facet normal 0 -1 0
    outer loop
      vertex -0.574906 -5.46987 2
      vertex 0.574906 -5.46987 5
      vertex -0.574906 -5.46987 5
    endloop
  endfacet
  facet normal 0 -1 -0
    outer loop
      vertex 0.574906 -5.46987 5
      vertex -0.574906 -5.46987 2
      vertex 0.574906 -5.46987 2
    endloop
  endfacet
  facet normal -0.207912 -0.978148 0
    outer loop
      vertex -1.69959 -5.23081 2
      vertex -0.574906 -5.46987 5
      vertex -1.69959 -5.23081 5
    endloop
  endfacet
  facet normal -0.207912 -0.978148 -0
    outer loop
      vertex -0.574906 -5.46987 5
      vertex -1.69959 -5.23081 2
      vertex -0.574906 -5.46987 2
    endloop
  endfacet
  facet normal 0 0 -1
    outer loop
      vertex 75 -10 0
      vertex 62.75 0 0
      vertex 75 10 0
    endloop
  endfacet
  facet normal 0 0 -1
    outer loop
      vertex 75 -10 0
      vertex 62.6899 -0.571756 0
      vertex 62.75 0 0
    endloop
  endfacet
  facet normal 0 0 -1
    outer loop
      vertex 75 -10 0
      vertex 62.5122 -1.11853 0
      vertex 62.6899 -0.571756 0
    endloop
  endfacet
  facet normal 0 0 -1
    outer loop
      vertex 75 -10 0
      vertex 62.2248 -1.61641 0
      vertex 62.5122 -1.11853 0
    endloop
  endfacet
  facet normal 0 0 -1
    outer loop
      vertex 75 -10 0
      vertex 61.8401 -2.04365 0
      vertex 62.2248 -1.61641 0
    endloop
  endfacet
  facet normal 0 0 -1
    outer loop
      vertex 75 -10 0
      vertex 61.375 -2.38157 0
      vertex 61.8401 -2.04365 0
    endloop
  endfacet
  facet normal 0 0 -1
    outer loop
      vertex 75 -10 0
      vertex 60.8498 -2.61541 0
      vertex 61.375 -2.38157 0
    endloop
  endfacet
  facet normal 0 0 -1
    outer loop
      vertex 75 -10 0
      vertex 60.2875 -2.73493 0
      vertex 60.8498 -2.61541 0
    endloop
  endfacet
  facet normal 0 0 -1
    outer loop
      vertex 75 -10 0
      vertex 59.7125 -2.73493 0
      vertex 60.2875 -2.73493 0
    endloop
  endfacet
  facet normal 0 0 -1
    outer loop
      vertex 75 -10 0
      vertex 59.1502 -2.61541 0
      vertex 59.7125 -2.73493 0
    endloop
  endfacet
  facet normal 0 0 -1
    outer loop
      vertex 0.849796 -2.61541 0
      vertex 59.1502 -2.61541 0
      vertex 75 -10 0
    endloop
  endfacet
  facet normal 0 0 -1
    outer loop
      vertex 57.25 0 0
      vertex 2.75 0 0
      vertex 57.25 10 0
    endloop
  endfacet
  facet normal 0 0 -1
    outer loop
      vertex 57.3101 -0.571756 0
      vertex 2.75 0 0
      vertex 57.25 0 0
    endloop
  endfacet
  facet normal 0 0 -1
    outer loop
      vertex 2.68991 -0.571756 0
      vertex 57.3101 -0.571756 0
      vertex 57.4877 -1.11853 0
    endloop
  endfacet
  facet normal 0 0 -1
    outer loop
      vertex 2.51225 -1.11853 0
      vertex 57.4877 -1.11853 0
      vertex 57.7752 -1.61641 0
    endloop
  endfacet
  facet normal 0 0 -1
    outer loop
      vertex 2.2248 -1.61641 0
      vertex 57.7752 -1.61641 0
      vertex 58.1599 -2.04365 0
    endloop
  endfacet
  facet normal 0 0 -1
    outer loop
      vertex 1.84011 -2.04365 0
      vertex 58.1599 -2.04365 0
      vertex 58.625 -2.38157 0
    endloop
  endfacet
  facet normal 0 0 -1
    outer loop
      vertex 59.1502 -2.61541 0
      vertex 0.849796 -2.61541 0
      vertex 58.625 -2.38157 0
    endloop
  endfacet
  facet normal 0 0 -1
    outer loop
      vertex 57.3101 -0.571756 0
      vertex 2.68991 -0.571756 0
      vertex 2.75 0 0
    endloop
  endfacet
  facet normal 0 0 -1
    outer loop
      vertex 57.4877 -1.11853 0
      vertex 2.51225 -1.11853 0
      vertex 2.68991 -0.571756 0
    endloop
  endfacet
  facet normal 0 0 -1
    outer loop
      vertex 57.7752 -1.61641 0
      vertex 2.2248 -1.61641 0
      vertex 2.51225 -1.11853 0
    endloop
  endfacet
  facet normal 0 0 -1
    outer loop
      vertex 58.1599 -2.04365 0
      vertex 1.84011 -2.04365 0
      vertex 2.2248 -1.61641 0
    endloop
  endfacet
  facet normal 0 0 -1
    outer loop
      vertex 58.625 -2.38157 0
      vertex 1.375 -2.38157 0
      vertex 1.84011 -2.04365 0
    endloop
  endfacet
  facet normal -0 0 -1
    outer loop
      vertex 58.625 -2.38157 0
      vertex 0.849796 -2.61541 0
      vertex 1.375 -2.38157 0
    endloop
  endfacet
  facet normal 0 0 -1
    outer loop
      vertex -15 -10 0
      vertex 0.849796 -2.61541 0
      vertex 75 -10 0
    endloop
  endfacet
  facet normal 0 0 -1
    outer loop
      vertex 0.849796 -2.61541 0
      vertex -15 -10 0
      vertex 0.287453 -2.73493 0
    endloop
  endfacet
  facet normal -0 0 -1
    outer loop
      vertex 0.287453 -2.73493 0
      vertex -15 -10 0
      vertex -0.287453 -2.73493 0
    endloop
  endfacet
  facet normal 0 0 -1
    outer loop
      vertex -15 -10 0
      vertex -0.849796 -2.61541 0
      vertex -0.287453 -2.73493 0
    endloop
  endfacet
  facet normal 0 0 -1
    outer loop
      vertex -15 -10 0
      vertex -1.375 -2.38157 0
      vertex -0.849796 -2.61541 0
    endloop
  endfacet
  facet normal 0 0 -1
    outer loop
      vertex -15 -10 0
      vertex -1.84011 -2.04365 0
      vertex -1.375 -2.38157 0
    endloop
  endfacet
  facet normal 0 0 -1
    outer loop
      vertex -15 -10 0
      vertex -2.2248 -1.61641 0
      vertex -1.84011 -2.04365 0
    endloop
  endfacet
  facet normal 0 0 -1
    outer loop
      vertex -15 -10 0
      vertex -2.51225 -1.11853 0
      vertex -2.2248 -1.61641 0
    endloop
  endfacet
  facet normal 0 0 -1
    outer loop
      vertex -15 -10 0
      vertex -2.68991 -0.571756 0
      vertex -2.51225 -1.11853 0
    endloop
  endfacet
  facet normal 0 0 -1
    outer loop
      vertex -15 -10 0
      vertex -2.75 0 0
      vertex -2.68991 -0.571756 0
    endloop
  endfacet
  facet normal 0 0 -1
    outer loop
      vertex -15 10 0
      vertex -2.75 0 0
      vertex -15 -10 0
    endloop
  endfacet
  facet normal 0 0 -1
    outer loop
      vertex -2.75 0 0
      vertex -15 10 0
      vertex -2.75 10 0
    endloop
  endfacet
  facet normal -0 0 -1
    outer loop
      vertex 75 10 0
      vertex 62.75 0 0
      vertex 62.75 10 0
    endloop
  endfacet
  facet normal -0 0 -1
    outer loop
      vertex 57.25 10 0
      vertex 2.75 0 0
      vertex 2.75 10 0
    endloop
  endfacet
  facet normal -0.951057 -0.309017 0
    outer loop
      vertex -5.0245 -2.23705 2
      vertex -5.37981 -1.14351 5
      vertex -5.37981 -1.14351 2
    endloop
  endfacet
  facet normal -0.951057 -0.309017 0
    outer loop
      vertex -5.37981 -1.14351 5
      vertex -5.0245 -2.23705 2
      vertex -5.0245 -2.23705 5
    endloop
  endfacet
  facet normal -0.406737 -0.913545 0
    outer loop
      vertex -2.75 -4.76314 2
      vertex -1.69959 -5.23081 5
      vertex -2.75 -4.76314 5
    endloop
  endfacet
  facet normal -0.406737 -0.913545 -0
    outer loop
      vertex -1.69959 -5.23081 5
      vertex -2.75 -4.76314 2
      vertex -1.69959 -5.23081 2
    endloop
  endfacet
  facet normal 0.994522 0.104527 0
    outer loop
      vertex 65.5 0 5
      vertex 65.3798 1.14351 2
      vertex 65.3798 1.14351 5
    endloop
  endfacet
  facet normal 0.994522 0.104527 0
    outer loop
      vertex 65.3798 1.14351 2
      vertex 65.5 0 5
      vertex 65.5 0 2
    endloop
  endfacet
  facet normal -0.994522 -0.104527 0
    outer loop
      vertex 54.6202 -1.14351 2
      vertex 54.5 0 5
      vertex 54.5 0 2
    endloop
  endfacet
  facet normal -0.994522 -0.104527 0
    outer loop
      vertex 54.5 0 5
      vertex 54.6202 -1.14351 2
      vertex 54.6202 -1.14351 5
    endloop
  endfacet
  facet normal 0.743145 0.66913 0
    outer loop
      vertex 64.4496 3.23282 5
      vertex 63.6802 4.0873 2
      vertex 63.6802 4.0873 5
    endloop
  endfacet
  facet normal 0.743145 0.66913 0
    outer loop
      vertex 63.6802 4.0873 2
      vertex 64.4496 3.23282 5
      vertex 64.4496 3.23282 2
    endloop
  endfacet
  facet normal 0.951055 0.30902 0
    outer loop
      vertex 65.3798 1.14351 5
      vertex 65.0245 2.23705 2
      vertex 65.0245 2.23705 5
    endloop
  endfacet
  facet normal 0.951055 0.30902 0
    outer loop
      vertex 65.0245 2.23705 2
      vertex 65.3798 1.14351 5
      vertex 65.3798 1.14351 2
    endloop
  endfacet
  facet normal -0.743145 0.66913 0
    outer loop
      vertex 55.5504 3.23282 2
      vertex 56.3198 4.0873 5
      vertex 56.3198 4.0873 2
    endloop
  endfacet
  facet normal -0.743145 0.66913 0
    outer loop
      vertex 56.3198 4.0873 5
      vertex 55.5504 3.23282 2
      vertex 55.5504 3.23282 5
    endloop
  endfacet
  facet normal 0.743145 -0.66913 0
    outer loop
      vertex 63.6802 -4.0873 5
      vertex 64.4496 -3.23282 2
      vertex 64.4496 -3.23282 5
    endloop
  endfacet
  facet normal 0.743145 -0.66913 0
    outer loop
      vertex 64.4496 -3.23282 2
      vertex 63.6802 -4.0873 5
      vertex 63.6802 -4.0873 2
    endloop
  endfacet
  facet normal 0.866026 -0.499999 0
    outer loop
      vertex 64.4496 -3.23282 5
      vertex 65.0245 -2.23705 2
      vertex 65.0245 -2.23705 5
    endloop
  endfacet
  facet normal 0.866026 -0.499999 0
    outer loop
      vertex 65.0245 -2.23705 2
      vertex 64.4496 -3.23282 5
      vertex 64.4496 -3.23282 2
    endloop
  endfacet
  facet normal -0.951056 -0.309017 0
    outer loop
      vertex 54.9755 -2.23705 2
      vertex 54.6202 -1.14351 5
      vertex 54.6202 -1.14351 2
    endloop
  endfacet
  facet normal -0.951056 -0.309017 0
    outer loop
      vertex 54.6202 -1.14351 5
      vertex 54.9755 -2.23705 2
      vertex 54.9755 -2.23705 5
    endloop
  endfacet
  facet normal 0.866026 0.499999 0
    outer loop
      vertex 65.0245 2.23705 5
      vertex 64.4496 3.23282 2
      vertex 64.4496 3.23282 5
    endloop
  endfacet
  facet normal 0.866026 0.499999 0
    outer loop
      vertex 64.4496 3.23282 2
      vertex 65.0245 2.23705 5
      vertex 65.0245 2.23705 2
    endloop
  endfacet
  facet normal 0.587785 0.809017 -0
    outer loop
      vertex 63.6802 4.0873 2
      vertex 62.75 4.76314 5
      vertex 63.6802 4.0873 5
    endloop
  endfacet
  facet normal 0.587785 0.809017 0
    outer loop
      vertex 62.75 4.76314 5
      vertex 63.6802 4.0873 2
      vertex 62.75 4.76314 2
    endloop
  endfacet
  facet normal -0.951056 0.309017 0
    outer loop
      vertex 54.6202 1.14351 2
      vertex 54.9755 2.23705 5
      vertex 54.9755 2.23705 2
    endloop
  endfacet
  facet normal -0.951056 0.309017 0
    outer loop
      vertex 54.9755 2.23705 5
      vertex 54.6202 1.14351 2
      vertex 54.6202 1.14351 5
    endloop
  endfacet
  facet normal -0.866024 0.500002 0
    outer loop
      vertex 54.9755 2.23705 2
      vertex 55.5504 3.23282 5
      vertex 55.5504 3.23282 2
    endloop
  endfacet
  facet normal -0.866024 0.500002 0
    outer loop
      vertex 55.5504 3.23282 5
      vertex 54.9755 2.23705 2
      vertex 54.9755 2.23705 5
    endloop
  endfacet
  facet normal -0.994522 0.104527 0
    outer loop
      vertex 54.5 0 2
      vertex 54.6202 1.14351 5
      vertex 54.6202 1.14351 2
    endloop
  endfacet
  facet normal -0.994522 0.104527 0
    outer loop
      vertex 54.6202 1.14351 5
      vertex 54.5 0 2
      vertex 54.5 0 5
    endloop
  endfacet
  facet normal -0 0 1
    outer loop
      vertex 56.3198 4.0873 5
      vertex 57.25 0 5
      vertex 57.25 4.76314 5
    endloop
  endfacet
  facet normal -0 0 1
    outer loop
      vertex 55.5504 3.23282 5
      vertex 57.25 0 5
      vertex 56.3198 4.0873 5
    endloop
  endfacet
  facet normal 0 0 1
    outer loop
      vertex 57.25 0 5
      vertex 56.3198 -4.0873 5
      vertex 57.25 -4.76314 5
    endloop
  endfacet
  facet normal -0 0 1
    outer loop
      vertex 54.9755 2.23705 5
      vertex 57.25 0 5
      vertex 55.5504 3.23282 5
    endloop
  endfacet
  facet normal 0 0 1
    outer loop
      vertex 57.25 0 5
      vertex 55.5504 -3.23282 5
      vertex 56.3198 -4.0873 5
    endloop
  endfacet
  facet normal -0 0 1
    outer loop
      vertex 54.6202 1.14351 5
      vertex 57.25 0 5
      vertex 54.9755 2.23705 5
    endloop
  endfacet
  facet normal 0 0 1
    outer loop
      vertex 57.25 0 5
      vertex 54.9755 -2.23705 5
      vertex 55.5504 -3.23282 5
    endloop
  endfacet
  facet normal 0 0 1
    outer loop
      vertex 54.5 0 5
      vertex 57.25 0 5
      vertex 54.6202 1.14351 5
    endloop
  endfacet
  facet normal 0 0 1
    outer loop
      vertex 57.25 0 5
      vertex 54.6202 -1.14351 5
      vertex 54.9755 -2.23705 5
    endloop
  endfacet
  facet normal 0 0 1
    outer loop
      vertex 57.25 0 5
      vertex 54.5 0 5
      vertex 54.6202 -1.14351 5
    endloop
  endfacet
  facet normal 0 0 1
    outer loop
      vertex 62.75 0 5
      vertex 65.5 0 5
      vertex 65.3798 1.14351 5
    endloop
  endfacet
  facet normal 0 0 1
    outer loop
      vertex 62.75 0 5
      vertex 65.3798 1.14351 5
      vertex 65.0245 2.23705 5
    endloop
  endfacet
  facet normal 0 0 1
    outer loop
      vertex 65.5 0 5
      vertex 62.75 0 5
      vertex 65.3798 -1.14351 5
    endloop
  endfacet
  facet normal 0 0 1
    outer loop
      vertex 62.75 0 5
      vertex 65.0245 2.23705 5
      vertex 64.4496 3.23282 5
    endloop
  endfacet
  facet normal -0 0 1
    outer loop
      vertex 62.6899 -0.571756 5
      vertex 65.3798 -1.14351 5
      vertex 62.75 0 5
    endloop
  endfacet
  facet normal 0 0 1
    outer loop
      vertex 62.75 0 5
      vertex 64.4496 3.23282 5
      vertex 63.6802 4.0873 5
    endloop
  endfacet
  facet normal 0 0 1
    outer loop
      vertex 65.3798 -1.14351 5
      vertex 62.6899 -0.571756 5
      vertex 65.0245 -2.23705 5
    endloop
  endfacet
  facet normal 0 0 1
    outer loop
      vertex 62.75 0 5
      vertex 63.6802 4.0873 5
      vertex 62.75 4.76314 5
    endloop
  endfacet
  facet normal -0 0 1
    outer loop
      vertex 62.5122 -1.11853 5
      vertex 65.0245 -2.23705 5
      vertex 62.6899 -0.571756 5
    endloop
  endfacet
  facet normal 0 0 1
    outer loop
      vertex 65.0245 -2.23705 5
      vertex 62.5122 -1.11853 5
      vertex 64.4496 -3.23282 5
    endloop
  endfacet
  facet normal -0 0 1
    outer loop
      vertex 62.2248 -1.61641 5
      vertex 64.4496 -3.23282 5
      vertex 62.5122 -1.11853 5
    endloop
  endfacet
  facet normal 0 0 1
    outer loop
      vertex 64.4496 -3.23282 5
      vertex 62.2248 -1.61641 5
      vertex 63.6802 -4.0873 5
    endloop
  endfacet
  facet normal -0 0 1
    outer loop
      vertex 61.8401 -2.04365 5
      vertex 63.6802 -4.0873 5
      vertex 62.2248 -1.61641 5
    endloop
  endfacet
  facet normal 0 0 1
    outer loop
      vertex 63.6802 -4.0873 5
      vertex 61.8401 -2.04365 5
      vertex 62.75 -4.76314 5
    endloop
  endfacet
  facet normal -0 0 1
    outer loop
      vertex 61.375 -2.38157 5
      vertex 62.75 -4.76314 5
      vertex 61.8401 -2.04365 5
    endloop
  endfacet
  facet normal 0 0 1
    outer loop
      vertex 62.75 -4.76314 5
      vertex 61.375 -2.38157 5
      vertex 61.6996 -5.23081 5
    endloop
  endfacet
  facet normal -0 0 1
    outer loop
      vertex 60.8498 -2.61541 5
      vertex 61.6996 -5.23081 5
      vertex 61.375 -2.38157 5
    endloop
  endfacet
  facet normal 0 0 1
    outer loop
      vertex 60.8498 -2.61541 5
      vertex 60.5749 -5.46987 5
      vertex 61.6996 -5.23081 5
    endloop
  endfacet
  facet normal -0 0 1
    outer loop
      vertex 60.2875 -2.73493 5
      vertex 60.5749 -5.46987 5
      vertex 60.8498 -2.61541 5
    endloop
  endfacet
  facet normal -0 0 1
    outer loop
      vertex 59.7125 -2.73493 5
      vertex 60.5749 -5.46987 5
      vertex 60.2875 -2.73493 5
    endloop
  endfacet
  facet normal 0 0 1
    outer loop
      vertex 59.7125 -2.73493 5
      vertex 59.4251 -5.46987 5
      vertex 60.5749 -5.46987 5
    endloop
  endfacet
  facet normal 0 0 1
    outer loop
      vertex 59.1502 -2.61541 5
      vertex 59.4251 -5.46987 5
      vertex 59.7125 -2.73493 5
    endloop
  endfacet
  facet normal 0 0 1
    outer loop
      vertex 58.3004 -5.23081 5
      vertex 59.1502 -2.61541 5
      vertex 58.625 -2.38157 5
    endloop
  endfacet
  facet normal 0 0 1
    outer loop
      vertex 59.1502 -2.61541 5
      vertex 58.3004 -5.23081 5
      vertex 59.4251 -5.46987 5
    endloop
  endfacet
  facet normal 0 0 1
    outer loop
      vertex 57.25 -4.76314 5
      vertex 58.625 -2.38157 5
      vertex 58.1599 -2.04365 5
    endloop
  endfacet
  facet normal 0 0 1
    outer loop
      vertex 57.25 -4.76314 5
      vertex 58.1599 -2.04365 5
      vertex 57.7752 -1.61641 5
    endloop
  endfacet
  facet normal 0 0 1
    outer loop
      vertex 57.25 -4.76314 5
      vertex 57.7752 -1.61641 5
      vertex 57.4877 -1.11853 5
    endloop
  endfacet
  facet normal 0 0 1
    outer loop
      vertex 57.25 -4.76314 5
      vertex 57.4877 -1.11853 5
      vertex 57.3101 -0.571756 5
    endloop
  endfacet
  facet normal 0 0 1
    outer loop
      vertex 58.625 -2.38157 5
      vertex 57.25 -4.76314 5
      vertex 58.3004 -5.23081 5
    endloop
  endfacet
  facet normal 0 0 1
    outer loop
      vertex 57.25 -4.76314 5
      vertex 57.3101 -0.571756 5
      vertex 57.25 0 5
    endloop
  endfacet
  facet normal -0.587785 0.809017 0
    outer loop
      vertex 57.25 4.76314 2
      vertex 56.3198 4.0873 5
      vertex 57.25 4.76314 5
    endloop
  endfacet
  facet normal -0.587785 0.809017 0
    outer loop
      vertex 56.3198 4.0873 5
      vertex 57.25 4.76314 2
      vertex 56.3198 4.0873 2
    endloop
  endfacet
  facet normal 0.994522 -0.104527 0
    outer loop
      vertex 65.3798 -1.14351 5
      vertex 65.5 0 2
      vertex 65.5 0 5
    endloop
  endfacet
  facet normal 0.994522 -0.104527 0
    outer loop
      vertex 65.5 0 2
      vertex 65.3798 -1.14351 5
      vertex 65.3798 -1.14351 2
    endloop
  endfacet
  facet normal 0.207912 -0.978148 0
    outer loop
      vertex 60.5749 -5.46987 2
      vertex 61.6996 -5.23081 5
      vertex 60.5749 -5.46987 5
    endloop
  endfacet
  facet normal 0.207912 -0.978148 0
    outer loop
      vertex 61.6996 -5.23081 5
      vertex 60.5749 -5.46987 2
      vertex 61.6996 -5.23081 2
    endloop
  endfacet
  facet normal 0.587785 -0.809017 0
    outer loop
      vertex 62.75 -4.76314 2
      vertex 63.6802 -4.0873 5
      vertex 62.75 -4.76314 5
    endloop
  endfacet
  facet normal 0.587785 -0.809017 0
    outer loop
      vertex 63.6802 -4.0873 5
      vertex 62.75 -4.76314 2
      vertex 63.6802 -4.0873 2
    endloop
  endfacet
  facet normal -0.587785 -0.809017 0
    outer loop
      vertex 56.3198 -4.0873 2
      vertex 57.25 -4.76314 5
      vertex 56.3198 -4.0873 5
    endloop
  endfacet
  facet normal -0.587785 -0.809017 -0
    outer loop
      vertex 57.25 -4.76314 5
      vertex 56.3198 -4.0873 2
      vertex 57.25 -4.76314 2
    endloop
  endfacet
  facet normal -0.207912 -0.978148 0
    outer loop
      vertex 58.3004 -5.23081 2
      vertex 59.4251 -5.46987 5
      vertex 58.3004 -5.23081 5
    endloop
  endfacet
  facet normal -0.207912 -0.978148 -0
    outer loop
      vertex 59.4251 -5.46987 5
      vertex 58.3004 -5.23081 2
      vertex 59.4251 -5.46987 2
    endloop
  endfacet
  facet normal -0.866024 -0.500002 0
    outer loop
      vertex 55.5504 -3.23282 2
      vertex 54.9755 -2.23705 5
      vertex 54.9755 -2.23705 2
    endloop
  endfacet
  facet normal -0.866024 -0.500002 0
    outer loop
      vertex 54.9755 -2.23705 5
      vertex 55.5504 -3.23282 2
      vertex 55.5504 -3.23282 5
    endloop
  endfacet
  facet normal -0.743145 -0.66913 0
    outer loop
      vertex 56.3198 -4.0873 2
      vertex 55.5504 -3.23282 5
      vertex 55.5504 -3.23282 2
    endloop
  endfacet
  facet normal -0.743145 -0.66913 0
    outer loop
      vertex 55.5504 -3.23282 5
      vertex 56.3198 -4.0873 2
      vertex 56.3198 -4.0873 5
    endloop
  endfacet
  facet normal 0.406737 -0.913545 0
    outer loop
      vertex 61.6996 -5.23081 2
      vertex 62.75 -4.76314 5
      vertex 61.6996 -5.23081 5
    endloop
  endfacet
  facet normal 0.406737 -0.913545 0
    outer loop
      vertex 62.75 -4.76314 5
      vertex 61.6996 -5.23081 2
      vertex 62.75 -4.76314 2
    endloop
  endfacet
  facet normal 0.951055 -0.30902 0
    outer loop
      vertex 65.0245 -2.23705 5
      vertex 65.3798 -1.14351 2
      vertex 65.3798 -1.14351 5
    endloop
  endfacet
  facet normal 0.951055 -0.30902 0
    outer loop
      vertex 65.3798 -1.14351 2
      vertex 65.0245 -2.23705 5
      vertex 65.0245 -2.23705 2
    endloop
  endfacet
  facet normal -0.406737 -0.913545 0
    outer loop
      vertex 57.25 -4.76314 2
      vertex 58.3004 -5.23081 5
      vertex 57.25 -4.76314 5
    endloop
  endfacet
  facet normal -0.406737 -0.913545 -0
    outer loop
      vertex 58.3004 -5.23081 5
      vertex 57.25 -4.76314 2
      vertex 58.3004 -5.23081 2
    endloop
  endfacet
  facet normal 0 -1 0
    outer loop
      vertex 59.4251 -5.46987 2
      vertex 60.5749 -5.46987 5
      vertex 59.4251 -5.46987 5
    endloop
  endfacet
  facet normal 0 -1 -0
    outer loop
      vertex 60.5749 -5.46987 5
      vertex 59.4251 -5.46987 2
      vertex 60.5749 -5.46987 2
    endloop
  endfacet
  facet normal -1 0 0
    outer loop
      vertex -15 -10 0
      vertex -15 10 2
      vertex -15 10 0
    endloop
  endfacet
  facet normal -1 -0 0
    outer loop
      vertex -15 10 2
      vertex -15 -10 0
      vertex -15 -10 2
    endloop
  endfacet
  facet normal 0 0 1
    outer loop
      vertex -2.75 10 2
      vertex -3.68022 4.0873 2
      vertex -2.75 4.76314 2
    endloop
  endfacet
  facet normal 0 0 1
    outer loop
      vertex -2.75 10 2
      vertex -4.44959 3.23282 2
      vertex -3.68022 4.0873 2
    endloop
  endfacet
  facet normal -0 0 1
    outer loop
      vertex -15 10 2
      vertex -4.44959 3.23282 2
      vertex -2.75 10 2
    endloop
  endfacet
  facet normal 0 0 1
    outer loop
      vertex -4.44959 3.23282 2
      vertex -15 10 2
      vertex -5.0245 2.23705 2
    endloop
  endfacet
  facet normal 0 0 1
    outer loop
      vertex -5.37981 1.14351 2
      vertex -15 10 2
      vertex -5.5 0 2
    endloop
  endfacet
  facet normal 0 0 1
    outer loop
      vertex -5.0245 2.23705 2
      vertex -15 10 2
      vertex -5.37981 1.14351 2
    endloop
  endfacet
  facet normal 0 0 1
    outer loop
      vertex 57.25 10 2
      vertex 56.3198 4.0873 2
      vertex 57.25 4.76314 2
    endloop
  endfacet
  facet normal 0 0 1
    outer loop
      vertex 57.25 10 2
      vertex 55.5504 3.23282 2
      vertex 56.3198 4.0873 2
    endloop
  endfacet
  facet normal 0 0 1
    outer loop
      vertex 57.25 10 2
      vertex 54.9755 2.23705 2
      vertex 55.5504 3.23282 2
    endloop
  endfacet
  facet normal 0 0 1
    outer loop
      vertex 5.0245 2.23705 2
      vertex 54.9755 2.23705 2
      vertex 57.25 10 2
    endloop
  endfacet
  facet normal 0 0 1
    outer loop
      vertex 54.6202 1.14351 2
      vertex 5.5 0 2
      vertex 54.5 0 2
    endloop
  endfacet
  facet normal 0 0 1
    outer loop
      vertex 54.9755 2.23705 2
      vertex 5.0245 2.23705 2
      vertex 54.6202 1.14351 2
    endloop
  endfacet
  facet normal 0 0 1
    outer loop
      vertex 54.6202 1.14351 2
      vertex 5.37981 1.14351 2
      vertex 5.5 0 2
    endloop
  endfacet
  facet normal 0 0 1
    outer loop
      vertex 54.6202 1.14351 2
      vertex 5.0245 2.23705 2
      vertex 5.37981 1.14351 2
    endloop
  endfacet
  facet normal -0 0 1
    outer loop
      vertex 2.75 10 2
      vertex 5.0245 2.23705 2
      vertex 57.25 10 2
    endloop
  endfacet
  facet normal 0 0 1
    outer loop
      vertex 5.0245 2.23705 2
      vertex 2.75 10 2
      vertex 4.44959 3.23282 2
    endloop
  endfacet
  facet normal 0 0 1
    outer loop
      vertex 4.44959 3.23282 2
      vertex 2.75 10 2
      vertex 3.68022 4.0873 2
    endloop
  endfacet
  facet normal 0 0 1
    outer loop
      vertex 3.68022 4.0873 2
      vertex 2.75 10 2
      vertex 2.75 4.76314 2
    endloop
  endfacet
  facet normal 0 0 1
    outer loop
      vertex 75 10 2
      vertex 65.5 0 2
      vertex 75 -10 2
    endloop
  endfacet
  facet normal 0 0 1
    outer loop
      vertex 75 10 2
      vertex 65.3798 1.14351 2
      vertex 65.5 0 2
    endloop
  endfacet
  facet normal 0 0 1
    outer loop
      vertex 75 10 2
      vertex 65.0245 2.23705 2
      vertex 65.3798 1.14351 2
    endloop
  endfacet
  facet normal 0 0 1
    outer loop
      vertex 75 10 2
      vertex 64.4496 3.23282 2
      vertex 65.0245 2.23705 2
    endloop
  endfacet
  facet normal 0 0 1
    outer loop
      vertex 75 10 2
      vertex 63.6802 4.0873 2
      vertex 64.4496 3.23282 2
    endloop
  endfacet
  facet normal -0 0 1
    outer loop
      vertex 62.75 10 2
      vertex 63.6802 4.0873 2
      vertex 75 10 2
    endloop
  endfacet
  facet normal 0 0 1
    outer loop
      vertex 63.6802 4.0873 2
      vertex 62.75 10 2
      vertex 62.75 4.76314 2
    endloop
  endfacet
  facet normal -0 0 1
    outer loop
      vertex 65.3798 -1.14351 2
      vertex 75 -10 2
      vertex 65.5 0 2
    endloop
  endfacet
  facet normal -0 0 1
    outer loop
      vertex 65.0245 -2.23705 2
      vertex 75 -10 2
      vertex 65.3798 -1.14351 2
    endloop
  endfacet
  facet normal -0 0 1
    outer loop
      vertex 64.4496 -3.23282 2
      vertex 75 -10 2
      vertex 65.0245 -2.23705 2
    endloop
  endfacet
  facet normal -0 0 1
    outer loop
      vertex 63.6802 -4.0873 2
      vertex 75 -10 2
      vertex 64.4496 -3.23282 2
    endloop
  endfacet
  facet normal -0 0 1
    outer loop
      vertex 62.75 -4.76314 2
      vertex 75 -10 2
      vertex 63.6802 -4.0873 2
    endloop
  endfacet
  facet normal -0 0 1
    outer loop
      vertex 61.6996 -5.23081 2
      vertex 75 -10 2
      vertex 62.75 -4.76314 2
    endloop
  endfacet
  facet normal -0 0 1
    outer loop
      vertex 60.5749 -5.46987 2
      vertex 75 -10 2
      vertex 61.6996 -5.23081 2
    endloop
  endfacet
  facet normal -0 0 1
    outer loop
      vertex 59.4251 -5.46987 2
      vertex 75 -10 2
      vertex 60.5749 -5.46987 2
    endloop
  endfacet
  facet normal 0 0 1
    outer loop
      vertex 58.3004 -5.23081 2
      vertex 75 -10 2
      vertex 59.4251 -5.46987 2
    endloop
  endfacet
  facet normal -0 0 1
    outer loop
      vertex 5.5 0 2
      vertex 54.6202 -1.14351 2
      vertex 54.5 0 2
    endloop
  endfacet
  facet normal 0 0 1
    outer loop
      vertex 5.37981 -1.14351 2
      vertex 54.6202 -1.14351 2
      vertex 5.5 0 2
    endloop
  endfacet
  facet normal 0 0 1
    outer loop
      vertex 54.6202 -1.14351 2
      vertex 5.37981 -1.14351 2
      vertex 54.9755 -2.23705 2
    endloop
  endfacet
  facet normal 0 0 1
    outer loop
      vertex 5.0245 -2.23705 2
      vertex 54.9755 -2.23705 2
      vertex 5.37981 -1.14351 2
    endloop
  endfacet
  facet normal 0 0 1
    outer loop
      vertex 54.9755 -2.23705 2
      vertex 5.0245 -2.23705 2
      vertex 55.5504 -3.23282 2
    endloop
  endfacet
  facet normal 0 0 1
    outer loop
      vertex 4.44959 -3.23282 2
      vertex 55.5504 -3.23282 2
      vertex 5.0245 -2.23705 2
    endloop
  endfacet
  facet normal 0 0 1
    outer loop
      vertex 55.5504 -3.23282 2
      vertex 4.44959 -3.23282 2
      vertex 56.3198 -4.0873 2
    endloop
  endfacet
  facet normal 0 0 1
    outer loop
      vertex 3.68022 -4.0873 2
      vertex 56.3198 -4.0873 2
      vertex 4.44959 -3.23282 2
    endloop
  endfacet
  facet normal 0 0 1
    outer loop
      vertex 56.3198 -4.0873 2
      vertex 3.68022 -4.0873 2
      vertex 57.25 -4.76314 2
    endloop
  endfacet
  facet normal 0 0 1
    outer loop
      vertex 2.75 -4.76314 2
      vertex 57.25 -4.76314 2
      vertex 3.68022 -4.0873 2
    endloop
  endfacet
  facet normal 0 0 1
    outer loop
      vertex 57.25 -4.76314 2
      vertex 2.75 -4.76314 2
      vertex 58.3004 -5.23081 2
    endloop
  endfacet
  facet normal 0 0 1
    outer loop
      vertex 1.69959 -5.23081 2
      vertex 58.3004 -5.23081 2
      vertex 2.75 -4.76314 2
    endloop
  endfacet
  facet normal 0 0 1
    outer loop
      vertex 58.3004 -5.23081 2
      vertex 1.69959 -5.23081 2
      vertex 75 -10 2
    endloop
  endfacet
  facet normal -0 0 1
    outer loop
      vertex 0.574906 -5.46987 2
      vertex 75 -10 2
      vertex 1.69959 -5.23081 2
    endloop
  endfacet
  facet normal 0 0 1
    outer loop
      vertex -15 -10 2
      vertex 0.574906 -5.46987 2
      vertex -0.574906 -5.46987 2
    endloop
  endfacet
  facet normal 0 0 1
    outer loop
      vertex -15 -10 2
      vertex -5.5 0 2
      vertex -15 10 2
    endloop
  endfacet
  facet normal 0 0 1
    outer loop
      vertex -5.5 0 2
      vertex -15 -10 2
      vertex -5.37981 -1.14351 2
    endloop
  endfacet
  facet normal 0 0 1
    outer loop
      vertex -5.37981 -1.14351 2
      vertex -15 -10 2
      vertex -5.0245 -2.23705 2
    endloop
  endfacet
  facet normal 0 0 1
    outer loop
      vertex 0.574906 -5.46987 2
      vertex -15 -10 2
      vertex 75 -10 2
    endloop
  endfacet
  facet normal 0 0 1
    outer loop
      vertex -1.69959 -5.23081 2
      vertex -15 -10 2
      vertex -0.574906 -5.46987 2
    endloop
  endfacet
  facet normal 0 0 1
    outer loop
      vertex -2.75 -4.76314 2
      vertex -15 -10 2
      vertex -1.69959 -5.23081 2
    endloop
  endfacet
  facet normal 0 0 1
    outer loop
      vertex -3.68022 -4.0873 2
      vertex -15 -10 2
      vertex -2.75 -4.76314 2
    endloop
  endfacet
  facet normal 0 0 1
    outer loop
      vertex -4.44959 -3.23282 2
      vertex -15 -10 2
      vertex -3.68022 -4.0873 2
    endloop
  endfacet
  facet normal 0 0 1
    outer loop
      vertex -5.0245 -2.23705 2
      vertex -15 -10 2
      vertex -4.44959 -3.23282 2
    endloop
  endfacet
  facet normal 1 -0 0
    outer loop
      vertex 75 -10 2
      vertex 75 10 0
      vertex 75 10 2
    endloop
  endfacet
  facet normal 1 0 0
    outer loop
      vertex 75 10 0
      vertex 75 -10 2
      vertex 75 -10 0
    endloop
  endfacet
  facet normal 0 -1 0
    outer loop
      vertex -15 -10 0
      vertex 75 -10 2
      vertex -15 -10 2
    endloop
  endfacet
  facet normal 0 -1 -0
    outer loop
      vertex 75 -10 2
      vertex -15 -10 0
      vertex 75 -10 0
    endloop
  endfacet
  facet normal 0 1 -0
    outer loop
      vertex 75 10 0
      vertex 62.75 10 2
      vertex 75 10 2
    endloop
  endfacet
  facet normal 0 1 0
    outer loop
      vertex 62.75 10 2
      vertex 75 10 0
      vertex 62.75 10 0
    endloop
  endfacet
  facet normal 0 1 -0
    outer loop
      vertex -2.75 10 0
      vertex -15 10 2
      vertex -2.75 10 2
    endloop
  endfacet
  facet normal 0 1 0
    outer loop
      vertex -15 10 2
      vertex -2.75 10 0
      vertex -15 10 0
    endloop
  endfacet
  facet normal 0 1 -0
    outer loop
      vertex 57.25 10 0
      vertex 2.75 10 2
      vertex 57.25 10 2
    endloop
  endfacet
  facet normal 0 1 0
    outer loop
      vertex 2.75 10 2
      vertex 57.25 10 0
      vertex 2.75 10 0
    endloop
  endfacet
  facet normal 0.994522 0.104527 0
    outer loop
      vertex 57.3101 -0.571756 5
      vertex 57.25 0 0
      vertex 57.25 0 5
    endloop
  endfacet
  facet normal 0.994522 0.104527 0
    outer loop
      vertex 57.25 0 0
      vertex 57.3101 -0.571756 5
      vertex 57.3101 -0.571756 0
    endloop
  endfacet
  facet normal 0.743146 0.669129 0
    outer loop
      vertex 58.1599 -2.04365 5
      vertex 57.7752 -1.61641 0
      vertex 57.7752 -1.61641 5
    endloop
  endfacet
  facet normal 0.743146 0.669129 0
    outer loop
      vertex 57.7752 -1.61641 0
      vertex 58.1599 -2.04365 5
      vertex 58.1599 -2.04365 0
    endloop
  endfacet
  facet normal -0.743146 0.669129 0
    outer loop
      vertex 61.8401 -2.04365 0
      vertex 62.2248 -1.61641 5
      vertex 62.2248 -1.61641 0
    endloop
  endfacet
  facet normal -0.743146 0.669129 0
    outer loop
      vertex 62.2248 -1.61641 5
      vertex 61.8401 -2.04365 0
      vertex 61.8401 -2.04365 5
    endloop
  endfacet
  facet normal 0.951057 0.309014 0
    outer loop
      vertex 57.4877 -1.11853 5
      vertex 57.3101 -0.571756 0
      vertex 57.3101 -0.571756 5
    endloop
  endfacet
  facet normal 0.951057 0.309014 0
    outer loop
      vertex 57.3101 -0.571756 0
      vertex 57.4877 -1.11853 5
      vertex 57.4877 -1.11853 0
    endloop
  endfacet
  facet normal -0.994521 0.104533 0
    outer loop
      vertex 62.6899 -0.571756 0
      vertex 62.75 0 5
      vertex 62.75 0 0
    endloop
  endfacet
  facet normal -0.994521 0.104533 0
    outer loop
      vertex 62.75 0 5
      vertex 62.6899 -0.571756 0
      vertex 62.6899 -0.571756 5
    endloop
  endfacet
  facet normal -0.207912 0.978148 0
    outer loop
      vertex 60.8498 -2.61541 0
      vertex 60.2875 -2.73493 5
      vertex 60.8498 -2.61541 5
    endloop
  endfacet
  facet normal -0.207912 0.978148 0
    outer loop
      vertex 60.2875 -2.73493 5
      vertex 60.8498 -2.61541 0
      vertex 60.2875 -2.73493 0
    endloop
  endfacet
  facet normal -0.587783 0.809018 0
    outer loop
      vertex 61.8401 -2.04365 0
      vertex 61.375 -2.38157 5
      vertex 61.8401 -2.04365 5
    endloop
  endfacet
  facet normal -0.587783 0.809018 0
    outer loop
      vertex 61.375 -2.38157 5
      vertex 61.8401 -2.04365 0
      vertex 61.375 -2.38157 0
    endloop
  endfacet
  facet normal 0.587783 0.809018 -0
    outer loop
      vertex 58.625 -2.38157 0
      vertex 58.1599 -2.04365 5
      vertex 58.625 -2.38157 5
    endloop
  endfacet
  facet normal 0.587783 0.809018 0
    outer loop
      vertex 58.1599 -2.04365 5
      vertex 58.625 -2.38157 0
      vertex 58.1599 -2.04365 0
    endloop
  endfacet
  facet normal 0.207912 0.978148 -0
    outer loop
      vertex 59.7125 -2.73493 0
      vertex 59.1502 -2.61541 5
      vertex 59.7125 -2.73493 5
    endloop
  endfacet
  facet normal 0.207912 0.978148 0
    outer loop
      vertex 59.1502 -2.61541 5
      vertex 59.7125 -2.73493 0
      vertex 59.1502 -2.61541 0
    endloop
  endfacet
  facet normal 0.866023 0.500004 0
    outer loop
      vertex 57.7752 -1.61641 5
      vertex 57.4877 -1.11853 0
      vertex 57.4877 -1.11853 5
    endloop
  endfacet
  facet normal 0.866023 0.500004 0
    outer loop
      vertex 57.4877 -1.11853 0
      vertex 57.7752 -1.61641 5
      vertex 57.7752 -1.61641 0
    endloop
  endfacet
  facet normal -0.406737 0.913545 0
    outer loop
      vertex 61.375 -2.38157 0
      vertex 60.8498 -2.61541 5
      vertex 61.375 -2.38157 5
    endloop
  endfacet
  facet normal -0.406737 0.913545 0
    outer loop
      vertex 60.8498 -2.61541 5
      vertex 61.375 -2.38157 0
      vertex 60.8498 -2.61541 0
    endloop
  endfacet
  facet normal -0.951057 0.309014 0
    outer loop
      vertex 62.5122 -1.11853 0
      vertex 62.6899 -0.571756 5
      vertex 62.6899 -0.571756 0
    endloop
  endfacet
  facet normal -0.951057 0.309014 0
    outer loop
      vertex 62.6899 -0.571756 5
      vertex 62.5122 -1.11853 0
      vertex 62.5122 -1.11853 5
    endloop
  endfacet
  facet normal -0.866026 0.499999 0
    outer loop
      vertex 62.2248 -1.61641 0
      vertex 62.5122 -1.11853 5
      vertex 62.5122 -1.11853 0
    endloop
  endfacet
  facet normal -0.866026 0.499999 0
    outer loop
      vertex 62.5122 -1.11853 5
      vertex 62.2248 -1.61641 0
      vertex 62.2248 -1.61641 5
    endloop
  endfacet
  facet normal 0.406737 0.913545 -0
    outer loop
      vertex 59.1502 -2.61541 0
      vertex 58.625 -2.38157 5
      vertex 59.1502 -2.61541 5
    endloop
  endfacet
  facet normal 0.406737 0.913545 0
    outer loop
      vertex 58.625 -2.38157 5
      vertex 59.1502 -2.61541 0
      vertex 58.625 -2.38157 0
    endloop
  endfacet
  facet normal 0 1 -0
    outer loop
      vertex 60.2875 -2.73493 0
      vertex 59.7125 -2.73493 5
      vertex 60.2875 -2.73493 5
    endloop
  endfacet
  facet normal 0 1 0
    outer loop
      vertex 59.7125 -2.73493 5
      vertex 60.2875 -2.73493 0
      vertex 59.7125 -2.73493 0
    endloop
  endfacet
  facet normal 0 1 -0
    outer loop
      vertex 0.287453 -2.73493 0
      vertex -0.287453 -2.73493 5
      vertex 0.287453 -2.73493 5
    endloop
  endfacet
  facet normal 0 1 0
    outer loop
      vertex -0.287453 -2.73493 5
      vertex 0.287453 -2.73493 0
      vertex -0.287453 -2.73493 0
    endloop
  endfacet
  facet normal -0.951057 0.309016 0
    outer loop
      vertex 2.51225 -1.11853 0
      vertex 2.68991 -0.571756 5
      vertex 2.68991 -0.571756 0
    endloop
  endfacet
  facet normal -0.951057 0.309016 0
    outer loop
      vertex 2.68991 -0.571756 5
      vertex 2.51225 -1.11853 0
      vertex 2.51225 -1.11853 5
    endloop
  endfacet
  facet normal -0.994522 0.10453 0
    outer loop
      vertex 2.68991 -0.571756 0
      vertex 2.75 0 5
      vertex 2.75 0 0
    endloop
  endfacet
  facet normal -0.994522 0.10453 0
    outer loop
      vertex 2.75 0 5
      vertex 2.68991 -0.571756 0
      vertex 2.68991 -0.571756 5
    endloop
  endfacet
  facet normal -0.207912 0.978148 0
    outer loop
      vertex 0.849796 -2.61541 0
      vertex 0.287453 -2.73493 5
      vertex 0.849796 -2.61541 5
    endloop
  endfacet
  facet normal -0.207912 0.978148 0
    outer loop
      vertex 0.287453 -2.73493 5
      vertex 0.849796 -2.61541 0
      vertex 0.287453 -2.73493 0
    endloop
  endfacet
  facet normal -0.866025 0.5 0
    outer loop
      vertex 2.2248 -1.61641 0
      vertex 2.51225 -1.11853 5
      vertex 2.51225 -1.11853 0
    endloop
  endfacet
  facet normal -0.866025 0.5 0
    outer loop
      vertex 2.51225 -1.11853 5
      vertex 2.2248 -1.61641 0
      vertex 2.2248 -1.61641 5
    endloop
  endfacet
  facet normal 0.866025 0.5 0
    outer loop
      vertex -2.2248 -1.61641 5
      vertex -2.51225 -1.11853 0
      vertex -2.51225 -1.11853 5
    endloop
  endfacet
  facet normal 0.866025 0.5 0
    outer loop
      vertex -2.51225 -1.11853 0
      vertex -2.2248 -1.61641 5
      vertex -2.2248 -1.61641 0
    endloop
  endfacet
  facet normal -0.587785 0.809017 0
    outer loop
      vertex 1.84011 -2.04365 0
      vertex 1.375 -2.38157 5
      vertex 1.84011 -2.04365 5
    endloop
  endfacet
  facet normal -0.587785 0.809017 0
    outer loop
      vertex 1.375 -2.38157 5
      vertex 1.84011 -2.04365 0
      vertex 1.375 -2.38157 0
    endloop
  endfacet
  facet normal -0.406737 0.913545 0
    outer loop
      vertex 1.375 -2.38157 0
      vertex 0.849796 -2.61541 5
      vertex 1.375 -2.38157 5
    endloop
  endfacet
  facet normal -0.406737 0.913545 0
    outer loop
      vertex 0.849796 -2.61541 5
      vertex 1.375 -2.38157 0
      vertex 0.849796 -2.61541 0
    endloop
  endfacet
  facet normal 0.207912 0.978148 -0
    outer loop
      vertex -0.287453 -2.73493 0
      vertex -0.849796 -2.61541 5
      vertex -0.287453 -2.73493 5
    endloop
  endfacet
  facet normal 0.207912 0.978148 0
    outer loop
      vertex -0.849796 -2.61541 5
      vertex -0.287453 -2.73493 0
      vertex -0.849796 -2.61541 0
    endloop
  endfacet
  facet normal 0.743145 0.669131 0
    outer loop
      vertex -1.84011 -2.04365 5
      vertex -2.2248 -1.61641 0
      vertex -2.2248 -1.61641 5
    endloop
  endfacet
  facet normal 0.743145 0.669131 0
    outer loop
      vertex -2.2248 -1.61641 0
      vertex -1.84011 -2.04365 5
      vertex -1.84011 -2.04365 0
    endloop
  endfacet
  facet normal 0.951057 0.309016 0
    outer loop
      vertex -2.51225 -1.11853 5
      vertex -2.68991 -0.571756 0
      vertex -2.68991 -0.571756 5
    endloop
  endfacet
  facet normal 0.951057 0.309016 0
    outer loop
      vertex -2.68991 -0.571756 0
      vertex -2.51225 -1.11853 5
      vertex -2.51225 -1.11853 0
    endloop
  endfacet
  facet normal 0.994522 0.10453 0
    outer loop
      vertex -2.68991 -0.571756 5
      vertex -2.75 0 0
      vertex -2.75 0 5
    endloop
  endfacet
  facet normal 0.994522 0.10453 0
    outer loop
      vertex -2.75 0 0
      vertex -2.68991 -0.571756 5
      vertex -2.68991 -0.571756 0
    endloop
  endfacet
  facet normal -0.743145 0.669131 0
    outer loop
      vertex 1.84011 -2.04365 0
      vertex 2.2248 -1.61641 5
      vertex 2.2248 -1.61641 0
    endloop
  endfacet
  facet normal -0.743145 0.669131 0
    outer loop
      vertex 2.2248 -1.61641 5
      vertex 1.84011 -2.04365 0
      vertex 1.84011 -2.04365 5
    endloop
  endfacet
  facet normal 0.587785 0.809017 -0
    outer loop
      vertex -1.375 -2.38157 0
      vertex -1.84011 -2.04365 5
      vertex -1.375 -2.38157 5
    endloop
  endfacet
  facet normal 0.587785 0.809017 0
    outer loop
      vertex -1.84011 -2.04365 5
      vertex -1.375 -2.38157 0
      vertex -1.84011 -2.04365 0
    endloop
  endfacet
  facet normal 0.406737 0.913545 -0
    outer loop
      vertex -0.849796 -2.61541 0
      vertex -1.375 -2.38157 5
      vertex -0.849796 -2.61541 5
    endloop
  endfacet
  facet normal 0.406737 0.913545 0
    outer loop
      vertex -1.375 -2.38157 5
      vertex -0.849796 -2.61541 0
      vertex -1.375 -2.38157 0
    endloop
  endfacet
  facet normal 1 0 0
    outer loop
      vertex -2.75 4.76314 5
      vertex -2.75 0 5
      vertex -2.75 4.76314 2
    endloop
  endfacet
  facet normal 1 -0 0
    outer loop
      vertex -2.75 4.76314 2
      vertex -2.75 10 0
      vertex -2.75 10 2
    endloop
  endfacet
  facet normal 1 0 0
    outer loop
      vertex -2.75 4.76314 2
      vertex -2.75 0 0
      vertex -2.75 10 0
    endloop
  endfacet
  facet normal 1 0 0
    outer loop
      vertex -2.75 0 0
      vertex -2.75 4.76314 2
      vertex -2.75 0 5
    endloop
  endfacet
  facet normal -1 0 0
    outer loop
      vertex 2.75 10 0
      vertex 2.75 4.76314 2
      vertex 2.75 10 2
    endloop
  endfacet
  facet normal -1 0 0
    outer loop
      vertex 2.75 0 0
      vertex 2.75 4.76314 2
      vertex 2.75 10 0
    endloop
  endfacet
  facet normal -1 0 0
    outer loop
      vertex 2.75 0 5
      vertex 2.75 4.76314 2
      vertex 2.75 0 0
    endloop
  endfacet
  facet normal -1 0 0
    outer loop
      vertex 2.75 4.76314 2
      vertex 2.75 0 5
      vertex 2.75 4.76314 5
    endloop
  endfacet
  facet normal 1 0 0
    outer loop
      vertex 57.25 4.76314 5
      vertex 57.25 0 5
      vertex 57.25 4.76314 2
    endloop
  endfacet
  facet normal 1 -0 0
    outer loop
      vertex 57.25 4.76314 2
      vertex 57.25 10 0
      vertex 57.25 10 2
    endloop
  endfacet
  facet normal 1 0 0
    outer loop
      vertex 57.25 4.76314 2
      vertex 57.25 0 0
      vertex 57.25 10 0
    endloop
  endfacet
  facet normal 1 0 0
    outer loop
      vertex 57.25 0 0
      vertex 57.25 4.76314 2
      vertex 57.25 0 5
    endloop
  endfacet
  facet normal -1 0 0
    outer loop
      vertex 62.75 10 0
      vertex 62.75 4.76314 2
      vertex 62.75 10 2
    endloop
  endfacet
  facet normal -1 0 0
    outer loop
      vertex 62.75 0 0
      vertex 62.75 4.76314 2
      vertex 62.75 10 0
    endloop
  endfacet
  facet normal -1 0 0
    outer loop
      vertex 62.75 0 5
      vertex 62.75 4.76314 2
      vertex 62.75 0 0
    endloop
  endfacet
  facet normal -1 0 0
    outer loop
      vertex 62.75 4.76314 2
      vertex 62.75 0 5
      vertex 62.75 4.76314 5
    endloop
  endfacet
endsolid OpenSCAD_Model
