M48
; DRILL file {KiCad 5.1.5-52549c5~84~ubuntu18.04.1} date Mo 24 Feb 2020 15:43:08 CET
; FORMAT={-:-/ absolute / inch / decimal}
; #@! TF.CreationDate,2020-02-24T15:43:08+01:00
; #@! TF.GenerationSoftware,Kicad,Pcbnew,5.1.5-52549c5~84~ubuntu18.04.1
; #@! TF.FileFunction,Plated,1,2,PTH
FMAT,2
INCH
T1C0.0276
T2C0.0315
T3C0.0354
T4C0.0374
T5C0.0394
%
G90
G05
T1
X4.7819Y-3.1102
X4.8819Y-3.1102
X4.7819Y-2.9134
X4.8819Y-2.9134
X4.8819Y-2.4409
X4.8819Y-2.5409
X4.6244Y-2.3425
X4.7244Y-2.3425
T2
X4.6457Y-2.9134
X4.6457Y-3.1102
T3
X4.7819Y-2.7559
X4.8819Y-2.7559
X4.7819Y-2.6378
X4.8819Y-2.6378
T4
X4.5276Y-2.126
X4.626Y-2.126
X4.7244Y-2.126
T5
X4.153Y-2.6841
X4.153Y-2.7841
X4.153Y-2.8841
X4.153Y-2.9841
X4.153Y-3.0841
X4.153Y-3.1841
X4.153Y-3.2841
X4.153Y-3.3841
X5.053Y-2.6841
X5.053Y-2.7841
X5.053Y-2.8841
X5.053Y-2.9841
X5.053Y-3.0841
X5.053Y-3.1841
X5.053Y-3.2841
X5.053Y-3.3841
X4.1732Y-2.1457
X4.1732Y-2.2441
X5.0Y-2.1457
X5.0Y-2.2441
T0
M30
