G04 #@! TF.GenerationSoftware,KiCad,Pcbnew,5.1.5-52549c5~84~ubuntu18.04.1*
G04 #@! TF.CreationDate,2020-02-24T15:42:57+01:00*
G04 #@! TF.ProjectId,osat_wemos_board,6f736174-5f77-4656-9d6f-735f626f6172,rev?*
G04 #@! TF.SameCoordinates,Original*
G04 #@! TF.FileFunction,Legend,Top*
G04 #@! TF.FilePolarity,Positive*
%FSLAX46Y46*%
G04 Gerber Fmt 4.6, Leading zero omitted, Abs format (unit mm)*
G04 Created by KiCad (PCBNEW 5.1.5-52549c5~84~ubuntu18.04.1) date 2020-02-24 15:42:57*
%MOMM*%
%LPD*%
G04 APERTURE LIST*
%ADD10C,0.150000*%
%ADD11C,0.100000*%
%ADD12C,0.120000*%
G04 APERTURE END LIST*
D10*
X104666666Y-60952380D02*
X104666666Y-59952380D01*
X105047619Y-59952380D01*
X105142857Y-60000000D01*
X105190476Y-60047619D01*
X105238095Y-60142857D01*
X105238095Y-60285714D01*
X105190476Y-60380952D01*
X105142857Y-60428571D01*
X105047619Y-60476190D01*
X104666666Y-60476190D01*
X105571428Y-59952380D02*
X105809523Y-60952380D01*
X106000000Y-60238095D01*
X106190476Y-60952380D01*
X106428571Y-59952380D01*
X107380952Y-60952380D02*
X107047619Y-60476190D01*
X106809523Y-60952380D02*
X106809523Y-59952380D01*
X107190476Y-59952380D01*
X107285714Y-60000000D01*
X107333333Y-60047619D01*
X107380952Y-60142857D01*
X107380952Y-60285714D01*
X107333333Y-60380952D01*
X107285714Y-60428571D01*
X107190476Y-60476190D01*
X106809523Y-60476190D01*
X124119047Y-57071428D02*
X124880952Y-57071428D01*
X124500000Y-57452380D02*
X124500000Y-56690476D01*
X124000000Y-54761904D02*
X123952380Y-54857142D01*
X123952380Y-55000000D01*
X124000000Y-55142857D01*
X124095238Y-55238095D01*
X124190476Y-55285714D01*
X124380952Y-55333333D01*
X124523809Y-55333333D01*
X124714285Y-55285714D01*
X124809523Y-55238095D01*
X124904761Y-55142857D01*
X124952380Y-55000000D01*
X124952380Y-54904761D01*
X124904761Y-54761904D01*
X124857142Y-54714285D01*
X124523809Y-54714285D01*
X124523809Y-54904761D01*
X124952380Y-54285714D02*
X123952380Y-54285714D01*
X124952380Y-53714285D01*
X123952380Y-53714285D01*
X124952380Y-53238095D02*
X123952380Y-53238095D01*
X123952380Y-53000000D01*
X124000000Y-52857142D01*
X124095238Y-52761904D01*
X124190476Y-52714285D01*
X124380952Y-52666666D01*
X124523809Y-52666666D01*
X124714285Y-52714285D01*
X124809523Y-52761904D01*
X124904761Y-52857142D01*
X124952380Y-53000000D01*
X124952380Y-53238095D01*
X119238095Y-57000000D02*
X119142857Y-56952380D01*
X119000000Y-56952380D01*
X118857142Y-57000000D01*
X118761904Y-57095238D01*
X118714285Y-57190476D01*
X118666666Y-57380952D01*
X118666666Y-57523809D01*
X118714285Y-57714285D01*
X118761904Y-57809523D01*
X118857142Y-57904761D01*
X119000000Y-57952380D01*
X119095238Y-57952380D01*
X119238095Y-57904761D01*
X119285714Y-57857142D01*
X119285714Y-57523809D01*
X119095238Y-57523809D01*
X119714285Y-57952380D02*
X119714285Y-56952380D01*
X120285714Y-57952380D01*
X120285714Y-56952380D01*
X120761904Y-57952380D02*
X120761904Y-56952380D01*
X121000000Y-56952380D01*
X121142857Y-57000000D01*
X121238095Y-57095238D01*
X121285714Y-57190476D01*
X121333333Y-57380952D01*
X121333333Y-57523809D01*
X121285714Y-57714285D01*
X121238095Y-57809523D01*
X121142857Y-57904761D01*
X121000000Y-57952380D01*
X120761904Y-57952380D01*
X117214285Y-57904761D02*
X117357142Y-57952380D01*
X117595238Y-57952380D01*
X117690476Y-57904761D01*
X117738095Y-57857142D01*
X117785714Y-57761904D01*
X117785714Y-57666666D01*
X117738095Y-57571428D01*
X117690476Y-57523809D01*
X117595238Y-57476190D01*
X117404761Y-57428571D01*
X117309523Y-57380952D01*
X117261904Y-57333333D01*
X117214285Y-57238095D01*
X117214285Y-57142857D01*
X117261904Y-57047619D01*
X117309523Y-57000000D01*
X117404761Y-56952380D01*
X117642857Y-56952380D01*
X117785714Y-57000000D01*
X114619047Y-57571428D02*
X115380952Y-57571428D01*
X115000000Y-57952380D02*
X115000000Y-57190476D01*
X109238095Y-56500000D02*
X109142857Y-56452380D01*
X109000000Y-56452380D01*
X108857142Y-56500000D01*
X108761904Y-56595238D01*
X108714285Y-56690476D01*
X108666666Y-56880952D01*
X108666666Y-57023809D01*
X108714285Y-57214285D01*
X108761904Y-57309523D01*
X108857142Y-57404761D01*
X109000000Y-57452380D01*
X109095238Y-57452380D01*
X109238095Y-57404761D01*
X109285714Y-57357142D01*
X109285714Y-57023809D01*
X109095238Y-57023809D01*
X109714285Y-57452380D02*
X109714285Y-56452380D01*
X110285714Y-57452380D01*
X110285714Y-56452380D01*
X110761904Y-57452380D02*
X110761904Y-56452380D01*
X111000000Y-56452380D01*
X111142857Y-56500000D01*
X111238095Y-56595238D01*
X111285714Y-56690476D01*
X111333333Y-56880952D01*
X111333333Y-57023809D01*
X111285714Y-57214285D01*
X111238095Y-57309523D01*
X111142857Y-57404761D01*
X111000000Y-57452380D01*
X110761904Y-57452380D01*
X109309523Y-53952380D02*
X108833333Y-53952380D01*
X108785714Y-54428571D01*
X108833333Y-54380952D01*
X108928571Y-54333333D01*
X109166666Y-54333333D01*
X109261904Y-54380952D01*
X109309523Y-54428571D01*
X109357142Y-54523809D01*
X109357142Y-54761904D01*
X109309523Y-54857142D01*
X109261904Y-54904761D01*
X109166666Y-54952380D01*
X108928571Y-54952380D01*
X108833333Y-54904761D01*
X108785714Y-54857142D01*
X109642857Y-53952380D02*
X109976190Y-54952380D01*
X110309523Y-53952380D01*
D11*
X108514285Y-91671428D02*
X108628571Y-91671428D01*
X108685714Y-91700000D01*
X108742857Y-91757142D01*
X108771428Y-91871428D01*
X108771428Y-92071428D01*
X108742857Y-92185714D01*
X108685714Y-92242857D01*
X108628571Y-92271428D01*
X108514285Y-92271428D01*
X108457142Y-92242857D01*
X108400000Y-92185714D01*
X108371428Y-92071428D01*
X108371428Y-91871428D01*
X108400000Y-91757142D01*
X108457142Y-91700000D01*
X108514285Y-91671428D01*
X109000000Y-92242857D02*
X109085714Y-92271428D01*
X109228571Y-92271428D01*
X109285714Y-92242857D01*
X109314285Y-92214285D01*
X109342857Y-92157142D01*
X109342857Y-92100000D01*
X109314285Y-92042857D01*
X109285714Y-92014285D01*
X109228571Y-91985714D01*
X109114285Y-91957142D01*
X109057142Y-91928571D01*
X109028571Y-91900000D01*
X109000000Y-91842857D01*
X109000000Y-91785714D01*
X109028571Y-91728571D01*
X109057142Y-91700000D01*
X109114285Y-91671428D01*
X109257142Y-91671428D01*
X109342857Y-91700000D01*
X109571428Y-92100000D02*
X109857142Y-92100000D01*
X109514285Y-92271428D02*
X109714285Y-91671428D01*
X109914285Y-92271428D01*
X110028571Y-91671428D02*
X110371428Y-91671428D01*
X110200000Y-92271428D02*
X110200000Y-91671428D01*
X111028571Y-92042857D02*
X111485714Y-92042857D01*
X112228571Y-92271428D02*
X112228571Y-91671428D01*
X112457142Y-91671428D01*
X112514285Y-91700000D01*
X112542857Y-91728571D01*
X112571428Y-91785714D01*
X112571428Y-91871428D01*
X112542857Y-91928571D01*
X112514285Y-91957142D01*
X112457142Y-91985714D01*
X112228571Y-91985714D01*
X112828571Y-92271428D02*
X112828571Y-91871428D01*
X112828571Y-91985714D02*
X112857142Y-91928571D01*
X112885714Y-91900000D01*
X112942857Y-91871428D01*
X113000000Y-91871428D01*
X113285714Y-92271428D02*
X113228571Y-92242857D01*
X113200000Y-92214285D01*
X113171428Y-92157142D01*
X113171428Y-91985714D01*
X113200000Y-91928571D01*
X113228571Y-91900000D01*
X113285714Y-91871428D01*
X113371428Y-91871428D01*
X113428571Y-91900000D01*
X113457142Y-91928571D01*
X113485714Y-91985714D01*
X113485714Y-92157142D01*
X113457142Y-92214285D01*
X113428571Y-92242857D01*
X113371428Y-92271428D01*
X113285714Y-92271428D01*
X113657142Y-91871428D02*
X113885714Y-91871428D01*
X113742857Y-91671428D02*
X113742857Y-92185714D01*
X113771428Y-92242857D01*
X113828571Y-92271428D01*
X113885714Y-92271428D01*
X114171428Y-92271428D02*
X114114285Y-92242857D01*
X114085714Y-92214285D01*
X114057142Y-92157142D01*
X114057142Y-91985714D01*
X114085714Y-91928571D01*
X114114285Y-91900000D01*
X114171428Y-91871428D01*
X114257142Y-91871428D01*
X114314285Y-91900000D01*
X114342857Y-91928571D01*
X114371428Y-91985714D01*
X114371428Y-92157142D01*
X114342857Y-92214285D01*
X114314285Y-92242857D01*
X114257142Y-92271428D01*
X114171428Y-92271428D01*
X114542857Y-91871428D02*
X114771428Y-91871428D01*
X114628571Y-91671428D02*
X114628571Y-92185714D01*
X114657142Y-92242857D01*
X114714285Y-92271428D01*
X114771428Y-92271428D01*
X114914285Y-91871428D02*
X115057142Y-92271428D01*
X115200000Y-91871428D02*
X115057142Y-92271428D01*
X115000000Y-92414285D01*
X114971428Y-92442857D01*
X114914285Y-92471428D01*
X115428571Y-91871428D02*
X115428571Y-92471428D01*
X115428571Y-91900000D02*
X115485714Y-91871428D01*
X115600000Y-91871428D01*
X115657142Y-91900000D01*
X115685714Y-91928571D01*
X115714285Y-91985714D01*
X115714285Y-92157142D01*
X115685714Y-92214285D01*
X115657142Y-92242857D01*
X115600000Y-92271428D01*
X115485714Y-92271428D01*
X115428571Y-92242857D01*
X116200000Y-92242857D02*
X116142857Y-92271428D01*
X116028571Y-92271428D01*
X115971428Y-92242857D01*
X115942857Y-92185714D01*
X115942857Y-91957142D01*
X115971428Y-91900000D01*
X116028571Y-91871428D01*
X116142857Y-91871428D01*
X116200000Y-91900000D01*
X116228571Y-91957142D01*
X116228571Y-92014285D01*
X115942857Y-92071428D01*
X116857142Y-91671428D02*
X117057142Y-92271428D01*
X117257142Y-91671428D01*
X117571428Y-91671428D02*
X117628571Y-91671428D01*
X117685714Y-91700000D01*
X117714285Y-91728571D01*
X117742857Y-91785714D01*
X117771428Y-91900000D01*
X117771428Y-92042857D01*
X117742857Y-92157142D01*
X117714285Y-92214285D01*
X117685714Y-92242857D01*
X117628571Y-92271428D01*
X117571428Y-92271428D01*
X117514285Y-92242857D01*
X117485714Y-92214285D01*
X117457142Y-92157142D01*
X117428571Y-92042857D01*
X117428571Y-91900000D01*
X117457142Y-91785714D01*
X117485714Y-91728571D01*
X117514285Y-91700000D01*
X117571428Y-91671428D01*
X118028571Y-92214285D02*
X118057142Y-92242857D01*
X118028571Y-92271428D01*
X118000000Y-92242857D01*
X118028571Y-92214285D01*
X118028571Y-92271428D01*
X118628571Y-92271428D02*
X118285714Y-92271428D01*
X118457142Y-92271428D02*
X118457142Y-91671428D01*
X118400000Y-91757142D01*
X118342857Y-91814285D01*
X118285714Y-91842857D01*
X107500000Y-92871428D02*
X107500000Y-93357142D01*
X107471428Y-93414285D01*
X107442857Y-93442857D01*
X107385714Y-93471428D01*
X107300000Y-93471428D01*
X107242857Y-93442857D01*
X107500000Y-93242857D02*
X107442857Y-93271428D01*
X107328571Y-93271428D01*
X107271428Y-93242857D01*
X107242857Y-93214285D01*
X107214285Y-93157142D01*
X107214285Y-92985714D01*
X107242857Y-92928571D01*
X107271428Y-92900000D01*
X107328571Y-92871428D01*
X107442857Y-92871428D01*
X107500000Y-92900000D01*
X107785714Y-93271428D02*
X107785714Y-92871428D01*
X107785714Y-92671428D02*
X107757142Y-92700000D01*
X107785714Y-92728571D01*
X107814285Y-92700000D01*
X107785714Y-92671428D01*
X107785714Y-92728571D01*
X107985714Y-92871428D02*
X108214285Y-92871428D01*
X108071428Y-92671428D02*
X108071428Y-93185714D01*
X108100000Y-93242857D01*
X108157142Y-93271428D01*
X108214285Y-93271428D01*
X108414285Y-93271428D02*
X108414285Y-92671428D01*
X108671428Y-93271428D02*
X108671428Y-92957142D01*
X108642857Y-92900000D01*
X108585714Y-92871428D01*
X108500000Y-92871428D01*
X108442857Y-92900000D01*
X108414285Y-92928571D01*
X109214285Y-92871428D02*
X109214285Y-93271428D01*
X108957142Y-92871428D02*
X108957142Y-93185714D01*
X108985714Y-93242857D01*
X109042857Y-93271428D01*
X109128571Y-93271428D01*
X109185714Y-93242857D01*
X109214285Y-93214285D01*
X109500000Y-93271428D02*
X109500000Y-92671428D01*
X109500000Y-92900000D02*
X109557142Y-92871428D01*
X109671428Y-92871428D01*
X109728571Y-92900000D01*
X109757142Y-92928571D01*
X109785714Y-92985714D01*
X109785714Y-93157142D01*
X109757142Y-93214285D01*
X109728571Y-93242857D01*
X109671428Y-93271428D01*
X109557142Y-93271428D01*
X109500000Y-93242857D01*
X110042857Y-93214285D02*
X110071428Y-93242857D01*
X110042857Y-93271428D01*
X110014285Y-93242857D01*
X110042857Y-93214285D01*
X110042857Y-93271428D01*
X110585714Y-93242857D02*
X110528571Y-93271428D01*
X110414285Y-93271428D01*
X110357142Y-93242857D01*
X110328571Y-93214285D01*
X110300000Y-93157142D01*
X110300000Y-92985714D01*
X110328571Y-92928571D01*
X110357142Y-92900000D01*
X110414285Y-92871428D01*
X110528571Y-92871428D01*
X110585714Y-92900000D01*
X110928571Y-93271428D02*
X110871428Y-93242857D01*
X110842857Y-93214285D01*
X110814285Y-93157142D01*
X110814285Y-92985714D01*
X110842857Y-92928571D01*
X110871428Y-92900000D01*
X110928571Y-92871428D01*
X111014285Y-92871428D01*
X111071428Y-92900000D01*
X111100000Y-92928571D01*
X111128571Y-92985714D01*
X111128571Y-93157142D01*
X111100000Y-93214285D01*
X111071428Y-93242857D01*
X111014285Y-93271428D01*
X110928571Y-93271428D01*
X111385714Y-93271428D02*
X111385714Y-92871428D01*
X111385714Y-92928571D02*
X111414285Y-92900000D01*
X111471428Y-92871428D01*
X111557142Y-92871428D01*
X111614285Y-92900000D01*
X111642857Y-92957142D01*
X111642857Y-93271428D01*
X111642857Y-92957142D02*
X111671428Y-92900000D01*
X111728571Y-92871428D01*
X111814285Y-92871428D01*
X111871428Y-92900000D01*
X111900000Y-92957142D01*
X111900000Y-93271428D01*
X112614285Y-92642857D02*
X112100000Y-93414285D01*
X112785714Y-93242857D02*
X112842857Y-93271428D01*
X112957142Y-93271428D01*
X113014285Y-93242857D01*
X113042857Y-93185714D01*
X113042857Y-93157142D01*
X113014285Y-93100000D01*
X112957142Y-93071428D01*
X112871428Y-93071428D01*
X112814285Y-93042857D01*
X112785714Y-92985714D01*
X112785714Y-92957142D01*
X112814285Y-92900000D01*
X112871428Y-92871428D01*
X112957142Y-92871428D01*
X113014285Y-92900000D01*
X113557142Y-93242857D02*
X113500000Y-93271428D01*
X113385714Y-93271428D01*
X113328571Y-93242857D01*
X113300000Y-93214285D01*
X113271428Y-93157142D01*
X113271428Y-92985714D01*
X113300000Y-92928571D01*
X113328571Y-92900000D01*
X113385714Y-92871428D01*
X113500000Y-92871428D01*
X113557142Y-92900000D01*
X113814285Y-93271428D02*
X113814285Y-92671428D01*
X114071428Y-93271428D02*
X114071428Y-92957142D01*
X114042857Y-92900000D01*
X113985714Y-92871428D01*
X113900000Y-92871428D01*
X113842857Y-92900000D01*
X113814285Y-92928571D01*
X114357142Y-93271428D02*
X114357142Y-92871428D01*
X114357142Y-92928571D02*
X114385714Y-92900000D01*
X114442857Y-92871428D01*
X114528571Y-92871428D01*
X114585714Y-92900000D01*
X114614285Y-92957142D01*
X114614285Y-93271428D01*
X114614285Y-92957142D02*
X114642857Y-92900000D01*
X114700000Y-92871428D01*
X114785714Y-92871428D01*
X114842857Y-92900000D01*
X114871428Y-92957142D01*
X114871428Y-93271428D01*
X115157142Y-93271428D02*
X115157142Y-92871428D01*
X115157142Y-92671428D02*
X115128571Y-92700000D01*
X115157142Y-92728571D01*
X115185714Y-92700000D01*
X115157142Y-92671428D01*
X115157142Y-92728571D01*
X115700000Y-93271428D02*
X115700000Y-92671428D01*
X115700000Y-93242857D02*
X115642857Y-93271428D01*
X115528571Y-93271428D01*
X115471428Y-93242857D01*
X115442857Y-93214285D01*
X115414285Y-93157142D01*
X115414285Y-92985714D01*
X115442857Y-92928571D01*
X115471428Y-92900000D01*
X115528571Y-92871428D01*
X115642857Y-92871428D01*
X115700000Y-92900000D01*
X116242857Y-93271428D02*
X116242857Y-92671428D01*
X116242857Y-93242857D02*
X116185714Y-93271428D01*
X116071428Y-93271428D01*
X116014285Y-93242857D01*
X115985714Y-93214285D01*
X115957142Y-93157142D01*
X115957142Y-92985714D01*
X115985714Y-92928571D01*
X116014285Y-92900000D01*
X116071428Y-92871428D01*
X116185714Y-92871428D01*
X116242857Y-92900000D01*
X116757142Y-93242857D02*
X116700000Y-93271428D01*
X116585714Y-93271428D01*
X116528571Y-93242857D01*
X116500000Y-93185714D01*
X116500000Y-92957142D01*
X116528571Y-92900000D01*
X116585714Y-92871428D01*
X116700000Y-92871428D01*
X116757142Y-92900000D01*
X116785714Y-92957142D01*
X116785714Y-93014285D01*
X116500000Y-93071428D01*
X116985714Y-92871428D02*
X117128571Y-93271428D01*
X117271428Y-92871428D02*
X117128571Y-93271428D01*
X117071428Y-93414285D01*
X117042857Y-93442857D01*
X116985714Y-93471428D01*
X117928571Y-92642857D02*
X117414285Y-93414285D01*
X118214285Y-93271428D02*
X118157142Y-93242857D01*
X118128571Y-93214285D01*
X118100000Y-93157142D01*
X118100000Y-92985714D01*
X118128571Y-92928571D01*
X118157142Y-92900000D01*
X118214285Y-92871428D01*
X118300000Y-92871428D01*
X118357142Y-92900000D01*
X118385714Y-92928571D01*
X118414285Y-92985714D01*
X118414285Y-93157142D01*
X118385714Y-93214285D01*
X118357142Y-93242857D01*
X118300000Y-93271428D01*
X118214285Y-93271428D01*
X118642857Y-93242857D02*
X118700000Y-93271428D01*
X118814285Y-93271428D01*
X118871428Y-93242857D01*
X118900000Y-93185714D01*
X118900000Y-93157142D01*
X118871428Y-93100000D01*
X118814285Y-93071428D01*
X118728571Y-93071428D01*
X118671428Y-93042857D01*
X118642857Y-92985714D01*
X118642857Y-92957142D01*
X118671428Y-92900000D01*
X118728571Y-92871428D01*
X118814285Y-92871428D01*
X118871428Y-92900000D01*
X119414285Y-93271428D02*
X119414285Y-92957142D01*
X119385714Y-92900000D01*
X119328571Y-92871428D01*
X119214285Y-92871428D01*
X119157142Y-92900000D01*
X119414285Y-93242857D02*
X119357142Y-93271428D01*
X119214285Y-93271428D01*
X119157142Y-93242857D01*
X119128571Y-93185714D01*
X119128571Y-93128571D01*
X119157142Y-93071428D01*
X119214285Y-93042857D01*
X119357142Y-93042857D01*
X119414285Y-93014285D01*
X119614285Y-92871428D02*
X119842857Y-92871428D01*
X119700000Y-92671428D02*
X119700000Y-93185714D01*
X119728571Y-93242857D01*
X119785714Y-93271428D01*
X119842857Y-93271428D01*
D12*
X106525001Y-94295001D02*
X129845001Y-94295001D01*
X103985001Y-87395001D02*
X103985001Y-61965001D01*
X129845001Y-94295001D02*
X129845001Y-61965001D01*
X127725001Y-59835001D02*
X106115001Y-59835001D01*
D10*
G36*
X102945001Y-67540001D02*
G01*
X102945001Y-68810001D01*
X103580001Y-68175001D01*
X102945001Y-67540001D01*
G37*
X102945001Y-67540001D02*
X102945001Y-68810001D01*
X103580001Y-68175001D01*
X102945001Y-67540001D01*
D12*
X103985001Y-87395001D02*
X106525001Y-87395001D01*
X106525001Y-87395001D02*
X106525001Y-94295001D01*
X103985001Y-61965001D02*
G75*
G02X106115001Y-59835001I2130000J0D01*
G01*
X127715001Y-59835001D02*
G75*
G02X129845001Y-61965001I0J-2130000D01*
G01*
X119070000Y-74230000D02*
X119070000Y-78770000D01*
X116930000Y-74230000D02*
X116930000Y-78770000D01*
X119070000Y-74230000D02*
X119055000Y-74230000D01*
X116945000Y-74230000D02*
X116930000Y-74230000D01*
X119070000Y-78770000D02*
X119055000Y-78770000D01*
X116945000Y-78770000D02*
X116930000Y-78770000D01*
X125290000Y-59610000D02*
X129310000Y-59610000D01*
X129310000Y-59610000D02*
X129310000Y-51890000D01*
X129310000Y-51890000D02*
X125290000Y-51890000D01*
X125290000Y-51890000D02*
X125290000Y-59610000D01*
X127000000Y-59610000D02*
X127000000Y-59110000D01*
X127000000Y-59110000D02*
X125790000Y-59110000D01*
X125790000Y-59110000D02*
X125790000Y-52390000D01*
X125790000Y-52390000D02*
X127000000Y-52390000D01*
X127000000Y-52390000D02*
X127000000Y-51890000D01*
X127810000Y-59610000D02*
X127810000Y-58610000D01*
X127810000Y-58610000D02*
X129310000Y-58610000D01*
X127810000Y-51890000D02*
X127810000Y-52890000D01*
X127810000Y-52890000D02*
X129310000Y-52890000D01*
X127110000Y-59910000D02*
X129610000Y-59910000D01*
X129610000Y-59910000D02*
X129610000Y-57410000D01*
X108610000Y-59910000D02*
X108610000Y-57410000D01*
X106110000Y-59910000D02*
X108610000Y-59910000D01*
X106810000Y-52890000D02*
X108310000Y-52890000D01*
X106810000Y-51890000D02*
X106810000Y-52890000D01*
X106810000Y-58610000D02*
X108310000Y-58610000D01*
X106810000Y-59610000D02*
X106810000Y-58610000D01*
X106000000Y-52390000D02*
X106000000Y-51890000D01*
X104790000Y-52390000D02*
X106000000Y-52390000D01*
X104790000Y-59110000D02*
X104790000Y-52390000D01*
X106000000Y-59110000D02*
X104790000Y-59110000D01*
X106000000Y-59610000D02*
X106000000Y-59110000D01*
X104290000Y-51890000D02*
X104290000Y-59610000D01*
X108310000Y-51890000D02*
X104290000Y-51890000D01*
X108310000Y-59610000D02*
X108310000Y-51890000D01*
X104290000Y-59610000D02*
X108310000Y-59610000D01*
X112390000Y-52290000D02*
X112390000Y-56310000D01*
X112390000Y-56310000D02*
X122610000Y-56310000D01*
X122610000Y-56310000D02*
X122610000Y-52290000D01*
X122610000Y-52290000D02*
X112390000Y-52290000D01*
X112390000Y-54000000D02*
X112890000Y-54000000D01*
X112890000Y-54000000D02*
X112890000Y-52790000D01*
X112890000Y-52790000D02*
X122110000Y-52790000D01*
X122110000Y-52790000D02*
X122110000Y-54000000D01*
X122110000Y-54000000D02*
X122610000Y-54000000D01*
X112390000Y-54810000D02*
X113390000Y-54810000D01*
X113390000Y-54810000D02*
X113390000Y-56310000D01*
X122610000Y-54810000D02*
X121610000Y-54810000D01*
X121610000Y-54810000D02*
X121610000Y-56310000D01*
X112090000Y-54110000D02*
X112090000Y-56610000D01*
X112090000Y-56610000D02*
X114590000Y-56610000D01*
X124920000Y-79000000D02*
G75*
G03X124920000Y-79000000I-920000J0D01*
G01*
X123080000Y-79000000D02*
X122460000Y-79000000D01*
X124920000Y-74000000D02*
G75*
G03X124920000Y-74000000I-920000J0D01*
G01*
X123080000Y-74000000D02*
X122460000Y-74000000D01*
X124000000Y-62920000D02*
X124000000Y-63540000D01*
X124920000Y-62000000D02*
G75*
G03X124920000Y-62000000I-920000J0D01*
G01*
X118380000Y-59500000D02*
X119000000Y-59500000D01*
X118380000Y-59500000D02*
G75*
G03X118380000Y-59500000I-920000J0D01*
G01*
X122946150Y-66031134D02*
G75*
G02X122886761Y-67900000I1053850J-968866D01*
G01*
X122946150Y-69031134D02*
G75*
G02X122886761Y-70900000I1053850J-968866D01*
G01*
D10*
X123690476Y-91452380D02*
X123690476Y-90452380D01*
X124023809Y-91166666D01*
X124357142Y-90452380D01*
X124357142Y-91452380D01*
X124785714Y-90547619D02*
X124833333Y-90500000D01*
X124928571Y-90452380D01*
X125166666Y-90452380D01*
X125261904Y-90500000D01*
X125309523Y-90547619D01*
X125357142Y-90642857D01*
X125357142Y-90738095D01*
X125309523Y-90880952D01*
X124738095Y-91452380D01*
X125357142Y-91452380D01*
X106190476Y-63952380D02*
X106190476Y-62952380D01*
X106523809Y-63666666D01*
X106857142Y-62952380D01*
X106857142Y-63952380D01*
X107285714Y-63047619D02*
X107333333Y-63000000D01*
X107428571Y-62952380D01*
X107666666Y-62952380D01*
X107761904Y-63000000D01*
X107809523Y-63047619D01*
X107857142Y-63142857D01*
X107857142Y-63238095D01*
X107809523Y-63380952D01*
X107238095Y-63952380D01*
X107857142Y-63952380D01*
X126238095Y-92452380D02*
X126238095Y-93261904D01*
X126285714Y-93357142D01*
X126333333Y-93404761D01*
X126428571Y-93452380D01*
X126619047Y-93452380D01*
X126714285Y-93404761D01*
X126761904Y-93357142D01*
X126809523Y-93261904D01*
X126809523Y-92452380D01*
X127809523Y-93452380D02*
X127238095Y-93452380D01*
X127523809Y-93452380D02*
X127523809Y-92452380D01*
X127428571Y-92595238D01*
X127333333Y-92690476D01*
X127238095Y-92738095D01*
X120557142Y-76666666D02*
X120604761Y-76714285D01*
X120652380Y-76857142D01*
X120652380Y-76952380D01*
X120604761Y-77095238D01*
X120509523Y-77190476D01*
X120414285Y-77238095D01*
X120223809Y-77285714D01*
X120080952Y-77285714D01*
X119890476Y-77238095D01*
X119795238Y-77190476D01*
X119700000Y-77095238D01*
X119652380Y-76952380D01*
X119652380Y-76857142D01*
X119700000Y-76714285D01*
X119747619Y-76666666D01*
X120652380Y-75714285D02*
X120652380Y-76285714D01*
X120652380Y-76000000D02*
X119652380Y-76000000D01*
X119795238Y-76095238D01*
X119890476Y-76190476D01*
X119938095Y-76285714D01*
X123952380Y-59333333D02*
X124666666Y-59333333D01*
X124809523Y-59380952D01*
X124904761Y-59476190D01*
X124952380Y-59619047D01*
X124952380Y-59714285D01*
X124952380Y-58333333D02*
X124952380Y-58904761D01*
X124952380Y-58619047D02*
X123952380Y-58619047D01*
X124095238Y-58714285D01*
X124190476Y-58809523D01*
X124238095Y-58904761D01*
X108666666Y-59952380D02*
X108666666Y-60666666D01*
X108619047Y-60809523D01*
X108523809Y-60904761D01*
X108380952Y-60952380D01*
X108285714Y-60952380D01*
X109095238Y-60047619D02*
X109142857Y-60000000D01*
X109238095Y-59952380D01*
X109476190Y-59952380D01*
X109571428Y-60000000D01*
X109619047Y-60047619D01*
X109666666Y-60142857D01*
X109666666Y-60238095D01*
X109619047Y-60380952D01*
X109047619Y-60952380D01*
X109666666Y-60952380D01*
X112166666Y-56952380D02*
X112166666Y-57666666D01*
X112119047Y-57809523D01*
X112023809Y-57904761D01*
X111880952Y-57952380D01*
X111785714Y-57952380D01*
X112547619Y-56952380D02*
X113166666Y-56952380D01*
X112833333Y-57333333D01*
X112976190Y-57333333D01*
X113071428Y-57380952D01*
X113119047Y-57428571D01*
X113166666Y-57523809D01*
X113166666Y-57761904D01*
X113119047Y-57857142D01*
X113071428Y-57904761D01*
X112976190Y-57952380D01*
X112690476Y-57952380D01*
X112595238Y-57904761D01*
X112547619Y-57857142D01*
X122563333Y-81372380D02*
X122230000Y-80896190D01*
X121991904Y-81372380D02*
X121991904Y-80372380D01*
X122372857Y-80372380D01*
X122468095Y-80420000D01*
X122515714Y-80467619D01*
X122563333Y-80562857D01*
X122563333Y-80705714D01*
X122515714Y-80800952D01*
X122468095Y-80848571D01*
X122372857Y-80896190D01*
X121991904Y-80896190D01*
X123515714Y-81372380D02*
X122944285Y-81372380D01*
X123230000Y-81372380D02*
X123230000Y-80372380D01*
X123134761Y-80515238D01*
X123039523Y-80610476D01*
X122944285Y-80658095D01*
X122563333Y-76372380D02*
X122230000Y-75896190D01*
X121991904Y-76372380D02*
X121991904Y-75372380D01*
X122372857Y-75372380D01*
X122468095Y-75420000D01*
X122515714Y-75467619D01*
X122563333Y-75562857D01*
X122563333Y-75705714D01*
X122515714Y-75800952D01*
X122468095Y-75848571D01*
X122372857Y-75896190D01*
X121991904Y-75896190D01*
X122944285Y-75467619D02*
X122991904Y-75420000D01*
X123087142Y-75372380D01*
X123325238Y-75372380D01*
X123420476Y-75420000D01*
X123468095Y-75467619D01*
X123515714Y-75562857D01*
X123515714Y-75658095D01*
X123468095Y-75800952D01*
X122896666Y-76372380D01*
X123515714Y-76372380D01*
X126372380Y-63436666D02*
X125896190Y-63770000D01*
X126372380Y-64008095D02*
X125372380Y-64008095D01*
X125372380Y-63627142D01*
X125420000Y-63531904D01*
X125467619Y-63484285D01*
X125562857Y-63436666D01*
X125705714Y-63436666D01*
X125800952Y-63484285D01*
X125848571Y-63531904D01*
X125896190Y-63627142D01*
X125896190Y-64008095D01*
X125372380Y-63103333D02*
X125372380Y-62484285D01*
X125753333Y-62817619D01*
X125753333Y-62674761D01*
X125800952Y-62579523D01*
X125848571Y-62531904D01*
X125943809Y-62484285D01*
X126181904Y-62484285D01*
X126277142Y-62531904D01*
X126324761Y-62579523D01*
X126372380Y-62674761D01*
X126372380Y-62960476D01*
X126324761Y-63055714D01*
X126277142Y-63103333D01*
X114833333Y-60952380D02*
X114500000Y-60476190D01*
X114261904Y-60952380D02*
X114261904Y-59952380D01*
X114642857Y-59952380D01*
X114738095Y-60000000D01*
X114785714Y-60047619D01*
X114833333Y-60142857D01*
X114833333Y-60285714D01*
X114785714Y-60380952D01*
X114738095Y-60428571D01*
X114642857Y-60476190D01*
X114261904Y-60476190D01*
X115690476Y-60285714D02*
X115690476Y-60952380D01*
X115452380Y-59904761D02*
X115214285Y-60619047D01*
X115833333Y-60619047D01*
X118261904Y-67452380D02*
X118261904Y-66452380D01*
X118500000Y-66452380D01*
X118642857Y-66500000D01*
X118738095Y-66595238D01*
X118785714Y-66690476D01*
X118833333Y-66880952D01*
X118833333Y-67023809D01*
X118785714Y-67214285D01*
X118738095Y-67309523D01*
X118642857Y-67404761D01*
X118500000Y-67452380D01*
X118261904Y-67452380D01*
X119785714Y-67452380D02*
X119214285Y-67452380D01*
X119500000Y-67452380D02*
X119500000Y-66452380D01*
X119404761Y-66595238D01*
X119309523Y-66690476D01*
X119214285Y-66738095D01*
X118261904Y-70452380D02*
X118261904Y-69452380D01*
X118500000Y-69452380D01*
X118642857Y-69500000D01*
X118738095Y-69595238D01*
X118785714Y-69690476D01*
X118833333Y-69880952D01*
X118833333Y-70023809D01*
X118785714Y-70214285D01*
X118738095Y-70309523D01*
X118642857Y-70404761D01*
X118500000Y-70452380D01*
X118261904Y-70452380D01*
X119214285Y-69547619D02*
X119261904Y-69500000D01*
X119357142Y-69452380D01*
X119595238Y-69452380D01*
X119690476Y-69500000D01*
X119738095Y-69547619D01*
X119785714Y-69642857D01*
X119785714Y-69738095D01*
X119738095Y-69880952D01*
X119166666Y-70452380D01*
X119785714Y-70452380D01*
M02*
