G04 #@! TF.GenerationSoftware,KiCad,Pcbnew,5.1.5-52549c5~84~ubuntu18.04.1*
G04 #@! TF.CreationDate,2020-02-24T15:42:57+01:00*
G04 #@! TF.ProjectId,osat_wemos_board,6f736174-5f77-4656-9d6f-735f626f6172,rev?*
G04 #@! TF.SameCoordinates,Original*
G04 #@! TF.FileFunction,Legend,Bot*
G04 #@! TF.FilePolarity,Positive*
%FSLAX46Y46*%
G04 Gerber Fmt 4.6, Leading zero omitted, Abs format (unit mm)*
G04 Created by KiCad (PCBNEW 5.1.5-52549c5~84~ubuntu18.04.1) date 2020-02-24 15:42:57*
%MOMM*%
%LPD*%
G04 APERTURE LIST*
%ADD10C,0.100000*%
G04 APERTURE END LIST*
D10*
X116485714Y-91171428D02*
X116371428Y-91171428D01*
X116314285Y-91200000D01*
X116257142Y-91257142D01*
X116228571Y-91371428D01*
X116228571Y-91571428D01*
X116257142Y-91685714D01*
X116314285Y-91742857D01*
X116371428Y-91771428D01*
X116485714Y-91771428D01*
X116542857Y-91742857D01*
X116600000Y-91685714D01*
X116628571Y-91571428D01*
X116628571Y-91371428D01*
X116600000Y-91257142D01*
X116542857Y-91200000D01*
X116485714Y-91171428D01*
X116000000Y-91742857D02*
X115914285Y-91771428D01*
X115771428Y-91771428D01*
X115714285Y-91742857D01*
X115685714Y-91714285D01*
X115657142Y-91657142D01*
X115657142Y-91600000D01*
X115685714Y-91542857D01*
X115714285Y-91514285D01*
X115771428Y-91485714D01*
X115885714Y-91457142D01*
X115942857Y-91428571D01*
X115971428Y-91400000D01*
X116000000Y-91342857D01*
X116000000Y-91285714D01*
X115971428Y-91228571D01*
X115942857Y-91200000D01*
X115885714Y-91171428D01*
X115742857Y-91171428D01*
X115657142Y-91200000D01*
X115428571Y-91600000D02*
X115142857Y-91600000D01*
X115485714Y-91771428D02*
X115285714Y-91171428D01*
X115085714Y-91771428D01*
X114971428Y-91171428D02*
X114628571Y-91171428D01*
X114800000Y-91771428D02*
X114800000Y-91171428D01*
X113971428Y-91542857D02*
X113514285Y-91542857D01*
X112771428Y-91771428D02*
X112771428Y-91171428D01*
X112542857Y-91171428D01*
X112485714Y-91200000D01*
X112457142Y-91228571D01*
X112428571Y-91285714D01*
X112428571Y-91371428D01*
X112457142Y-91428571D01*
X112485714Y-91457142D01*
X112542857Y-91485714D01*
X112771428Y-91485714D01*
X112171428Y-91771428D02*
X112171428Y-91371428D01*
X112171428Y-91485714D02*
X112142857Y-91428571D01*
X112114285Y-91400000D01*
X112057142Y-91371428D01*
X112000000Y-91371428D01*
X111714285Y-91771428D02*
X111771428Y-91742857D01*
X111800000Y-91714285D01*
X111828571Y-91657142D01*
X111828571Y-91485714D01*
X111800000Y-91428571D01*
X111771428Y-91400000D01*
X111714285Y-91371428D01*
X111628571Y-91371428D01*
X111571428Y-91400000D01*
X111542857Y-91428571D01*
X111514285Y-91485714D01*
X111514285Y-91657142D01*
X111542857Y-91714285D01*
X111571428Y-91742857D01*
X111628571Y-91771428D01*
X111714285Y-91771428D01*
X111342857Y-91371428D02*
X111114285Y-91371428D01*
X111257142Y-91171428D02*
X111257142Y-91685714D01*
X111228571Y-91742857D01*
X111171428Y-91771428D01*
X111114285Y-91771428D01*
X110828571Y-91771428D02*
X110885714Y-91742857D01*
X110914285Y-91714285D01*
X110942857Y-91657142D01*
X110942857Y-91485714D01*
X110914285Y-91428571D01*
X110885714Y-91400000D01*
X110828571Y-91371428D01*
X110742857Y-91371428D01*
X110685714Y-91400000D01*
X110657142Y-91428571D01*
X110628571Y-91485714D01*
X110628571Y-91657142D01*
X110657142Y-91714285D01*
X110685714Y-91742857D01*
X110742857Y-91771428D01*
X110828571Y-91771428D01*
X110457142Y-91371428D02*
X110228571Y-91371428D01*
X110371428Y-91171428D02*
X110371428Y-91685714D01*
X110342857Y-91742857D01*
X110285714Y-91771428D01*
X110228571Y-91771428D01*
X110085714Y-91371428D02*
X109942857Y-91771428D01*
X109800000Y-91371428D02*
X109942857Y-91771428D01*
X110000000Y-91914285D01*
X110028571Y-91942857D01*
X110085714Y-91971428D01*
X109571428Y-91371428D02*
X109571428Y-91971428D01*
X109571428Y-91400000D02*
X109514285Y-91371428D01*
X109400000Y-91371428D01*
X109342857Y-91400000D01*
X109314285Y-91428571D01*
X109285714Y-91485714D01*
X109285714Y-91657142D01*
X109314285Y-91714285D01*
X109342857Y-91742857D01*
X109400000Y-91771428D01*
X109514285Y-91771428D01*
X109571428Y-91742857D01*
X108800000Y-91742857D02*
X108857142Y-91771428D01*
X108971428Y-91771428D01*
X109028571Y-91742857D01*
X109057142Y-91685714D01*
X109057142Y-91457142D01*
X109028571Y-91400000D01*
X108971428Y-91371428D01*
X108857142Y-91371428D01*
X108800000Y-91400000D01*
X108771428Y-91457142D01*
X108771428Y-91514285D01*
X109057142Y-91571428D01*
X108142857Y-91171428D02*
X107942857Y-91771428D01*
X107742857Y-91171428D01*
X107428571Y-91171428D02*
X107371428Y-91171428D01*
X107314285Y-91200000D01*
X107285714Y-91228571D01*
X107257142Y-91285714D01*
X107228571Y-91400000D01*
X107228571Y-91542857D01*
X107257142Y-91657142D01*
X107285714Y-91714285D01*
X107314285Y-91742857D01*
X107371428Y-91771428D01*
X107428571Y-91771428D01*
X107485714Y-91742857D01*
X107514285Y-91714285D01*
X107542857Y-91657142D01*
X107571428Y-91542857D01*
X107571428Y-91400000D01*
X107542857Y-91285714D01*
X107514285Y-91228571D01*
X107485714Y-91200000D01*
X107428571Y-91171428D01*
X106971428Y-91714285D02*
X106942857Y-91742857D01*
X106971428Y-91771428D01*
X107000000Y-91742857D01*
X106971428Y-91714285D01*
X106971428Y-91771428D01*
X106371428Y-91771428D02*
X106714285Y-91771428D01*
X106542857Y-91771428D02*
X106542857Y-91171428D01*
X106600000Y-91257142D01*
X106657142Y-91314285D01*
X106714285Y-91342857D01*
X117500000Y-92371428D02*
X117500000Y-92857142D01*
X117528571Y-92914285D01*
X117557142Y-92942857D01*
X117614285Y-92971428D01*
X117700000Y-92971428D01*
X117757142Y-92942857D01*
X117500000Y-92742857D02*
X117557142Y-92771428D01*
X117671428Y-92771428D01*
X117728571Y-92742857D01*
X117757142Y-92714285D01*
X117785714Y-92657142D01*
X117785714Y-92485714D01*
X117757142Y-92428571D01*
X117728571Y-92400000D01*
X117671428Y-92371428D01*
X117557142Y-92371428D01*
X117500000Y-92400000D01*
X117214285Y-92771428D02*
X117214285Y-92371428D01*
X117214285Y-92171428D02*
X117242857Y-92200000D01*
X117214285Y-92228571D01*
X117185714Y-92200000D01*
X117214285Y-92171428D01*
X117214285Y-92228571D01*
X117014285Y-92371428D02*
X116785714Y-92371428D01*
X116928571Y-92171428D02*
X116928571Y-92685714D01*
X116900000Y-92742857D01*
X116842857Y-92771428D01*
X116785714Y-92771428D01*
X116585714Y-92771428D02*
X116585714Y-92171428D01*
X116328571Y-92771428D02*
X116328571Y-92457142D01*
X116357142Y-92400000D01*
X116414285Y-92371428D01*
X116500000Y-92371428D01*
X116557142Y-92400000D01*
X116585714Y-92428571D01*
X115785714Y-92371428D02*
X115785714Y-92771428D01*
X116042857Y-92371428D02*
X116042857Y-92685714D01*
X116014285Y-92742857D01*
X115957142Y-92771428D01*
X115871428Y-92771428D01*
X115814285Y-92742857D01*
X115785714Y-92714285D01*
X115500000Y-92771428D02*
X115500000Y-92171428D01*
X115500000Y-92400000D02*
X115442857Y-92371428D01*
X115328571Y-92371428D01*
X115271428Y-92400000D01*
X115242857Y-92428571D01*
X115214285Y-92485714D01*
X115214285Y-92657142D01*
X115242857Y-92714285D01*
X115271428Y-92742857D01*
X115328571Y-92771428D01*
X115442857Y-92771428D01*
X115500000Y-92742857D01*
X114957142Y-92714285D02*
X114928571Y-92742857D01*
X114957142Y-92771428D01*
X114985714Y-92742857D01*
X114957142Y-92714285D01*
X114957142Y-92771428D01*
X114414285Y-92742857D02*
X114471428Y-92771428D01*
X114585714Y-92771428D01*
X114642857Y-92742857D01*
X114671428Y-92714285D01*
X114700000Y-92657142D01*
X114700000Y-92485714D01*
X114671428Y-92428571D01*
X114642857Y-92400000D01*
X114585714Y-92371428D01*
X114471428Y-92371428D01*
X114414285Y-92400000D01*
X114071428Y-92771428D02*
X114128571Y-92742857D01*
X114157142Y-92714285D01*
X114185714Y-92657142D01*
X114185714Y-92485714D01*
X114157142Y-92428571D01*
X114128571Y-92400000D01*
X114071428Y-92371428D01*
X113985714Y-92371428D01*
X113928571Y-92400000D01*
X113900000Y-92428571D01*
X113871428Y-92485714D01*
X113871428Y-92657142D01*
X113900000Y-92714285D01*
X113928571Y-92742857D01*
X113985714Y-92771428D01*
X114071428Y-92771428D01*
X113614285Y-92771428D02*
X113614285Y-92371428D01*
X113614285Y-92428571D02*
X113585714Y-92400000D01*
X113528571Y-92371428D01*
X113442857Y-92371428D01*
X113385714Y-92400000D01*
X113357142Y-92457142D01*
X113357142Y-92771428D01*
X113357142Y-92457142D02*
X113328571Y-92400000D01*
X113271428Y-92371428D01*
X113185714Y-92371428D01*
X113128571Y-92400000D01*
X113100000Y-92457142D01*
X113100000Y-92771428D01*
X112385714Y-92142857D02*
X112900000Y-92914285D01*
X112214285Y-92742857D02*
X112157142Y-92771428D01*
X112042857Y-92771428D01*
X111985714Y-92742857D01*
X111957142Y-92685714D01*
X111957142Y-92657142D01*
X111985714Y-92600000D01*
X112042857Y-92571428D01*
X112128571Y-92571428D01*
X112185714Y-92542857D01*
X112214285Y-92485714D01*
X112214285Y-92457142D01*
X112185714Y-92400000D01*
X112128571Y-92371428D01*
X112042857Y-92371428D01*
X111985714Y-92400000D01*
X111442857Y-92742857D02*
X111500000Y-92771428D01*
X111614285Y-92771428D01*
X111671428Y-92742857D01*
X111700000Y-92714285D01*
X111728571Y-92657142D01*
X111728571Y-92485714D01*
X111700000Y-92428571D01*
X111671428Y-92400000D01*
X111614285Y-92371428D01*
X111500000Y-92371428D01*
X111442857Y-92400000D01*
X111185714Y-92771428D02*
X111185714Y-92171428D01*
X110928571Y-92771428D02*
X110928571Y-92457142D01*
X110957142Y-92400000D01*
X111014285Y-92371428D01*
X111100000Y-92371428D01*
X111157142Y-92400000D01*
X111185714Y-92428571D01*
X110642857Y-92771428D02*
X110642857Y-92371428D01*
X110642857Y-92428571D02*
X110614285Y-92400000D01*
X110557142Y-92371428D01*
X110471428Y-92371428D01*
X110414285Y-92400000D01*
X110385714Y-92457142D01*
X110385714Y-92771428D01*
X110385714Y-92457142D02*
X110357142Y-92400000D01*
X110300000Y-92371428D01*
X110214285Y-92371428D01*
X110157142Y-92400000D01*
X110128571Y-92457142D01*
X110128571Y-92771428D01*
X109842857Y-92771428D02*
X109842857Y-92371428D01*
X109842857Y-92171428D02*
X109871428Y-92200000D01*
X109842857Y-92228571D01*
X109814285Y-92200000D01*
X109842857Y-92171428D01*
X109842857Y-92228571D01*
X109300000Y-92771428D02*
X109300000Y-92171428D01*
X109300000Y-92742857D02*
X109357142Y-92771428D01*
X109471428Y-92771428D01*
X109528571Y-92742857D01*
X109557142Y-92714285D01*
X109585714Y-92657142D01*
X109585714Y-92485714D01*
X109557142Y-92428571D01*
X109528571Y-92400000D01*
X109471428Y-92371428D01*
X109357142Y-92371428D01*
X109300000Y-92400000D01*
X108757142Y-92771428D02*
X108757142Y-92171428D01*
X108757142Y-92742857D02*
X108814285Y-92771428D01*
X108928571Y-92771428D01*
X108985714Y-92742857D01*
X109014285Y-92714285D01*
X109042857Y-92657142D01*
X109042857Y-92485714D01*
X109014285Y-92428571D01*
X108985714Y-92400000D01*
X108928571Y-92371428D01*
X108814285Y-92371428D01*
X108757142Y-92400000D01*
X108242857Y-92742857D02*
X108300000Y-92771428D01*
X108414285Y-92771428D01*
X108471428Y-92742857D01*
X108500000Y-92685714D01*
X108500000Y-92457142D01*
X108471428Y-92400000D01*
X108414285Y-92371428D01*
X108300000Y-92371428D01*
X108242857Y-92400000D01*
X108214285Y-92457142D01*
X108214285Y-92514285D01*
X108500000Y-92571428D01*
X108014285Y-92371428D02*
X107871428Y-92771428D01*
X107728571Y-92371428D02*
X107871428Y-92771428D01*
X107928571Y-92914285D01*
X107957142Y-92942857D01*
X108014285Y-92971428D01*
X107071428Y-92142857D02*
X107585714Y-92914285D01*
X106785714Y-92771428D02*
X106842857Y-92742857D01*
X106871428Y-92714285D01*
X106900000Y-92657142D01*
X106900000Y-92485714D01*
X106871428Y-92428571D01*
X106842857Y-92400000D01*
X106785714Y-92371428D01*
X106700000Y-92371428D01*
X106642857Y-92400000D01*
X106614285Y-92428571D01*
X106585714Y-92485714D01*
X106585714Y-92657142D01*
X106614285Y-92714285D01*
X106642857Y-92742857D01*
X106700000Y-92771428D01*
X106785714Y-92771428D01*
X106357142Y-92742857D02*
X106300000Y-92771428D01*
X106185714Y-92771428D01*
X106128571Y-92742857D01*
X106100000Y-92685714D01*
X106100000Y-92657142D01*
X106128571Y-92600000D01*
X106185714Y-92571428D01*
X106271428Y-92571428D01*
X106328571Y-92542857D01*
X106357142Y-92485714D01*
X106357142Y-92457142D01*
X106328571Y-92400000D01*
X106271428Y-92371428D01*
X106185714Y-92371428D01*
X106128571Y-92400000D01*
X105585714Y-92771428D02*
X105585714Y-92457142D01*
X105614285Y-92400000D01*
X105671428Y-92371428D01*
X105785714Y-92371428D01*
X105842857Y-92400000D01*
X105585714Y-92742857D02*
X105642857Y-92771428D01*
X105785714Y-92771428D01*
X105842857Y-92742857D01*
X105871428Y-92685714D01*
X105871428Y-92628571D01*
X105842857Y-92571428D01*
X105785714Y-92542857D01*
X105642857Y-92542857D01*
X105585714Y-92514285D01*
X105385714Y-92371428D02*
X105157142Y-92371428D01*
X105300000Y-92171428D02*
X105300000Y-92685714D01*
X105271428Y-92742857D01*
X105214285Y-92771428D01*
X105157142Y-92771428D01*
M02*
