G04 #@! TF.GenerationSoftware,KiCad,Pcbnew,5.1.5-52549c5~84~ubuntu18.04.1*
G04 #@! TF.CreationDate,2020-02-24T15:42:57+01:00*
G04 #@! TF.ProjectId,osat_wemos_board,6f736174-5f77-4656-9d6f-735f626f6172,rev?*
G04 #@! TF.SameCoordinates,Original*
G04 #@! TF.FileFunction,Soldermask,Top*
G04 #@! TF.FilePolarity,Negative*
%FSLAX46Y46*%
G04 Gerber Fmt 4.6, Leading zero omitted, Abs format (unit mm)*
G04 Created by KiCad (PCBNEW 5.1.5-52549c5~84~ubuntu18.04.1) date 2020-02-24 15:42:57*
%MOMM*%
%LPD*%
G04 APERTURE LIST*
%ADD10C,0.100000*%
G04 APERTURE END LIST*
D10*
G36*
X121224549Y-88871116D02*
G01*
X121335734Y-88893232D01*
X121545203Y-88979997D01*
X121733720Y-89105960D01*
X121894040Y-89266280D01*
X122020003Y-89454797D01*
X122106768Y-89664266D01*
X122151000Y-89886636D01*
X122151000Y-90113364D01*
X122106768Y-90335734D01*
X122020003Y-90545203D01*
X121894040Y-90733720D01*
X121733720Y-90894040D01*
X121545203Y-91020003D01*
X121335734Y-91106768D01*
X121224549Y-91128884D01*
X121113365Y-91151000D01*
X120886635Y-91151000D01*
X120775451Y-91128884D01*
X120664266Y-91106768D01*
X120454797Y-91020003D01*
X120266280Y-90894040D01*
X120105960Y-90733720D01*
X119979997Y-90545203D01*
X119893232Y-90335734D01*
X119849000Y-90113364D01*
X119849000Y-89886636D01*
X119893232Y-89664266D01*
X119979997Y-89454797D01*
X120105960Y-89266280D01*
X120266280Y-89105960D01*
X120454797Y-88979997D01*
X120664266Y-88893232D01*
X120775451Y-88871116D01*
X120886635Y-88849000D01*
X121113365Y-88849000D01*
X121224549Y-88871116D01*
G37*
G36*
X128711824Y-85116314D02*
G01*
X128872243Y-85164977D01*
X129004907Y-85235887D01*
X129020079Y-85243997D01*
X129149660Y-85350342D01*
X129256005Y-85479923D01*
X129256006Y-85479925D01*
X129335025Y-85627759D01*
X129383688Y-85788178D01*
X129400118Y-85955001D01*
X129383688Y-86121824D01*
X129335025Y-86282243D01*
X129264115Y-86414907D01*
X129256005Y-86430079D01*
X129149660Y-86559660D01*
X129020079Y-86666005D01*
X129020077Y-86666006D01*
X128872243Y-86745025D01*
X128711824Y-86793688D01*
X128586805Y-86806001D01*
X128103197Y-86806001D01*
X127978178Y-86793688D01*
X127817759Y-86745025D01*
X127669925Y-86666006D01*
X127669923Y-86666005D01*
X127540342Y-86559660D01*
X127433997Y-86430079D01*
X127425887Y-86414907D01*
X127354977Y-86282243D01*
X127306314Y-86121824D01*
X127289884Y-85955001D01*
X127306314Y-85788178D01*
X127354977Y-85627759D01*
X127433996Y-85479925D01*
X127433997Y-85479923D01*
X127540342Y-85350342D01*
X127669923Y-85243997D01*
X127685095Y-85235887D01*
X127817759Y-85164977D01*
X127978178Y-85116314D01*
X128103197Y-85104001D01*
X128586805Y-85104001D01*
X128711824Y-85116314D01*
G37*
G36*
X105851824Y-85116314D02*
G01*
X106012243Y-85164977D01*
X106144907Y-85235887D01*
X106160079Y-85243997D01*
X106289660Y-85350342D01*
X106396005Y-85479923D01*
X106396006Y-85479925D01*
X106475025Y-85627759D01*
X106523688Y-85788178D01*
X106540118Y-85955001D01*
X106523688Y-86121824D01*
X106475025Y-86282243D01*
X106404115Y-86414907D01*
X106396005Y-86430079D01*
X106289660Y-86559660D01*
X106160079Y-86666005D01*
X106160077Y-86666006D01*
X106012243Y-86745025D01*
X105851824Y-86793688D01*
X105726805Y-86806001D01*
X105243197Y-86806001D01*
X105118178Y-86793688D01*
X104957759Y-86745025D01*
X104809925Y-86666006D01*
X104809923Y-86666005D01*
X104680342Y-86559660D01*
X104573997Y-86430079D01*
X104565887Y-86414907D01*
X104494977Y-86282243D01*
X104446314Y-86121824D01*
X104429884Y-85955001D01*
X104446314Y-85788178D01*
X104494977Y-85627759D01*
X104573996Y-85479925D01*
X104573997Y-85479923D01*
X104680342Y-85350342D01*
X104809923Y-85243997D01*
X104825095Y-85235887D01*
X104957759Y-85164977D01*
X105118178Y-85116314D01*
X105243197Y-85104001D01*
X105726805Y-85104001D01*
X105851824Y-85116314D01*
G37*
G36*
X105851824Y-82576314D02*
G01*
X106012243Y-82624977D01*
X106144907Y-82695887D01*
X106160079Y-82703997D01*
X106289660Y-82810342D01*
X106396005Y-82939923D01*
X106396006Y-82939925D01*
X106475025Y-83087759D01*
X106523688Y-83248178D01*
X106540118Y-83415001D01*
X106523688Y-83581824D01*
X106475025Y-83742243D01*
X106404115Y-83874907D01*
X106396005Y-83890079D01*
X106289660Y-84019660D01*
X106160079Y-84126005D01*
X106160077Y-84126006D01*
X106012243Y-84205025D01*
X105851824Y-84253688D01*
X105726805Y-84266001D01*
X105243197Y-84266001D01*
X105118178Y-84253688D01*
X104957759Y-84205025D01*
X104809925Y-84126006D01*
X104809923Y-84126005D01*
X104680342Y-84019660D01*
X104573997Y-83890079D01*
X104565887Y-83874907D01*
X104494977Y-83742243D01*
X104446314Y-83581824D01*
X104429884Y-83415001D01*
X104446314Y-83248178D01*
X104494977Y-83087759D01*
X104573996Y-82939925D01*
X104573997Y-82939923D01*
X104680342Y-82810342D01*
X104809923Y-82703997D01*
X104825095Y-82695887D01*
X104957759Y-82624977D01*
X105118178Y-82576314D01*
X105243197Y-82564001D01*
X105726805Y-82564001D01*
X105851824Y-82576314D01*
G37*
G36*
X128711824Y-82576314D02*
G01*
X128872243Y-82624977D01*
X129004907Y-82695887D01*
X129020079Y-82703997D01*
X129149660Y-82810342D01*
X129256005Y-82939923D01*
X129256006Y-82939925D01*
X129335025Y-83087759D01*
X129383688Y-83248178D01*
X129400118Y-83415001D01*
X129383688Y-83581824D01*
X129335025Y-83742243D01*
X129264115Y-83874907D01*
X129256005Y-83890079D01*
X129149660Y-84019660D01*
X129020079Y-84126005D01*
X129020077Y-84126006D01*
X128872243Y-84205025D01*
X128711824Y-84253688D01*
X128586805Y-84266001D01*
X128103197Y-84266001D01*
X127978178Y-84253688D01*
X127817759Y-84205025D01*
X127669925Y-84126006D01*
X127669923Y-84126005D01*
X127540342Y-84019660D01*
X127433997Y-83890079D01*
X127425887Y-83874907D01*
X127354977Y-83742243D01*
X127306314Y-83581824D01*
X127289884Y-83415001D01*
X127306314Y-83248178D01*
X127354977Y-83087759D01*
X127433996Y-82939925D01*
X127433997Y-82939923D01*
X127540342Y-82810342D01*
X127669923Y-82703997D01*
X127685095Y-82695887D01*
X127817759Y-82624977D01*
X127978178Y-82576314D01*
X128103197Y-82564001D01*
X128586805Y-82564001D01*
X128711824Y-82576314D01*
G37*
G36*
X105851824Y-80036314D02*
G01*
X106012243Y-80084977D01*
X106144907Y-80155887D01*
X106160079Y-80163997D01*
X106289660Y-80270342D01*
X106396005Y-80399923D01*
X106396006Y-80399925D01*
X106475025Y-80547759D01*
X106523688Y-80708178D01*
X106540118Y-80875001D01*
X106523688Y-81041824D01*
X106475025Y-81202243D01*
X106404115Y-81334907D01*
X106396005Y-81350079D01*
X106289660Y-81479660D01*
X106160079Y-81586005D01*
X106160077Y-81586006D01*
X106012243Y-81665025D01*
X105851824Y-81713688D01*
X105726805Y-81726001D01*
X105243197Y-81726001D01*
X105118178Y-81713688D01*
X104957759Y-81665025D01*
X104809925Y-81586006D01*
X104809923Y-81586005D01*
X104680342Y-81479660D01*
X104573997Y-81350079D01*
X104565887Y-81334907D01*
X104494977Y-81202243D01*
X104446314Y-81041824D01*
X104429884Y-80875001D01*
X104446314Y-80708178D01*
X104494977Y-80547759D01*
X104573996Y-80399925D01*
X104573997Y-80399923D01*
X104680342Y-80270342D01*
X104809923Y-80163997D01*
X104825095Y-80155887D01*
X104957759Y-80084977D01*
X105118178Y-80036314D01*
X105243197Y-80024001D01*
X105726805Y-80024001D01*
X105851824Y-80036314D01*
G37*
G36*
X128711824Y-80036314D02*
G01*
X128872243Y-80084977D01*
X129004907Y-80155887D01*
X129020079Y-80163997D01*
X129149660Y-80270342D01*
X129256005Y-80399923D01*
X129256006Y-80399925D01*
X129335025Y-80547759D01*
X129383688Y-80708178D01*
X129400118Y-80875001D01*
X129383688Y-81041824D01*
X129335025Y-81202243D01*
X129264115Y-81334907D01*
X129256005Y-81350079D01*
X129149660Y-81479660D01*
X129020079Y-81586005D01*
X129020077Y-81586006D01*
X128872243Y-81665025D01*
X128711824Y-81713688D01*
X128586805Y-81726001D01*
X128103197Y-81726001D01*
X127978178Y-81713688D01*
X127817759Y-81665025D01*
X127669925Y-81586006D01*
X127669923Y-81586005D01*
X127540342Y-81479660D01*
X127433997Y-81350079D01*
X127425887Y-81334907D01*
X127354977Y-81202243D01*
X127306314Y-81041824D01*
X127289884Y-80875001D01*
X127306314Y-80708178D01*
X127354977Y-80547759D01*
X127433996Y-80399925D01*
X127433997Y-80399923D01*
X127540342Y-80270342D01*
X127669923Y-80163997D01*
X127685095Y-80155887D01*
X127817759Y-80084977D01*
X127978178Y-80036314D01*
X128103197Y-80024001D01*
X128586805Y-80024001D01*
X128711824Y-80036314D01*
G37*
G36*
X118248228Y-78181703D02*
G01*
X118403100Y-78245853D01*
X118542481Y-78338985D01*
X118661015Y-78457519D01*
X118754147Y-78596900D01*
X118818297Y-78751772D01*
X118851000Y-78916184D01*
X118851000Y-79083816D01*
X118818297Y-79248228D01*
X118754147Y-79403100D01*
X118661015Y-79542481D01*
X118542481Y-79661015D01*
X118403100Y-79754147D01*
X118248228Y-79818297D01*
X118083816Y-79851000D01*
X117916184Y-79851000D01*
X117751772Y-79818297D01*
X117596900Y-79754147D01*
X117457519Y-79661015D01*
X117338985Y-79542481D01*
X117245853Y-79403100D01*
X117181703Y-79248228D01*
X117149000Y-79083816D01*
X117149000Y-78916184D01*
X117181703Y-78751772D01*
X117245853Y-78596900D01*
X117338985Y-78457519D01*
X117457519Y-78338985D01*
X117596900Y-78245853D01*
X117751772Y-78181703D01*
X117916184Y-78149000D01*
X118083816Y-78149000D01*
X118248228Y-78181703D01*
G37*
G36*
X124219059Y-78277860D02*
G01*
X124355732Y-78334472D01*
X124478735Y-78416660D01*
X124583340Y-78521265D01*
X124665528Y-78644268D01*
X124722140Y-78780941D01*
X124751000Y-78926033D01*
X124751000Y-79073967D01*
X124722140Y-79219059D01*
X124665528Y-79355732D01*
X124583340Y-79478735D01*
X124478735Y-79583340D01*
X124355732Y-79665528D01*
X124355731Y-79665529D01*
X124355730Y-79665529D01*
X124219059Y-79722140D01*
X124073968Y-79751000D01*
X123926032Y-79751000D01*
X123780941Y-79722140D01*
X123644270Y-79665529D01*
X123644269Y-79665529D01*
X123644268Y-79665528D01*
X123521265Y-79583340D01*
X123416660Y-79478735D01*
X123334472Y-79355732D01*
X123277860Y-79219059D01*
X123249000Y-79073967D01*
X123249000Y-78926033D01*
X123277860Y-78780941D01*
X123334472Y-78644268D01*
X123416660Y-78521265D01*
X123521265Y-78416660D01*
X123644268Y-78334472D01*
X123780941Y-78277860D01*
X123926032Y-78249000D01*
X124073968Y-78249000D01*
X124219059Y-78277860D01*
G37*
G36*
X121679059Y-78277860D02*
G01*
X121815732Y-78334472D01*
X121938735Y-78416660D01*
X122043340Y-78521265D01*
X122125528Y-78644268D01*
X122182140Y-78780941D01*
X122211000Y-78926033D01*
X122211000Y-79073967D01*
X122182140Y-79219059D01*
X122125528Y-79355732D01*
X122043340Y-79478735D01*
X121938735Y-79583340D01*
X121815732Y-79665528D01*
X121815731Y-79665529D01*
X121815730Y-79665529D01*
X121679059Y-79722140D01*
X121533968Y-79751000D01*
X121386032Y-79751000D01*
X121240941Y-79722140D01*
X121104270Y-79665529D01*
X121104269Y-79665529D01*
X121104268Y-79665528D01*
X120981265Y-79583340D01*
X120876660Y-79478735D01*
X120794472Y-79355732D01*
X120737860Y-79219059D01*
X120709000Y-79073967D01*
X120709000Y-78926033D01*
X120737860Y-78780941D01*
X120794472Y-78644268D01*
X120876660Y-78521265D01*
X120981265Y-78416660D01*
X121104268Y-78334472D01*
X121240941Y-78277860D01*
X121386032Y-78249000D01*
X121533968Y-78249000D01*
X121679059Y-78277860D01*
G37*
G36*
X105851824Y-77496314D02*
G01*
X106012243Y-77544977D01*
X106144907Y-77615887D01*
X106160079Y-77623997D01*
X106289660Y-77730342D01*
X106396005Y-77859923D01*
X106396006Y-77859925D01*
X106475025Y-78007759D01*
X106523688Y-78168178D01*
X106540118Y-78335001D01*
X106523688Y-78501824D01*
X106475025Y-78662243D01*
X106404115Y-78794907D01*
X106396005Y-78810079D01*
X106289660Y-78939660D01*
X106160079Y-79046005D01*
X106160077Y-79046006D01*
X106012243Y-79125025D01*
X105851824Y-79173688D01*
X105726805Y-79186001D01*
X105243197Y-79186001D01*
X105118178Y-79173688D01*
X104957759Y-79125025D01*
X104809925Y-79046006D01*
X104809923Y-79046005D01*
X104680342Y-78939660D01*
X104573997Y-78810079D01*
X104565887Y-78794907D01*
X104494977Y-78662243D01*
X104446314Y-78501824D01*
X104429884Y-78335001D01*
X104446314Y-78168178D01*
X104494977Y-78007759D01*
X104573996Y-77859925D01*
X104573997Y-77859923D01*
X104680342Y-77730342D01*
X104809923Y-77623997D01*
X104825095Y-77615887D01*
X104957759Y-77544977D01*
X105118178Y-77496314D01*
X105243197Y-77484001D01*
X105726805Y-77484001D01*
X105851824Y-77496314D01*
G37*
G36*
X128711824Y-77496314D02*
G01*
X128872243Y-77544977D01*
X129004907Y-77615887D01*
X129020079Y-77623997D01*
X129149660Y-77730342D01*
X129256005Y-77859923D01*
X129256006Y-77859925D01*
X129335025Y-78007759D01*
X129383688Y-78168178D01*
X129400118Y-78335001D01*
X129383688Y-78501824D01*
X129335025Y-78662243D01*
X129264115Y-78794907D01*
X129256005Y-78810079D01*
X129149660Y-78939660D01*
X129020079Y-79046005D01*
X129020077Y-79046006D01*
X128872243Y-79125025D01*
X128711824Y-79173688D01*
X128586805Y-79186001D01*
X128103197Y-79186001D01*
X127978178Y-79173688D01*
X127817759Y-79125025D01*
X127669925Y-79046006D01*
X127669923Y-79046005D01*
X127540342Y-78939660D01*
X127433997Y-78810079D01*
X127425887Y-78794907D01*
X127354977Y-78662243D01*
X127306314Y-78501824D01*
X127289884Y-78335001D01*
X127306314Y-78168178D01*
X127354977Y-78007759D01*
X127433996Y-77859925D01*
X127433997Y-77859923D01*
X127540342Y-77730342D01*
X127669923Y-77623997D01*
X127685095Y-77615887D01*
X127817759Y-77544977D01*
X127978178Y-77496314D01*
X128103197Y-77484001D01*
X128586805Y-77484001D01*
X128711824Y-77496314D01*
G37*
G36*
X128711824Y-74956314D02*
G01*
X128872243Y-75004977D01*
X129004907Y-75075887D01*
X129020079Y-75083997D01*
X129149660Y-75190342D01*
X129256005Y-75319923D01*
X129256006Y-75319925D01*
X129335025Y-75467759D01*
X129383688Y-75628178D01*
X129400118Y-75795001D01*
X129383688Y-75961824D01*
X129335025Y-76122243D01*
X129264115Y-76254907D01*
X129256005Y-76270079D01*
X129149660Y-76399660D01*
X129020079Y-76506005D01*
X129020077Y-76506006D01*
X128872243Y-76585025D01*
X128711824Y-76633688D01*
X128586805Y-76646001D01*
X128103197Y-76646001D01*
X127978178Y-76633688D01*
X127817759Y-76585025D01*
X127669925Y-76506006D01*
X127669923Y-76506005D01*
X127540342Y-76399660D01*
X127433997Y-76270079D01*
X127425887Y-76254907D01*
X127354977Y-76122243D01*
X127306314Y-75961824D01*
X127289884Y-75795001D01*
X127306314Y-75628178D01*
X127354977Y-75467759D01*
X127433996Y-75319925D01*
X127433997Y-75319923D01*
X127540342Y-75190342D01*
X127669923Y-75083997D01*
X127685095Y-75075887D01*
X127817759Y-75004977D01*
X127978178Y-74956314D01*
X128103197Y-74944001D01*
X128586805Y-74944001D01*
X128711824Y-74956314D01*
G37*
G36*
X105851824Y-74956314D02*
G01*
X106012243Y-75004977D01*
X106144907Y-75075887D01*
X106160079Y-75083997D01*
X106289660Y-75190342D01*
X106396005Y-75319923D01*
X106396006Y-75319925D01*
X106475025Y-75467759D01*
X106523688Y-75628178D01*
X106540118Y-75795001D01*
X106523688Y-75961824D01*
X106475025Y-76122243D01*
X106404115Y-76254907D01*
X106396005Y-76270079D01*
X106289660Y-76399660D01*
X106160079Y-76506005D01*
X106160077Y-76506006D01*
X106012243Y-76585025D01*
X105851824Y-76633688D01*
X105726805Y-76646001D01*
X105243197Y-76646001D01*
X105118178Y-76633688D01*
X104957759Y-76585025D01*
X104809925Y-76506006D01*
X104809923Y-76506005D01*
X104680342Y-76399660D01*
X104573997Y-76270079D01*
X104565887Y-76254907D01*
X104494977Y-76122243D01*
X104446314Y-75961824D01*
X104429884Y-75795001D01*
X104446314Y-75628178D01*
X104494977Y-75467759D01*
X104573996Y-75319925D01*
X104573997Y-75319923D01*
X104680342Y-75190342D01*
X104809923Y-75083997D01*
X104825095Y-75075887D01*
X104957759Y-75004977D01*
X105118178Y-74956314D01*
X105243197Y-74944001D01*
X105726805Y-74944001D01*
X105851824Y-74956314D01*
G37*
G36*
X118248228Y-73181703D02*
G01*
X118403100Y-73245853D01*
X118542481Y-73338985D01*
X118661015Y-73457519D01*
X118754147Y-73596900D01*
X118818297Y-73751772D01*
X118851000Y-73916184D01*
X118851000Y-74083816D01*
X118818297Y-74248228D01*
X118754147Y-74403100D01*
X118661015Y-74542481D01*
X118542481Y-74661015D01*
X118403100Y-74754147D01*
X118248228Y-74818297D01*
X118083816Y-74851000D01*
X117916184Y-74851000D01*
X117751772Y-74818297D01*
X117596900Y-74754147D01*
X117457519Y-74661015D01*
X117338985Y-74542481D01*
X117245853Y-74403100D01*
X117181703Y-74248228D01*
X117149000Y-74083816D01*
X117149000Y-73916184D01*
X117181703Y-73751772D01*
X117245853Y-73596900D01*
X117338985Y-73457519D01*
X117457519Y-73338985D01*
X117596900Y-73245853D01*
X117751772Y-73181703D01*
X117916184Y-73149000D01*
X118083816Y-73149000D01*
X118248228Y-73181703D01*
G37*
G36*
X124104137Y-73255001D02*
G01*
X124219059Y-73277860D01*
X124355732Y-73334472D01*
X124478735Y-73416660D01*
X124583340Y-73521265D01*
X124665528Y-73644268D01*
X124665529Y-73644270D01*
X124722140Y-73780941D01*
X124751000Y-73926032D01*
X124751000Y-74073968D01*
X124744628Y-74106001D01*
X124722140Y-74219059D01*
X124665528Y-74355732D01*
X124583340Y-74478735D01*
X124478735Y-74583340D01*
X124355732Y-74665528D01*
X124355731Y-74665529D01*
X124355730Y-74665529D01*
X124219059Y-74722140D01*
X124073968Y-74751000D01*
X123926032Y-74751000D01*
X123780941Y-74722140D01*
X123644270Y-74665529D01*
X123644269Y-74665529D01*
X123644268Y-74665528D01*
X123521265Y-74583340D01*
X123416660Y-74478735D01*
X123334472Y-74355732D01*
X123277860Y-74219059D01*
X123255372Y-74106001D01*
X123249000Y-74073968D01*
X123249000Y-73926032D01*
X123277860Y-73780941D01*
X123334471Y-73644270D01*
X123334472Y-73644268D01*
X123416660Y-73521265D01*
X123521265Y-73416660D01*
X123644268Y-73334472D01*
X123780941Y-73277860D01*
X123895863Y-73255001D01*
X123926032Y-73249000D01*
X124073968Y-73249000D01*
X124104137Y-73255001D01*
G37*
G36*
X121564137Y-73255001D02*
G01*
X121679059Y-73277860D01*
X121815732Y-73334472D01*
X121938735Y-73416660D01*
X122043340Y-73521265D01*
X122125528Y-73644268D01*
X122125529Y-73644270D01*
X122182140Y-73780941D01*
X122211000Y-73926032D01*
X122211000Y-74073968D01*
X122204628Y-74106001D01*
X122182140Y-74219059D01*
X122125528Y-74355732D01*
X122043340Y-74478735D01*
X121938735Y-74583340D01*
X121815732Y-74665528D01*
X121815731Y-74665529D01*
X121815730Y-74665529D01*
X121679059Y-74722140D01*
X121533968Y-74751000D01*
X121386032Y-74751000D01*
X121240941Y-74722140D01*
X121104270Y-74665529D01*
X121104269Y-74665529D01*
X121104268Y-74665528D01*
X120981265Y-74583340D01*
X120876660Y-74478735D01*
X120794472Y-74355732D01*
X120737860Y-74219059D01*
X120715372Y-74106001D01*
X120709000Y-74073968D01*
X120709000Y-73926032D01*
X120737860Y-73780941D01*
X120794471Y-73644270D01*
X120794472Y-73644268D01*
X120876660Y-73521265D01*
X120981265Y-73416660D01*
X121104268Y-73334472D01*
X121240941Y-73277860D01*
X121355863Y-73255001D01*
X121386032Y-73249000D01*
X121533968Y-73249000D01*
X121564137Y-73255001D01*
G37*
G36*
X128711824Y-72416314D02*
G01*
X128872243Y-72464977D01*
X129004907Y-72535887D01*
X129020079Y-72543997D01*
X129149660Y-72650342D01*
X129256005Y-72779923D01*
X129256006Y-72779925D01*
X129335025Y-72927759D01*
X129383688Y-73088178D01*
X129400118Y-73255001D01*
X129383688Y-73421824D01*
X129335025Y-73582243D01*
X129327189Y-73596903D01*
X129256005Y-73730079D01*
X129149660Y-73859660D01*
X129020079Y-73966005D01*
X129020077Y-73966006D01*
X128872243Y-74045025D01*
X128711824Y-74093688D01*
X128586805Y-74106001D01*
X128103197Y-74106001D01*
X127978178Y-74093688D01*
X127817759Y-74045025D01*
X127669925Y-73966006D01*
X127669923Y-73966005D01*
X127540342Y-73859660D01*
X127433997Y-73730079D01*
X127362813Y-73596903D01*
X127354977Y-73582243D01*
X127306314Y-73421824D01*
X127289884Y-73255001D01*
X127306314Y-73088178D01*
X127354977Y-72927759D01*
X127433996Y-72779925D01*
X127433997Y-72779923D01*
X127540342Y-72650342D01*
X127669923Y-72543997D01*
X127685095Y-72535887D01*
X127817759Y-72464977D01*
X127978178Y-72416314D01*
X128103197Y-72404001D01*
X128586805Y-72404001D01*
X128711824Y-72416314D01*
G37*
G36*
X105851824Y-72416314D02*
G01*
X106012243Y-72464977D01*
X106144907Y-72535887D01*
X106160079Y-72543997D01*
X106289660Y-72650342D01*
X106396005Y-72779923D01*
X106396006Y-72779925D01*
X106475025Y-72927759D01*
X106523688Y-73088178D01*
X106540118Y-73255001D01*
X106523688Y-73421824D01*
X106475025Y-73582243D01*
X106467189Y-73596903D01*
X106396005Y-73730079D01*
X106289660Y-73859660D01*
X106160079Y-73966005D01*
X106160077Y-73966006D01*
X106012243Y-74045025D01*
X105851824Y-74093688D01*
X105726805Y-74106001D01*
X105243197Y-74106001D01*
X105118178Y-74093688D01*
X104957759Y-74045025D01*
X104809925Y-73966006D01*
X104809923Y-73966005D01*
X104680342Y-73859660D01*
X104573997Y-73730079D01*
X104502813Y-73596903D01*
X104494977Y-73582243D01*
X104446314Y-73421824D01*
X104429884Y-73255001D01*
X104446314Y-73088178D01*
X104494977Y-72927759D01*
X104573996Y-72779925D01*
X104573997Y-72779923D01*
X104680342Y-72650342D01*
X104809923Y-72543997D01*
X104825095Y-72535887D01*
X104957759Y-72464977D01*
X105118178Y-72416314D01*
X105243197Y-72404001D01*
X105726805Y-72404001D01*
X105851824Y-72416314D01*
G37*
G36*
X128711824Y-69876314D02*
G01*
X128872243Y-69924977D01*
X129004907Y-69995887D01*
X129020079Y-70003997D01*
X129149660Y-70110342D01*
X129256005Y-70239923D01*
X129256006Y-70239925D01*
X129335025Y-70387759D01*
X129383688Y-70548178D01*
X129400118Y-70715001D01*
X129383688Y-70881824D01*
X129335025Y-71042243D01*
X129264115Y-71174907D01*
X129256005Y-71190079D01*
X129149660Y-71319660D01*
X129020079Y-71426005D01*
X129020077Y-71426006D01*
X128872243Y-71505025D01*
X128711824Y-71553688D01*
X128586805Y-71566001D01*
X128103197Y-71566001D01*
X127978178Y-71553688D01*
X127817759Y-71505025D01*
X127669925Y-71426006D01*
X127669923Y-71426005D01*
X127540342Y-71319660D01*
X127433997Y-71190079D01*
X127425887Y-71174907D01*
X127354977Y-71042243D01*
X127306314Y-70881824D01*
X127289884Y-70715001D01*
X127306314Y-70548178D01*
X127354977Y-70387759D01*
X127433996Y-70239925D01*
X127433997Y-70239923D01*
X127540342Y-70110342D01*
X127669923Y-70003997D01*
X127685095Y-69995887D01*
X127817759Y-69924977D01*
X127978178Y-69876314D01*
X128103197Y-69864001D01*
X128586805Y-69864001D01*
X128711824Y-69876314D01*
G37*
G36*
X105851824Y-69876314D02*
G01*
X106012243Y-69924977D01*
X106144907Y-69995887D01*
X106160079Y-70003997D01*
X106289660Y-70110342D01*
X106396005Y-70239923D01*
X106396006Y-70239925D01*
X106475025Y-70387759D01*
X106523688Y-70548178D01*
X106540118Y-70715001D01*
X106523688Y-70881824D01*
X106475025Y-71042243D01*
X106404115Y-71174907D01*
X106396005Y-71190079D01*
X106289660Y-71319660D01*
X106160079Y-71426005D01*
X106160077Y-71426006D01*
X106012243Y-71505025D01*
X105851824Y-71553688D01*
X105726805Y-71566001D01*
X105243197Y-71566001D01*
X105118178Y-71553688D01*
X104957759Y-71505025D01*
X104809925Y-71426006D01*
X104809923Y-71426005D01*
X104680342Y-71319660D01*
X104573997Y-71190079D01*
X104565887Y-71174907D01*
X104494977Y-71042243D01*
X104446314Y-70881824D01*
X104429884Y-70715001D01*
X104446314Y-70548178D01*
X104494977Y-70387759D01*
X104573996Y-70239925D01*
X104573997Y-70239923D01*
X104680342Y-70110342D01*
X104809923Y-70003997D01*
X104825095Y-69995887D01*
X104957759Y-69924977D01*
X105118178Y-69876314D01*
X105243197Y-69864001D01*
X105726805Y-69864001D01*
X105851824Y-69876314D01*
G37*
G36*
X124951000Y-70951000D02*
G01*
X123049000Y-70951000D01*
X123049000Y-69049000D01*
X124951000Y-69049000D01*
X124951000Y-70951000D01*
G37*
G36*
X121737395Y-69085546D02*
G01*
X121910466Y-69157234D01*
X121910467Y-69157235D01*
X122066227Y-69261310D01*
X122198690Y-69393773D01*
X122198691Y-69393775D01*
X122302766Y-69549534D01*
X122374454Y-69722605D01*
X122411000Y-69906333D01*
X122411000Y-70093667D01*
X122374454Y-70277395D01*
X122302766Y-70450466D01*
X122302765Y-70450467D01*
X122198690Y-70606227D01*
X122066227Y-70738690D01*
X121987818Y-70791081D01*
X121910466Y-70842766D01*
X121737395Y-70914454D01*
X121553667Y-70951000D01*
X121366333Y-70951000D01*
X121182605Y-70914454D01*
X121009534Y-70842766D01*
X120932182Y-70791081D01*
X120853773Y-70738690D01*
X120721310Y-70606227D01*
X120617235Y-70450467D01*
X120617234Y-70450466D01*
X120545546Y-70277395D01*
X120509000Y-70093667D01*
X120509000Y-69906333D01*
X120545546Y-69722605D01*
X120617234Y-69549534D01*
X120721309Y-69393775D01*
X120721310Y-69393773D01*
X120853773Y-69261310D01*
X121009533Y-69157235D01*
X121009534Y-69157234D01*
X121182605Y-69085546D01*
X121366333Y-69049000D01*
X121553667Y-69049000D01*
X121737395Y-69085546D01*
G37*
G36*
X106536001Y-69226001D02*
G01*
X104434001Y-69226001D01*
X104434001Y-67124001D01*
X106536001Y-67124001D01*
X106536001Y-69226001D01*
G37*
G36*
X128711824Y-67336314D02*
G01*
X128872243Y-67384977D01*
X128994764Y-67450466D01*
X129020079Y-67463997D01*
X129149660Y-67570342D01*
X129256005Y-67699923D01*
X129256006Y-67699925D01*
X129335025Y-67847759D01*
X129383688Y-68008178D01*
X129400118Y-68175001D01*
X129383688Y-68341824D01*
X129335025Y-68502243D01*
X129264115Y-68634907D01*
X129256005Y-68650079D01*
X129149660Y-68779660D01*
X129020079Y-68886005D01*
X129020077Y-68886006D01*
X128872243Y-68965025D01*
X128711824Y-69013688D01*
X128586805Y-69026001D01*
X128103197Y-69026001D01*
X127978178Y-69013688D01*
X127817759Y-68965025D01*
X127669925Y-68886006D01*
X127669923Y-68886005D01*
X127540342Y-68779660D01*
X127433997Y-68650079D01*
X127425887Y-68634907D01*
X127354977Y-68502243D01*
X127306314Y-68341824D01*
X127289884Y-68175001D01*
X127306314Y-68008178D01*
X127354977Y-67847759D01*
X127433996Y-67699925D01*
X127433997Y-67699923D01*
X127540342Y-67570342D01*
X127669923Y-67463997D01*
X127695238Y-67450466D01*
X127817759Y-67384977D01*
X127978178Y-67336314D01*
X128103197Y-67324001D01*
X128586805Y-67324001D01*
X128711824Y-67336314D01*
G37*
G36*
X124951000Y-67951000D02*
G01*
X123049000Y-67951000D01*
X123049000Y-66049000D01*
X124951000Y-66049000D01*
X124951000Y-67951000D01*
G37*
G36*
X121737395Y-66085546D02*
G01*
X121910466Y-66157234D01*
X121910467Y-66157235D01*
X122066227Y-66261310D01*
X122198690Y-66393773D01*
X122198691Y-66393775D01*
X122302766Y-66549534D01*
X122374454Y-66722605D01*
X122411000Y-66906333D01*
X122411000Y-67093667D01*
X122374454Y-67277395D01*
X122302766Y-67450466D01*
X122293725Y-67463997D01*
X122198690Y-67606227D01*
X122066227Y-67738690D01*
X121987818Y-67791081D01*
X121910466Y-67842766D01*
X121737395Y-67914454D01*
X121553667Y-67951000D01*
X121366333Y-67951000D01*
X121182605Y-67914454D01*
X121009534Y-67842766D01*
X120932182Y-67791081D01*
X120853773Y-67738690D01*
X120721310Y-67606227D01*
X120626275Y-67463997D01*
X120617234Y-67450466D01*
X120545546Y-67277395D01*
X120509000Y-67093667D01*
X120509000Y-66906333D01*
X120545546Y-66722605D01*
X120617234Y-66549534D01*
X120721309Y-66393775D01*
X120721310Y-66393773D01*
X120853773Y-66261310D01*
X121009533Y-66157235D01*
X121009534Y-66157234D01*
X121182605Y-66085546D01*
X121366333Y-66049000D01*
X121553667Y-66049000D01*
X121737395Y-66085546D01*
G37*
G36*
X124219059Y-63817860D02*
G01*
X124355732Y-63874472D01*
X124478735Y-63956660D01*
X124583340Y-64061265D01*
X124665528Y-64184268D01*
X124722140Y-64320941D01*
X124751000Y-64466033D01*
X124751000Y-64613967D01*
X124722140Y-64759059D01*
X124665528Y-64895732D01*
X124583340Y-65018735D01*
X124478735Y-65123340D01*
X124355732Y-65205528D01*
X124355731Y-65205529D01*
X124355730Y-65205529D01*
X124219059Y-65262140D01*
X124073968Y-65291000D01*
X123926032Y-65291000D01*
X123780941Y-65262140D01*
X123644270Y-65205529D01*
X123644269Y-65205529D01*
X123644268Y-65205528D01*
X123521265Y-65123340D01*
X123416660Y-65018735D01*
X123334472Y-64895732D01*
X123277860Y-64759059D01*
X123249000Y-64613967D01*
X123249000Y-64466033D01*
X123277860Y-64320941D01*
X123334472Y-64184268D01*
X123416660Y-64061265D01*
X123521265Y-63956660D01*
X123644268Y-63874472D01*
X123780941Y-63817860D01*
X123926032Y-63789000D01*
X124073968Y-63789000D01*
X124219059Y-63817860D01*
G37*
G36*
X111224549Y-62371116D02*
G01*
X111335734Y-62393232D01*
X111483850Y-62454584D01*
X111542157Y-62478735D01*
X111545203Y-62479997D01*
X111733720Y-62605960D01*
X111894040Y-62766280D01*
X112020003Y-62954797D01*
X112106768Y-63164266D01*
X112151000Y-63386636D01*
X112151000Y-63613364D01*
X112106768Y-63835734D01*
X112020003Y-64045203D01*
X111894040Y-64233720D01*
X111733720Y-64394040D01*
X111545203Y-64520003D01*
X111335734Y-64606768D01*
X111224549Y-64628884D01*
X111113365Y-64651000D01*
X110886635Y-64651000D01*
X110775451Y-64628884D01*
X110664266Y-64606768D01*
X110454797Y-64520003D01*
X110266280Y-64394040D01*
X110105960Y-64233720D01*
X109979997Y-64045203D01*
X109893232Y-63835734D01*
X109849000Y-63613364D01*
X109849000Y-63386636D01*
X109893232Y-63164266D01*
X109979997Y-62954797D01*
X110105960Y-62766280D01*
X110266280Y-62605960D01*
X110454797Y-62479997D01*
X110457844Y-62478735D01*
X110516150Y-62454584D01*
X110664266Y-62393232D01*
X110775451Y-62371116D01*
X110886635Y-62349000D01*
X111113365Y-62349000D01*
X111224549Y-62371116D01*
G37*
G36*
X124219059Y-61277860D02*
G01*
X124355732Y-61334472D01*
X124478735Y-61416660D01*
X124583340Y-61521265D01*
X124583341Y-61521267D01*
X124665529Y-61644270D01*
X124722140Y-61780941D01*
X124751000Y-61926032D01*
X124751000Y-62073968D01*
X124722140Y-62219059D01*
X124668317Y-62349000D01*
X124665528Y-62355732D01*
X124583340Y-62478735D01*
X124478735Y-62583340D01*
X124355732Y-62665528D01*
X124355731Y-62665529D01*
X124355730Y-62665529D01*
X124219059Y-62722140D01*
X124073968Y-62751000D01*
X123926032Y-62751000D01*
X123780941Y-62722140D01*
X123644270Y-62665529D01*
X123644269Y-62665529D01*
X123644268Y-62665528D01*
X123521265Y-62583340D01*
X123416660Y-62478735D01*
X123334472Y-62355732D01*
X123331684Y-62349000D01*
X123277860Y-62219059D01*
X123249000Y-62073968D01*
X123249000Y-61926032D01*
X123277860Y-61780941D01*
X123334471Y-61644270D01*
X123416659Y-61521267D01*
X123416660Y-61521265D01*
X123521265Y-61416660D01*
X123644268Y-61334472D01*
X123780941Y-61277860D01*
X123926032Y-61249000D01*
X124073968Y-61249000D01*
X124219059Y-61277860D01*
G37*
G36*
X117679059Y-58777860D02*
G01*
X117815732Y-58834472D01*
X117938735Y-58916660D01*
X118043340Y-59021265D01*
X118125528Y-59144268D01*
X118182140Y-59280941D01*
X118211000Y-59426033D01*
X118211000Y-59573967D01*
X118182140Y-59719059D01*
X118125528Y-59855732D01*
X118043340Y-59978735D01*
X117938735Y-60083340D01*
X117815732Y-60165528D01*
X117815731Y-60165529D01*
X117815730Y-60165529D01*
X117679059Y-60222140D01*
X117533968Y-60251000D01*
X117386032Y-60251000D01*
X117240941Y-60222140D01*
X117104270Y-60165529D01*
X117104269Y-60165529D01*
X117104268Y-60165528D01*
X116981265Y-60083340D01*
X116876660Y-59978735D01*
X116794472Y-59855732D01*
X116737860Y-59719059D01*
X116709000Y-59573967D01*
X116709000Y-59426033D01*
X116737860Y-59280941D01*
X116794472Y-59144268D01*
X116876660Y-59021265D01*
X116981265Y-58916660D01*
X117104268Y-58834472D01*
X117240941Y-58777860D01*
X117386032Y-58749000D01*
X117533968Y-58749000D01*
X117679059Y-58777860D01*
G37*
G36*
X120219059Y-58777860D02*
G01*
X120355732Y-58834472D01*
X120478735Y-58916660D01*
X120583340Y-59021265D01*
X120665528Y-59144268D01*
X120722140Y-59280941D01*
X120751000Y-59426033D01*
X120751000Y-59573967D01*
X120722140Y-59719059D01*
X120665528Y-59855732D01*
X120583340Y-59978735D01*
X120478735Y-60083340D01*
X120355732Y-60165528D01*
X120355731Y-60165529D01*
X120355730Y-60165529D01*
X120219059Y-60222140D01*
X120073968Y-60251000D01*
X119926032Y-60251000D01*
X119780941Y-60222140D01*
X119644270Y-60165529D01*
X119644269Y-60165529D01*
X119644268Y-60165528D01*
X119521265Y-60083340D01*
X119416660Y-59978735D01*
X119334472Y-59855732D01*
X119277860Y-59719059D01*
X119249000Y-59573967D01*
X119249000Y-59426033D01*
X119277860Y-59280941D01*
X119334472Y-59144268D01*
X119416660Y-59021265D01*
X119521265Y-58916660D01*
X119644268Y-58834472D01*
X119780941Y-58777860D01*
X119926032Y-58749000D01*
X120073968Y-58749000D01*
X120219059Y-58777860D01*
G37*
G36*
X127908600Y-56102989D02*
G01*
X127941652Y-56113015D01*
X127972103Y-56129292D01*
X127998799Y-56151201D01*
X128020708Y-56177897D01*
X128036985Y-56208348D01*
X128047011Y-56241400D01*
X128051000Y-56281903D01*
X128051000Y-57718097D01*
X128047011Y-57758600D01*
X128036985Y-57791652D01*
X128020708Y-57822103D01*
X127998799Y-57848799D01*
X127972103Y-57870708D01*
X127941652Y-57886985D01*
X127908600Y-57897011D01*
X127868097Y-57901000D01*
X126131903Y-57901000D01*
X126091400Y-57897011D01*
X126058348Y-57886985D01*
X126027897Y-57870708D01*
X126001201Y-57848799D01*
X125979292Y-57822103D01*
X125963015Y-57791652D01*
X125952989Y-57758600D01*
X125949000Y-57718097D01*
X125949000Y-56281903D01*
X125952989Y-56241400D01*
X125963015Y-56208348D01*
X125979292Y-56177897D01*
X126001201Y-56151201D01*
X126027897Y-56129292D01*
X126058348Y-56113015D01*
X126091400Y-56102989D01*
X126131903Y-56099000D01*
X127868097Y-56099000D01*
X127908600Y-56102989D01*
G37*
G36*
X106908600Y-56102989D02*
G01*
X106941652Y-56113015D01*
X106972103Y-56129292D01*
X106998799Y-56151201D01*
X107020708Y-56177897D01*
X107036985Y-56208348D01*
X107047011Y-56241400D01*
X107051000Y-56281903D01*
X107051000Y-57718097D01*
X107047011Y-57758600D01*
X107036985Y-57791652D01*
X107020708Y-57822103D01*
X106998799Y-57848799D01*
X106972103Y-57870708D01*
X106941652Y-57886985D01*
X106908600Y-57897011D01*
X106868097Y-57901000D01*
X105131903Y-57901000D01*
X105091400Y-57897011D01*
X105058348Y-57886985D01*
X105027897Y-57870708D01*
X105001201Y-57848799D01*
X104979292Y-57822103D01*
X104963015Y-57791652D01*
X104952989Y-57758600D01*
X104949000Y-57718097D01*
X104949000Y-56281903D01*
X104952989Y-56241400D01*
X104963015Y-56208348D01*
X104979292Y-56177897D01*
X105001201Y-56151201D01*
X105027897Y-56129292D01*
X105058348Y-56113015D01*
X105091400Y-56102989D01*
X105131903Y-56099000D01*
X106868097Y-56099000D01*
X106908600Y-56102989D01*
G37*
G36*
X106260443Y-53605519D02*
G01*
X106326627Y-53612037D01*
X106496466Y-53663557D01*
X106652991Y-53747222D01*
X106688729Y-53776552D01*
X106790186Y-53859814D01*
X106873448Y-53961271D01*
X106902778Y-53997009D01*
X106986443Y-54153534D01*
X107037963Y-54323373D01*
X107055359Y-54500000D01*
X107037963Y-54676627D01*
X106986443Y-54846466D01*
X106902778Y-55002991D01*
X106873448Y-55038729D01*
X106790186Y-55140186D01*
X106688729Y-55223448D01*
X106652991Y-55252778D01*
X106496466Y-55336443D01*
X106326627Y-55387963D01*
X106260443Y-55394481D01*
X106194260Y-55401000D01*
X105805740Y-55401000D01*
X105739557Y-55394481D01*
X105673373Y-55387963D01*
X105503534Y-55336443D01*
X105347009Y-55252778D01*
X105311271Y-55223448D01*
X105209814Y-55140186D01*
X105126552Y-55038729D01*
X105097222Y-55002991D01*
X105013557Y-54846466D01*
X104962037Y-54676627D01*
X104944641Y-54500000D01*
X104962037Y-54323373D01*
X105013557Y-54153534D01*
X105097222Y-53997009D01*
X105126552Y-53961271D01*
X105209814Y-53859814D01*
X105311271Y-53776552D01*
X105347009Y-53747222D01*
X105503534Y-53663557D01*
X105673373Y-53612037D01*
X105739557Y-53605519D01*
X105805740Y-53599000D01*
X106194260Y-53599000D01*
X106260443Y-53605519D01*
G37*
G36*
X127260443Y-53605519D02*
G01*
X127326627Y-53612037D01*
X127496466Y-53663557D01*
X127652991Y-53747222D01*
X127688729Y-53776552D01*
X127790186Y-53859814D01*
X127873448Y-53961271D01*
X127902778Y-53997009D01*
X127986443Y-54153534D01*
X128037963Y-54323373D01*
X128055359Y-54500000D01*
X128037963Y-54676627D01*
X127986443Y-54846466D01*
X127902778Y-55002991D01*
X127873448Y-55038729D01*
X127790186Y-55140186D01*
X127688729Y-55223448D01*
X127652991Y-55252778D01*
X127496466Y-55336443D01*
X127326627Y-55387963D01*
X127260443Y-55394481D01*
X127194260Y-55401000D01*
X126805740Y-55401000D01*
X126739557Y-55394481D01*
X126673373Y-55387963D01*
X126503534Y-55336443D01*
X126347009Y-55252778D01*
X126311271Y-55223448D01*
X126209814Y-55140186D01*
X126126552Y-55038729D01*
X126097222Y-55002991D01*
X126013557Y-54846466D01*
X125962037Y-54676627D01*
X125944641Y-54500000D01*
X125962037Y-54323373D01*
X126013557Y-54153534D01*
X126097222Y-53997009D01*
X126126552Y-53961271D01*
X126209814Y-53859814D01*
X126311271Y-53776552D01*
X126347009Y-53747222D01*
X126503534Y-53663557D01*
X126673373Y-53612037D01*
X126739557Y-53605519D01*
X126805740Y-53599000D01*
X127194260Y-53599000D01*
X127260443Y-53605519D01*
G37*
G36*
X120176626Y-52987037D02*
G01*
X120346465Y-53038557D01*
X120346467Y-53038558D01*
X120502989Y-53122221D01*
X120640186Y-53234814D01*
X120723448Y-53336271D01*
X120752778Y-53372009D01*
X120836443Y-53528534D01*
X120887963Y-53698373D01*
X120901000Y-53830742D01*
X120901000Y-54169257D01*
X120887963Y-54301626D01*
X120836443Y-54471466D01*
X120752778Y-54627991D01*
X120723448Y-54663729D01*
X120640186Y-54765186D01*
X120545250Y-54843097D01*
X120502991Y-54877778D01*
X120346466Y-54961443D01*
X120176627Y-55012963D01*
X120000000Y-55030359D01*
X119823374Y-55012963D01*
X119653535Y-54961443D01*
X119497010Y-54877778D01*
X119359815Y-54765185D01*
X119247222Y-54627991D01*
X119163557Y-54471466D01*
X119112037Y-54301627D01*
X119099000Y-54169258D01*
X119099000Y-53830743D01*
X119112037Y-53698374D01*
X119163557Y-53528535D01*
X119247222Y-53372010D01*
X119247223Y-53372009D01*
X119359814Y-53234814D01*
X119461271Y-53151552D01*
X119497009Y-53122222D01*
X119653534Y-53038557D01*
X119823373Y-52987037D01*
X120000000Y-52969641D01*
X120176626Y-52987037D01*
G37*
G36*
X117676626Y-52987037D02*
G01*
X117846465Y-53038557D01*
X117846467Y-53038558D01*
X118002989Y-53122221D01*
X118140186Y-53234814D01*
X118223448Y-53336271D01*
X118252778Y-53372009D01*
X118336443Y-53528534D01*
X118387963Y-53698373D01*
X118401000Y-53830742D01*
X118401000Y-54169257D01*
X118387963Y-54301626D01*
X118336443Y-54471466D01*
X118252778Y-54627991D01*
X118223448Y-54663729D01*
X118140186Y-54765186D01*
X118045250Y-54843097D01*
X118002991Y-54877778D01*
X117846466Y-54961443D01*
X117676627Y-55012963D01*
X117500000Y-55030359D01*
X117323374Y-55012963D01*
X117153535Y-54961443D01*
X116997010Y-54877778D01*
X116859815Y-54765185D01*
X116747222Y-54627991D01*
X116663557Y-54471466D01*
X116612037Y-54301627D01*
X116599000Y-54169258D01*
X116599000Y-53830743D01*
X116612037Y-53698374D01*
X116663557Y-53528535D01*
X116747222Y-53372010D01*
X116747223Y-53372009D01*
X116859814Y-53234814D01*
X116961271Y-53151552D01*
X116997009Y-53122222D01*
X117153534Y-53038557D01*
X117323373Y-52987037D01*
X117500000Y-52969641D01*
X117676626Y-52987037D01*
G37*
G36*
X115758600Y-52977989D02*
G01*
X115791652Y-52988015D01*
X115822103Y-53004292D01*
X115848799Y-53026201D01*
X115870708Y-53052897D01*
X115886985Y-53083348D01*
X115897011Y-53116400D01*
X115901000Y-53156903D01*
X115901000Y-54843097D01*
X115897011Y-54883600D01*
X115886985Y-54916652D01*
X115870708Y-54947103D01*
X115848799Y-54973799D01*
X115822103Y-54995708D01*
X115791652Y-55011985D01*
X115758600Y-55022011D01*
X115718097Y-55026000D01*
X114281903Y-55026000D01*
X114241400Y-55022011D01*
X114208348Y-55011985D01*
X114177897Y-54995708D01*
X114151201Y-54973799D01*
X114129292Y-54947103D01*
X114113015Y-54916652D01*
X114102989Y-54883600D01*
X114099000Y-54843097D01*
X114099000Y-53156903D01*
X114102989Y-53116400D01*
X114113015Y-53083348D01*
X114129292Y-53052897D01*
X114151201Y-53026201D01*
X114177897Y-53004292D01*
X114208348Y-52988015D01*
X114241400Y-52977989D01*
X114281903Y-52974000D01*
X115718097Y-52974000D01*
X115758600Y-52977989D01*
G37*
M02*
