G04 #@! TF.GenerationSoftware,KiCad,Pcbnew,5.1.5-52549c5~84~ubuntu18.04.1*
G04 #@! TF.CreationDate,2020-02-24T15:44:40+01:00*
G04 #@! TF.ProjectId,osat_dcdc_board,6f736174-5f64-4636-9463-5f626f617264,rev?*
G04 #@! TF.SameCoordinates,Original*
G04 #@! TF.FileFunction,Soldermask,Top*
G04 #@! TF.FilePolarity,Negative*
%FSLAX46Y46*%
G04 Gerber Fmt 4.6, Leading zero omitted, Abs format (unit mm)*
G04 Created by KiCad (PCBNEW 5.1.5-52549c5~84~ubuntu18.04.1) date 2020-02-24 15:44:40*
%MOMM*%
%LPD*%
G04 APERTURE LIST*
%ADD10C,0.100000*%
G04 APERTURE END LIST*
D10*
G36*
X150669104Y-113418243D02*
G01*
X150817063Y-113479530D01*
X150950217Y-113568500D01*
X151063463Y-113681746D01*
X151152433Y-113814900D01*
X151213720Y-113962859D01*
X151244962Y-114119926D01*
X151244962Y-114280076D01*
X151213720Y-114437143D01*
X151152433Y-114585102D01*
X151063463Y-114718256D01*
X150950217Y-114831502D01*
X150817063Y-114920472D01*
X150669104Y-114981759D01*
X150512037Y-115013001D01*
X150351887Y-115013001D01*
X150194820Y-114981759D01*
X150046861Y-114920472D01*
X149913707Y-114831502D01*
X149800461Y-114718256D01*
X149711491Y-114585102D01*
X149650204Y-114437143D01*
X149618962Y-114280076D01*
X149618962Y-114119926D01*
X149650204Y-113962859D01*
X149711491Y-113814900D01*
X149800461Y-113681746D01*
X149913707Y-113568500D01*
X150046861Y-113479530D01*
X150194820Y-113418243D01*
X150351887Y-113387001D01*
X150512037Y-113387001D01*
X150669104Y-113418243D01*
G37*
G36*
X131969104Y-113418243D02*
G01*
X132117063Y-113479530D01*
X132250217Y-113568500D01*
X132363463Y-113681746D01*
X132452433Y-113814900D01*
X132513720Y-113962859D01*
X132544962Y-114119926D01*
X132544962Y-114280076D01*
X132513720Y-114437143D01*
X132452433Y-114585102D01*
X132363463Y-114718256D01*
X132250217Y-114831502D01*
X132117063Y-114920472D01*
X131969104Y-114981759D01*
X131812037Y-115013001D01*
X131651887Y-115013001D01*
X131494820Y-114981759D01*
X131346861Y-114920472D01*
X131213707Y-114831502D01*
X131100461Y-114718256D01*
X131011491Y-114585102D01*
X130950204Y-114437143D01*
X130918962Y-114280076D01*
X130918962Y-114119926D01*
X130950204Y-113962859D01*
X131011491Y-113814900D01*
X131100461Y-113681746D01*
X131213707Y-113568500D01*
X131346861Y-113479530D01*
X131494820Y-113418243D01*
X131651887Y-113387001D01*
X131812037Y-113387001D01*
X131969104Y-113418243D01*
G37*
G36*
X160260442Y-112105518D02*
G01*
X160326627Y-112112037D01*
X160496466Y-112163557D01*
X160496468Y-112163558D01*
X160574729Y-112205390D01*
X160652991Y-112247222D01*
X160688729Y-112276552D01*
X160790186Y-112359814D01*
X160873448Y-112461271D01*
X160902778Y-112497009D01*
X160986443Y-112653534D01*
X161037963Y-112823373D01*
X161055359Y-113000000D01*
X161037963Y-113176627D01*
X160986443Y-113346466D01*
X160902778Y-113502991D01*
X160873448Y-113538729D01*
X160790186Y-113640186D01*
X160688729Y-113723448D01*
X160652991Y-113752778D01*
X160496466Y-113836443D01*
X160326627Y-113887963D01*
X160260443Y-113894481D01*
X160194260Y-113901000D01*
X159805740Y-113901000D01*
X159739557Y-113894481D01*
X159673373Y-113887963D01*
X159503534Y-113836443D01*
X159347009Y-113752778D01*
X159311271Y-113723448D01*
X159209814Y-113640186D01*
X159126552Y-113538729D01*
X159097222Y-113502991D01*
X159013557Y-113346466D01*
X158962037Y-113176627D01*
X158944641Y-113000000D01*
X158962037Y-112823373D01*
X159013557Y-112653534D01*
X159097222Y-112497009D01*
X159126552Y-112461271D01*
X159209814Y-112359814D01*
X159311271Y-112276552D01*
X159347009Y-112247222D01*
X159425272Y-112205389D01*
X159503532Y-112163558D01*
X159503534Y-112163557D01*
X159673373Y-112112037D01*
X159739558Y-112105518D01*
X159805740Y-112099000D01*
X160194260Y-112099000D01*
X160260442Y-112105518D01*
G37*
G36*
X125260443Y-111605519D02*
G01*
X125326627Y-111612037D01*
X125496466Y-111663557D01*
X125652991Y-111747222D01*
X125688729Y-111776552D01*
X125790186Y-111859814D01*
X125873448Y-111961271D01*
X125902778Y-111997009D01*
X125986443Y-112153534D01*
X126037963Y-112323373D01*
X126055359Y-112500000D01*
X126037963Y-112676627D01*
X125986443Y-112846466D01*
X125902778Y-113002991D01*
X125873448Y-113038729D01*
X125790186Y-113140186D01*
X125688729Y-113223448D01*
X125652991Y-113252778D01*
X125496466Y-113336443D01*
X125326627Y-113387963D01*
X125260442Y-113394482D01*
X125194260Y-113401000D01*
X124805740Y-113401000D01*
X124739558Y-113394482D01*
X124673373Y-113387963D01*
X124503534Y-113336443D01*
X124347009Y-113252778D01*
X124311271Y-113223448D01*
X124209814Y-113140186D01*
X124126552Y-113038729D01*
X124097222Y-113002991D01*
X124013557Y-112846466D01*
X123962037Y-112676627D01*
X123944641Y-112500000D01*
X123962037Y-112323373D01*
X124013557Y-112153534D01*
X124097222Y-111997009D01*
X124126552Y-111961271D01*
X124209814Y-111859814D01*
X124311271Y-111776552D01*
X124347009Y-111747222D01*
X124503534Y-111663557D01*
X124673373Y-111612037D01*
X124739557Y-111605519D01*
X124805740Y-111599000D01*
X125194260Y-111599000D01*
X125260443Y-111605519D01*
G37*
G36*
X150669104Y-110878243D02*
G01*
X150817063Y-110939530D01*
X150950217Y-111028500D01*
X151063463Y-111141746D01*
X151152433Y-111274900D01*
X151213720Y-111422859D01*
X151244962Y-111579926D01*
X151244962Y-111740076D01*
X151213720Y-111897143D01*
X151152433Y-112045102D01*
X151063463Y-112178256D01*
X150950217Y-112291502D01*
X150817063Y-112380472D01*
X150669104Y-112441759D01*
X150512037Y-112473001D01*
X150351887Y-112473001D01*
X150194820Y-112441759D01*
X150046861Y-112380472D01*
X149913707Y-112291502D01*
X149800461Y-112178256D01*
X149711491Y-112045102D01*
X149650204Y-111897143D01*
X149618962Y-111740076D01*
X149618962Y-111579926D01*
X149650204Y-111422859D01*
X149711491Y-111274900D01*
X149800461Y-111141746D01*
X149913707Y-111028500D01*
X150046861Y-110939530D01*
X150194820Y-110878243D01*
X150351887Y-110847001D01*
X150512037Y-110847001D01*
X150669104Y-110878243D01*
G37*
G36*
X131969104Y-110878243D02*
G01*
X132117063Y-110939530D01*
X132250217Y-111028500D01*
X132363463Y-111141746D01*
X132452433Y-111274900D01*
X132513720Y-111422859D01*
X132544962Y-111579926D01*
X132544962Y-111740076D01*
X132513720Y-111897143D01*
X132452433Y-112045102D01*
X132363463Y-112178256D01*
X132250217Y-112291502D01*
X132117063Y-112380472D01*
X131969104Y-112441759D01*
X131812037Y-112473001D01*
X131651887Y-112473001D01*
X131494820Y-112441759D01*
X131346861Y-112380472D01*
X131213707Y-112291502D01*
X131100461Y-112178256D01*
X131011491Y-112045102D01*
X130950204Y-111897143D01*
X130918962Y-111740076D01*
X130918962Y-111579926D01*
X130950204Y-111422859D01*
X131011491Y-111274900D01*
X131100461Y-111141746D01*
X131213707Y-111028500D01*
X131346861Y-110939530D01*
X131494820Y-110878243D01*
X131651887Y-110847001D01*
X131812037Y-110847001D01*
X131969104Y-110878243D01*
G37*
G36*
X160908600Y-109602989D02*
G01*
X160941652Y-109613015D01*
X160972103Y-109629292D01*
X160998799Y-109651201D01*
X161020708Y-109677897D01*
X161036985Y-109708348D01*
X161047011Y-109741400D01*
X161051000Y-109781903D01*
X161051000Y-111218097D01*
X161047011Y-111258600D01*
X161036985Y-111291652D01*
X161020708Y-111322103D01*
X160998799Y-111348799D01*
X160972103Y-111370708D01*
X160941652Y-111386985D01*
X160908600Y-111397011D01*
X160868097Y-111401000D01*
X159131903Y-111401000D01*
X159091400Y-111397011D01*
X159058348Y-111386985D01*
X159027897Y-111370708D01*
X159001201Y-111348799D01*
X158979292Y-111322103D01*
X158963015Y-111291652D01*
X158952989Y-111258600D01*
X158949000Y-111218097D01*
X158949000Y-109781903D01*
X158952989Y-109741400D01*
X158963015Y-109708348D01*
X158979292Y-109677897D01*
X159001201Y-109651201D01*
X159027897Y-109629292D01*
X159058348Y-109613015D01*
X159091400Y-109602989D01*
X159131903Y-109599000D01*
X160868097Y-109599000D01*
X160908600Y-109602989D01*
G37*
G36*
X125908600Y-109102989D02*
G01*
X125941652Y-109113015D01*
X125972103Y-109129292D01*
X125998799Y-109151201D01*
X126020708Y-109177897D01*
X126036985Y-109208348D01*
X126047011Y-109241400D01*
X126051000Y-109281903D01*
X126051000Y-110718097D01*
X126047011Y-110758600D01*
X126036985Y-110791652D01*
X126020708Y-110822103D01*
X125998799Y-110848799D01*
X125972103Y-110870708D01*
X125941652Y-110886985D01*
X125908600Y-110897011D01*
X125868097Y-110901000D01*
X124131903Y-110901000D01*
X124091400Y-110897011D01*
X124058348Y-110886985D01*
X124027897Y-110870708D01*
X124001201Y-110848799D01*
X123979292Y-110822103D01*
X123963015Y-110791652D01*
X123952989Y-110758600D01*
X123949000Y-110718097D01*
X123949000Y-109281903D01*
X123952989Y-109241400D01*
X123963015Y-109208348D01*
X123979292Y-109177897D01*
X124001201Y-109151201D01*
X124027897Y-109129292D01*
X124058348Y-109113015D01*
X124091400Y-109102989D01*
X124131903Y-109099000D01*
X125868097Y-109099000D01*
X125908600Y-109102989D01*
G37*
G36*
X155224549Y-107371116D02*
G01*
X155335734Y-107393232D01*
X155545203Y-107479997D01*
X155733720Y-107605960D01*
X155894040Y-107766280D01*
X156020003Y-107954797D01*
X156106768Y-108164266D01*
X156151000Y-108386636D01*
X156151000Y-108613364D01*
X156106768Y-108835734D01*
X156020003Y-109045203D01*
X155894040Y-109233720D01*
X155733720Y-109394040D01*
X155545203Y-109520003D01*
X155335734Y-109606768D01*
X155224549Y-109628884D01*
X155113365Y-109651000D01*
X154886635Y-109651000D01*
X154775451Y-109628884D01*
X154664266Y-109606768D01*
X154454797Y-109520003D01*
X154266280Y-109394040D01*
X154105960Y-109233720D01*
X153979997Y-109045203D01*
X153893232Y-108835734D01*
X153849000Y-108613364D01*
X153849000Y-108386636D01*
X153893232Y-108164266D01*
X153979997Y-107954797D01*
X154105960Y-107766280D01*
X154266280Y-107605960D01*
X154454797Y-107479997D01*
X154664266Y-107393232D01*
X154775451Y-107371116D01*
X154886635Y-107349000D01*
X155113365Y-107349000D01*
X155224549Y-107371116D01*
G37*
G36*
X158851000Y-105851000D02*
G01*
X157149000Y-105851000D01*
X157149000Y-104149000D01*
X158851000Y-104149000D01*
X158851000Y-105851000D01*
G37*
G36*
X131969104Y-101978243D02*
G01*
X132117063Y-102039530D01*
X132250217Y-102128500D01*
X132363463Y-102241746D01*
X132452433Y-102374900D01*
X132513720Y-102522859D01*
X132544962Y-102679926D01*
X132544962Y-102840076D01*
X132513720Y-102997143D01*
X132452433Y-103145102D01*
X132363463Y-103278256D01*
X132250217Y-103391502D01*
X132117063Y-103480472D01*
X131969104Y-103541759D01*
X131812037Y-103573001D01*
X131651887Y-103573001D01*
X131494820Y-103541759D01*
X131346861Y-103480472D01*
X131213707Y-103391502D01*
X131100461Y-103278256D01*
X131011491Y-103145102D01*
X130950204Y-102997143D01*
X130918962Y-102840076D01*
X130918962Y-102679926D01*
X130950204Y-102522859D01*
X131011491Y-102374900D01*
X131100461Y-102241746D01*
X131213707Y-102128500D01*
X131346861Y-102039530D01*
X131494820Y-101978243D01*
X131651887Y-101947001D01*
X131812037Y-101947001D01*
X131969104Y-101978243D01*
G37*
G36*
X150669104Y-101978243D02*
G01*
X150817063Y-102039530D01*
X150950217Y-102128500D01*
X151063463Y-102241746D01*
X151152433Y-102374900D01*
X151213720Y-102522859D01*
X151244962Y-102679926D01*
X151244962Y-102840076D01*
X151213720Y-102997143D01*
X151152433Y-103145102D01*
X151063463Y-103278256D01*
X150950217Y-103391502D01*
X150817063Y-103480472D01*
X150669104Y-103541759D01*
X150512037Y-103573001D01*
X150351887Y-103573001D01*
X150194820Y-103541759D01*
X150046861Y-103480472D01*
X149913707Y-103391502D01*
X149800461Y-103278256D01*
X149711491Y-103145102D01*
X149650204Y-102997143D01*
X149618962Y-102840076D01*
X149618962Y-102679926D01*
X149650204Y-102522859D01*
X149711491Y-102374900D01*
X149800461Y-102241746D01*
X149913707Y-102128500D01*
X150046861Y-102039530D01*
X150194820Y-101978243D01*
X150351887Y-101947001D01*
X150512037Y-101947001D01*
X150669104Y-101978243D01*
G37*
G36*
X124724549Y-99871116D02*
G01*
X124835734Y-99893232D01*
X125045203Y-99979997D01*
X125233720Y-100105960D01*
X125394040Y-100266280D01*
X125520003Y-100454797D01*
X125556323Y-100542480D01*
X125606768Y-100664267D01*
X125644012Y-100851502D01*
X125651000Y-100886636D01*
X125651000Y-101113364D01*
X125606768Y-101335734D01*
X125520003Y-101545203D01*
X125394040Y-101733720D01*
X125233720Y-101894040D01*
X125045203Y-102020003D01*
X124835734Y-102106768D01*
X124726469Y-102128502D01*
X124613365Y-102151000D01*
X124386635Y-102151000D01*
X124273531Y-102128502D01*
X124164266Y-102106768D01*
X123954797Y-102020003D01*
X123766280Y-101894040D01*
X123605960Y-101733720D01*
X123479997Y-101545203D01*
X123393232Y-101335734D01*
X123349000Y-101113364D01*
X123349000Y-100886636D01*
X123355989Y-100851502D01*
X123393232Y-100664267D01*
X123443678Y-100542480D01*
X123479997Y-100454797D01*
X123605960Y-100266280D01*
X123766280Y-100105960D01*
X123954797Y-99979997D01*
X124164266Y-99893232D01*
X124275451Y-99871116D01*
X124386635Y-99849000D01*
X124613365Y-99849000D01*
X124724549Y-99871116D01*
G37*
G36*
X131969104Y-99438243D02*
G01*
X132117063Y-99499530D01*
X132250217Y-99588500D01*
X132363463Y-99701746D01*
X132452433Y-99834900D01*
X132513720Y-99982859D01*
X132544962Y-100139926D01*
X132544962Y-100300076D01*
X132513720Y-100457143D01*
X132452433Y-100605102D01*
X132363463Y-100738256D01*
X132250217Y-100851502D01*
X132117063Y-100940472D01*
X131969104Y-101001759D01*
X131812037Y-101033001D01*
X131651887Y-101033001D01*
X131494820Y-101001759D01*
X131346861Y-100940472D01*
X131213707Y-100851502D01*
X131100461Y-100738256D01*
X131011491Y-100605102D01*
X130950204Y-100457143D01*
X130918962Y-100300076D01*
X130918962Y-100139926D01*
X130950204Y-99982859D01*
X131011491Y-99834900D01*
X131100461Y-99701746D01*
X131213707Y-99588500D01*
X131346861Y-99499530D01*
X131494820Y-99438243D01*
X131651887Y-99407001D01*
X131812037Y-99407001D01*
X131969104Y-99438243D01*
G37*
G36*
X150669104Y-99438243D02*
G01*
X150817063Y-99499530D01*
X150950217Y-99588500D01*
X151063463Y-99701746D01*
X151152433Y-99834900D01*
X151213720Y-99982859D01*
X151244962Y-100139926D01*
X151244962Y-100300076D01*
X151213720Y-100457143D01*
X151152433Y-100605102D01*
X151063463Y-100738256D01*
X150950217Y-100851502D01*
X150817063Y-100940472D01*
X150669104Y-101001759D01*
X150512037Y-101033001D01*
X150351887Y-101033001D01*
X150194820Y-101001759D01*
X150046861Y-100940472D01*
X149913707Y-100851502D01*
X149800461Y-100738256D01*
X149711491Y-100605102D01*
X149650204Y-100457143D01*
X149618962Y-100300076D01*
X149618962Y-100139926D01*
X149650204Y-99982859D01*
X149711491Y-99834900D01*
X149800461Y-99701746D01*
X149913707Y-99588500D01*
X150046861Y-99499530D01*
X150194820Y-99438243D01*
X150351887Y-99407001D01*
X150512037Y-99407001D01*
X150669104Y-99438243D01*
G37*
G36*
X158248228Y-99181703D02*
G01*
X158403100Y-99245853D01*
X158542481Y-99338985D01*
X158661015Y-99457519D01*
X158754147Y-99596900D01*
X158818297Y-99751772D01*
X158851000Y-99916184D01*
X158851000Y-100083816D01*
X158818297Y-100248228D01*
X158754147Y-100403100D01*
X158661015Y-100542481D01*
X158542481Y-100661015D01*
X158403100Y-100754147D01*
X158248228Y-100818297D01*
X158083816Y-100851000D01*
X157916184Y-100851000D01*
X157751772Y-100818297D01*
X157596900Y-100754147D01*
X157457519Y-100661015D01*
X157338985Y-100542481D01*
X157245853Y-100403100D01*
X157181703Y-100248228D01*
X157149000Y-100083816D01*
X157149000Y-99916184D01*
X157181703Y-99751772D01*
X157245853Y-99596900D01*
X157338985Y-99457519D01*
X157457519Y-99338985D01*
X157596900Y-99245853D01*
X157751772Y-99181703D01*
X157916184Y-99149000D01*
X158083816Y-99149000D01*
X158248228Y-99181703D01*
G37*
M02*
